<?xml version="1.0" standalone="no"?>

<!DOCTYPE svg PUBLIC "-//W3C//DTD SVG 20010904//EN"

 "http://www.w3.org/TR/2001/REC-SVG-20010904/DTD/svg10.dtd">

<svg version="1.0" xmlns="http://www.w3.org/2000/svg"

 width="113.385827" height="102.765111" viewBox="0 0 113.385827 102.765111"

 preserveAspectRatio="xMidYMid meet">

<metadata>

Created by potrace 1.14, written by Peter Selinger 2001-2017

</metadata>

<g transform="translate(0.000000,102.765111) scale(0.025197,-0.025197)"

fill="#000000" stroke="none">

<path d="M2415 4070 c-9 -14 33 -80 51 -80 8 0 14 -7 14 -15 0 -10 11 -15 35

-15 28 0 35 -4 35 -19 0 -17 18 -31 41 -31 5 0 7 11 3 25 -3 14 -2 25 4 25 5

0 9 -16 8 -35 -1 -32 5 -40 27 -36 4 0 7 -7 8 -16 0 -11 3 -13 6 -5 2 6 13 12

23 12 59 0 -5 74 -75 86 -32 6 -36 9 -20 15 17 7 18 8 3 8 -10 1 -18 8 -18 16

0 8 -6 15 -14 15 -8 0 -16 7 -20 15 -3 8 -13 15 -21 15 -10 0 -13 -5 -9 -12 4

-7 3 -8 -5 -4 -6 4 -10 15 -9 24 2 12 -6 18 -29 20 -17 2 -34 -2 -38 -8z"/>

<path d="M2154 3935 l30 -13 -22 -13 c-12 -8 -22 -19 -22 -26 0 -14 -13 -17

-23 -6 -4 3 -2 12 4 20 8 9 8 13 1 13 -21 0 -24 -41 -6 -68 10 -15 17 -33 16

-40 -2 -9 4 -12 15 -10 10 2 17 10 15 17 -1 7 7 15 18 18 27 7 26 21 -2 26

-17 3 -14 5 10 6 22 1 32 6 32 17 0 11 6 14 20 9 16 -5 20 -2 20 15 0 12 -4

18 -10 15 -6 -4 -19 -4 -28 0 -15 6 -15 8 3 15 18 8 18 9 -5 10 -14 1 -41 3

-60 4 l-35 3 29 -12z"/>

<path d="M120 3663 c0 -6 5 -13 12 -15 7 -3 9 -12 5 -22 -4 -11 -13 -16 -22

-12 -8 3 -17 1 -21 -5 -4 -7 -10 -6 -18 0 -9 8 -22 6 -45 -5 l-31 -15 0 -1795

0 -1794 1038 0 1038 0 1 69 c1 38 6 78 12 90 10 17 9 21 -4 21 -10 0 -15 -10

-15 -32 0 -55 -19 -18 -44 88 -29 118 -134 643 -134 664 0 8 -3 23 -7 33 -11

25 12 21 27 -5 7 -13 11 -26 10 -29 0 -4 11 -12 26 -18 15 -6 33 -25 41 -41 7

-17 19 -30 27 -30 8 0 14 -7 14 -15 0 -8 6 -15 14 -15 8 0 20 -13 27 -29 8

-17 16 -26 19 -21 9 15 33 -6 34 -31 0 -12 6 -24 12 -26 19 -6 3 50 -18 65

-10 7 -18 20 -18 29 0 9 -3 13 -7 10 -10 -11 -30 24 -57 103 -31 87 -33 108

-11 90 8 -7 13 -16 10 -20 -6 -10 24 -22 36 -14 5 3 9 1 9 -4 0 -18 33 -23 42

-7 11 18 45 20 51 3 2 -7 2 -3 0 10 -2 12 1 22 7 22 5 0 10 -6 10 -12 0 -7 5

-5 11 5 5 9 14 17 19 17 6 0 20 10 31 21 16 16 23 18 29 9 5 -9 9 -9 14 -1 4

6 25 11 47 11 l41 0 -7 -41 c-8 -48 -31 -107 -50 -129 -7 -9 -10 -23 -5 -35 6

-18 9 -17 38 14 32 35 35 34 45 -14 2 -14 6 -8 12 18 4 22 3 48 -2 60 -6 12

-9 44 -8 71 1 45 3 50 26 51 31 3 59 -12 59 -30 0 -8 5 -15 12 -15 6 0 9 3 5

6 -3 3 4 16 16 28 27 27 42 16 52 -38 4 -20 15 -41 24 -46 9 -5 12 -10 8 -10

-19 0 16 -40 36 -40 18 0 19 -2 7 -10 -12 -8 -10 -10 8 -10 13 0 21 -3 19 -7

-3 -5 10 -9 28 -10 35 -3 65 17 65 43 0 8 5 12 10 9 6 -3 11 -1 11 4 1 6 3 16

4 21 1 6 3 15 4 21 0 5 6 7 13 3 8 -5 9 -2 5 9 -4 10 -2 17 4 17 6 0 9 7 6 14

-4 10 -1 13 8 10 7 -3 13 1 12 8 -1 38 4 59 14 53 6 -4 9 0 7 11 -2 12 2 18

10 16 8 -1 11 2 7 8 -3 5 -2 10 4 10 6 0 8 7 5 15 -4 10 0 15 12 15 15 0 16 2

5 9 -17 11 -5 32 14 25 10 -4 12 0 8 15 -4 17 -2 20 11 15 20 -8 21 -44 1 -44

-8 0 -15 -5 -15 -11 0 -5 5 -7 10 -4 11 7 4 -38 -8 -60 -3 -5 -7 -19 -8 -30

-3 -25 -73 -256 -180 -591 -47 -147 -81 -237 -94 -249 -12 -11 -18 -25 -14

-39 2 -12 -4 -48 -16 -80 -11 -33 -20 -61 -20 -63 0 -1 428 -3 950 -3 l950 0

0 730 0 729 -42 11 c-24 7 -62 18 -86 26 -24 8 -64 19 -90 24 -104 23 -328 83

-337 91 -5 6 -2 9 8 9 13 0 17 9 17 40 0 22 -4 40 -10 40 -5 0 -10 11 -10 24

0 14 -4 28 -10 31 -5 3 -10 2 -10 -3 0 -6 -9 -8 -20 -5 -14 4 -20 0 -20 -11 0

-9 -5 -16 -11 -16 -6 0 -9 6 -6 14 6 15 -34 27 -87 25 -26 -1 -24 -3 14 -10

43 -8 75 -33 65 -50 -3 -4 1 -9 7 -12 25 -8 -198 4 -247 14 -27 6 -83 14 -124

19 -43 5 -77 14 -82 22 -5 7 -9 10 -9 6 0 -12 -87 23 -105 42 -9 10 -23 16

-31 13 -17 -6 -37 9 -66 49 l-21 30 74 -5 c134 -8 233 -15 299 -21 36 -3 139

-11 230 -16 91 -6 212 -15 270 -21 58 -5 161 -12 230 -15 69 -3 144 -7 168 -9

l42 -3 0 44 c0 47 -8 52 -44 29 -13 -9 -30 -13 -38 -10 -12 5 -7 21 25 85 21

44 43 80 48 80 5 0 9 54 9 120 0 113 -10 152 -24 94 -5 -19 -12 -25 -29 -22

-19 3 -22 9 -22 52 0 60 22 81 54 52 19 -18 20 -17 20 103 0 67 -2 121 -5 121

-3 0 -15 -12 -28 -27 -22 -25 -25 -26 -55 -13 -28 11 -34 10 -51 -5 -11 -10

-20 -25 -20 -33 0 -11 -11 -13 -45 -10 -25 2 -45 0 -45 -4 0 -4 -6 -5 -12 -3

-26 9 -198 13 -198 4 0 -5 12 -9 26 -9 35 0 53 -21 47 -53 -4 -20 -1 -27 10

-27 23 0 48 30 42 50 -5 15 1 18 40 18 26 1 45 -3 45 -9 0 -6 7 -9 15 -5 30

11 14 -17 -32 -57 -26 -23 -60 -54 -75 -68 -23 -22 -28 -24 -31 -10 -4 15 -5

15 -6 0 -1 -19 -38 -32 -47 -18 -3 5 -9 7 -13 4 -9 -5 -101 80 -101 94 0 5 6

12 13 14 7 3 5 6 -5 6 -10 1 -18 5 -18 11 0 10 -48 8 -67 -3 -6 -4 -10 7 -9

31 l1 37 55 -1 c30 -1 49 1 42 3 -18 7 -15 21 7 28 11 3 23 15 26 26 7 22 35

26 35 5 0 -12 10 -11 58 6 46 16 62 18 85 9 23 -9 26 -15 21 -36 -7 -28 12

-36 23 -9 5 12 7 13 14 2 5 -8 7 -1 4 17 -2 17 -4 33 -4 36 -1 4 -13 18 -27

32 -18 18 -25 34 -21 47 6 23 -8 27 -20 6 -5 -7 -33 -16 -67 -19 -33 -3 -66

-13 -77 -23 -11 -10 -27 -14 -40 -11 -12 3 -30 1 -40 -6 -25 -16 -48 5 -30 26

9 12 8 16 -4 21 -8 3 -15 1 -15 -5 0 -6 -5 -7 -10 -4 -6 3 -10 15 -10 26 0 10

-4 19 -9 19 -5 0 -8 -12 -5 -26 3 -16 1 -23 -6 -19 -6 4 -8 -4 -4 -22 5 -24 1

-30 -25 -40 -33 -12 -32 -12 -69 32 -12 14 -10 20 12 40 32 30 33 45 4 47 -13

0 -29 2 -37 2 -8 1 -18 10 -22 21 -6 16 -8 16 -8 3 -1 -21 -20 -27 -49 -17

-25 10 -71 -15 -72 -38 0 -7 -10 -13 -21 -13 -21 0 -22 -9 -5 -50 4 -9 0 -24

-7 -34 -17 -23 -55 -14 -67 17 -8 21 -9 21 -9 -3 -1 -18 -7 -26 -20 -27 -14

-1 -17 3 -14 18 3 10 9 19 14 19 5 0 9 6 9 13 0 7 9 18 21 25 17 11 19 16 7

29 -9 12 -10 15 0 9 6 -4 12 -2 12 3 0 6 -4 11 -10 11 -5 0 -10 9 -10 20 0 18

-3 19 -20 8 -14 -9 -16 -15 -7 -21 8 -6 3 -7 -11 -4 -13 3 -22 3 -19 0 3 -2 1

-18 -5 -34 -7 -22 -13 -27 -23 -19 -6 5 -15 7 -18 3 -4 -3 -7 0 -7 9 0 8 -15

28 -32 44 -30 27 -43 31 -65 24 -5 -1 -11 -2 -15 -1 -5 0 -8 -6 -8 -15 0 -8

-4 -13 -9 -9 -5 3 -17 -5 -25 -17 -11 -15 -26 -22 -47 -23 -29 0 -33 -4 -45

-45 -8 -25 -14 -45 -14 -45 0 -1 8 -1 18 -2 61 -5 84 -11 95 -23 10 -10 9 -12

-5 -7 -11 4 -18 1 -18 -6 0 -7 -13 -26 -29 -41 -23 -22 -35 -27 -56 -22 -17 4

-24 3 -20 -4 3 -5 14 -10 23 -10 15 0 15 -2 -1 -17 -16 -16 -19 -16 -27 -3 -8

13 -10 12 -10 -4 0 -21 -43 -63 -48 -47 -2 7 -12 7 -29 0 -18 -6 -30 -6 -36 0

-7 7 -5 12 5 16 9 4 14 17 13 35 -1 17 4 31 12 34 8 3 12 10 9 14 -3 5 8 16

24 25 35 21 65 62 74 102 5 22 4 26 -4 15 -8 -13 -10 -13 -10 1 0 21 -33 59

-51 59 -11 0 -11 2 1 10 13 8 12 10 -2 10 -10 0 -18 4 -18 10 0 5 -7 7 -15 4

-12 -5 -15 2 -15 30 0 29 4 37 24 42 13 3 32 21 42 40 10 19 22 34 26 34 4 0

5 35 2 78 -10 138 -9 175 2 179 7 2 12 -6 12 -19 0 -13 4 -53 9 -89 5 -37 6

-76 2 -86 -16 -43 -14 -76 4 -79 13 -2 17 5 18 29 l1 32 7 -30 6 -30 13 41

c15 50 15 54 1 54 -5 0 -8 -4 -4 -9 3 -5 0 -13 -5 -16 -8 -5 -10 4 -6 27 11

74 15 186 7 226 -10 50 -9 49 -41 54 -18 2 -28 -3 -35 -19 -5 -13 -15 -23 -22

-23 -7 0 -13 -5 -13 -11 0 -6 -7 -17 -15 -25 -8 -8 -11 -22 -8 -31 4 -11 2

-14 -5 -9 -14 8 -32 -24 -32 -59 0 -15 -4 -24 -10 -20 -6 3 -7 -1 -4 -9 3 -9

2 -16 -4 -16 -13 0 -3 -88 15 -123 11 -22 12 -40 5 -80 -20 -109 -14 -197 13

-197 7 0 15 -13 17 -30 3 -16 2 -30 -2 -30 -11 0 -30 24 -30 38 0 7 -7 20 -15

28 -13 14 -15 12 -15 -16 0 -19 -4 -29 -10 -25 -6 4 -18 -11 -27 -32 -15 -34

-17 -36 -21 -14 -2 14 5 36 17 52 25 33 27 49 6 49 -8 0 -15 -9 -15 -20 0 -24

-22 -26 -40 -5 -7 8 -20 15 -29 15 -9 0 -27 7 -39 16 -12 8 -26 12 -32 9 -5

-3 -18 -1 -29 5 -16 8 -22 7 -29 -7 -9 -15 -11 -15 -26 0 -9 9 -23 14 -30 11

-7 -3 -16 1 -19 9 -8 22 -61 28 -112 12 -44 -13 -47 -13 -55 8 -7 17 -9 18 -9

5 -1 -19 -21 -26 -21 -8 0 6 -7 10 -15 10 -8 0 -15 4 -15 8 0 5 -7 9 -15 9 -8

0 -15 -5 -15 -11 0 -6 -5 -4 -10 4 -5 8 -10 11 -10 5 0 -6 -4 -5 -8 1 -11 17

-72 5 -65 -12 3 -8 0 -14 -6 -14 -20 0 -11 -20 13 -29 24 -10 36 -30 36 -59 0

-12 -10 -18 -31 -19 -18 -1 -40 -10 -49 -18 -19 -17 -30 -18 -98 -10 -28 3

-41 1 -37 -5 3 -5 -2 -11 -12 -12 -33 -2 -38 -3 -49 -11 -7 -4 -25 0 -40 8

-34 17 -48 19 -39 5 3 -5 -3 -10 -14 -10 -26 0 -30 25 -14 80 17 58 17 58 -7

65 -12 4 -17 11 -13 18 3 7 -2 5 -13 -4 -10 -9 -25 -14 -32 -12 -11 4 -12 1

-3 -15 9 -18 8 -22 -12 -27 -39 -12 -107 -48 -107 -57 0 -5 -8 -7 -19 -3 -13

4 -20 0 -24 -16 -4 -14 -11 -20 -21 -16 -9 4 -16 2 -16 -3 0 -6 -9 -10 -20

-10 -12 0 -20 -7 -20 -16 0 -9 -7 -14 -17 -12 -11 2 -17 12 -16 23 1 20 1 20

-12 1 -14 -18 -15 -18 -35 5 l-21 24 5 -27 c6 -28 -7 -39 -18 -15 -3 6 -3 2 0

-10 3 -13 1 -23 -5 -23 -6 0 -5 -16 3 -44 9 -30 10 -48 4 -54 -12 -12 -40 -4

-33 9 3 4 -4 6 -15 4 -12 -2 -24 4 -30 16 -6 11 -14 17 -18 15 -5 -3 -14 -1

-21 4 -18 10 -40 -10 -34 -30 3 -11 1 -10 -10 3 -16 19 -37 23 -37 7 0 -5 -5

-10 -12 -10 -9 0 -9 3 0 12 7 7 12 21 11 32 0 20 -1 20 -8 2 -7 -17 -8 -17

-23 -2 -24 23 -69 21 -75 -4 -8 -30 -37 -20 -44 15 l-7 30 -2 -30 c-1 -26 -3

-27 -10 -10 -8 19 -8 19 -19 -5 -11 -24 -11 -24 -7 -2 3 14 -1 25 -10 29 -8 3

-14 11 -14 18 0 19 28 27 51 15 15 -8 19 -7 19 5 0 8 5 15 10 15 6 0 10 4 10

9 0 5 -10 7 -23 4 -18 -4 -19 -3 -7 6 17 12 47 5 68 -15 7 -8 18 -11 23 -8 17

10 4 27 -32 39 l-34 12 47 7 c32 5 48 13 51 24 4 16 5 16 6 0 0 -10 6 -18 11

-18 6 0 10 -6 10 -14 0 -8 6 -17 13 -19 7 -3 5 -6 -6 -6 -15 -1 -16 -5 -7 -21

15 -29 27 -25 28 10 0 17 -3 30 -9 30 -5 0 -12 18 -15 40 -6 39 -18 52 -26 28

-3 -7 -7 -5 -11 6 -4 10 -3 15 3 11 12 -7 3 69 -11 97 -5 9 -9 25 -8 35 0 13

3 12 10 -7 6 -14 17 -29 25 -33 8 -5 11 -13 8 -19 -4 -7 -2 -8 4 -4 7 4 9 19

5 38 -5 23 -3 29 6 23 8 -4 11 -20 9 -36 -3 -16 -1 -29 4 -29 4 0 8 -6 8 -12

0 -20 48 -61 63 -55 25 9 -9 177 -35 177 -18 0 -34 25 -30 47 5 27 -10 30 -29

6 -11 -13 -11 -17 -1 -20 17 -6 15 -23 -3 -23 -11 0 -15 11 -15 38 0 24 3 32

9 24 7 -11 10 -10 15 3 9 25 8 28 -10 21 -12 -4 -15 -2 -10 9 3 9 0 15 -11 15

-13 0 -13 3 -3 15 10 12 10 15 -3 15 -11 0 -14 5 -10 17 4 11 3 14 -5 9 -7 -4

-15 -1 -18 7 -9 24 -42 28 -47 5 -6 -20 18 -90 54 -160 5 -10 7 -18 3 -18 -7

0 -35 28 -34 35 0 3 -11 30 -25 61 -14 31 -25 63 -25 70 0 21 -20 17 -21 -3 0

-11 -3 -13 -6 -5 -7 19 -23 4 -16 -16 6 -15 5 -15 -12 1 -10 11 -26 16 -37 14

-14 -4 -18 -1 -14 9 6 15 2 16 -56 18 -38 1 -49 -7 -25 -18 6 -4 -3 -4 -21 -1

-18 2 -31 1 -28 -4 3 -5 -1 -14 -9 -21 -13 -10 -15 -9 -15 12 0 13 5 29 11 35

12 12 4 33 -12 33 -6 0 -8 -4 -5 -8 2 -4 -4 -9 -15 -9 -10 -1 -19 3 -19 8 0 6

5 7 10 4 5 -3 10 -1 10 5 0 7 -6 10 -12 7 -7 -2 -21 0 -30 5 -13 6 -18 5 -18

-7 0 -8 -4 -15 -10 -15 -5 0 -10 -9 -10 -20 0 -18 5 -19 45 -13 43 5 45 5 45

-20 0 -33 -17 -38 -58 -18 -31 14 -35 14 -47 -2 -15 -20 -85 -24 -85 -4 0 6

16 27 35 45 20 18 33 37 30 42 -3 6 0 10 7 10 9 0 8 4 -3 15 -20 20 -52 9 -44

-15 3 -10 1 -21 -5 -25 -6 -3 -8 -10 -5 -15 8 -12 -25 -42 -40 -36 -15 5 -28

-20 -19 -35 7 -13 -14 -39 -32 -39 -18 0 -18 25 0 43 9 9 11 18 5 24 -14 14

-29 71 -19 75 5 2 15 27 23 56 7 30 18 57 24 60 15 10 18 32 10 65 -9 32 -23

35 -32 6 -5 -15 -10 -18 -15 -9 -5 8 -9 5 -13 -9 -3 -12 -12 -21 -20 -21 -20

0 -40 -57 -28 -79 14 -25 2 -68 -21 -74 -15 -4 -22 1 -30 24 -11 33 -21 31

-23 -4 -1 -12 5 -27 14 -34 14 -11 14 -12 1 -13 -13 0 -13 -2 -1 -9 8 -5 16

-18 18 -29 2 -17 -3 -20 -33 -20 -40 0 -55 -9 -34 -22 11 -7 11 -11 1 -24 -17

-20 -41 -21 -41 -2 0 9 -10 13 -25 12 -16 0 -23 -6 -20 -13 3 -8 -4 -13 -18

-12 -12 0 -16 3 -9 6 6 2 12 11 12 19 0 8 5 14 10 14 6 0 10 5 10 10 0 6 -7

10 -15 10 -18 0 -19 5 -3 33 l12 22 6 -25 6 -25 6 23 c5 16 2 25 -10 29 -9 4

-20 11 -23 16 -3 4 -12 2 -20 -5 -21 -20 -79 -23 -79 -4 0 9 5 16 10 16 10 0

50 36 50 45 1 17 17 43 39 64 24 22 24 24 6 37 -10 7 -23 10 -29 7 -5 -4 -22

-8 -37 -10 -23 -2 -26 1 -22 21 4 17 10 22 24 19 10 -3 16 -9 13 -14 -3 -5 -1

-9 5 -9 5 0 15 8 20 18 10 16 10 15 12 -3 1 -18 2 -17 7 3 10 34 27 32 30 -4

2 -22 9 -34 23 -37 17 -5 18 -3 8 9 -9 11 -8 18 4 32 8 9 17 28 19 42 2 17 9

24 19 22 10 -1 19 6 22 18 4 14 10 18 23 13 13 -5 16 -3 11 10 -4 11 -2 14 9

10 7 -3 14 0 14 6 0 12 -46 15 -52 4 -1 -5 -17 -16 -35 -26 -24 -13 -32 -14

-36 -5 -4 10 -6 10 -6 1 -1 -7 -10 -13 -22 -13 -11 0 -17 5 -14 10 3 6 1 10

-4 10 -15 0 -13 31 2 50 7 8 18 15 26 15 8 0 16 6 19 13 4 14 -24 16 -33 2

-10 -15 -35 -12 -35 5 0 8 -7 15 -16 15 -10 0 -14 -6 -11 -15 7 -18 2 -21 -45

-30 -34 -7 -36 -5 -43 25 -6 29 -8 30 -21 13 -14 -17 -15 -16 -10 7 3 14 3 19

0 12 -3 -6 -9 -10 -14 -7 -11 7 -24 -51 -15 -65 4 -6 3 -10 -2 -9 -22 4 -25

-2 -7 -16 10 -8 14 -15 7 -15 -21 0 -53 42 -53 70 0 30 47 103 61 95 5 -4 9

-3 8 2 -1 4 -1 15 0 23 1 13 2 13 11 0 8 -13 10 -13 10 2 0 24 18 32 37 17 14

-12 15 -10 9 17 -5 24 -3 33 8 37 9 4 13 13 10 22 -7 17 -34 21 -34 4 0 -7

-14 -10 -35 -7 -22 2 -34 0 -32 -6 4 -11 -21 -41 -28 -35 -7 8 -13 71 -8 84 2

8 11 11 19 8 8 -3 14 0 14 6 0 6 7 11 15 11 8 0 15 7 15 15 0 18 16 20 23 3 3

-7 4 -3 4 10 -1 25 -19 29 -41 7 -20 -21 -35 -19 -57 8 -10 12 -18 17 -19 10z

m3710 -1224 c0 -11 4 -18 9 -14 5 3 12 1 15 -3 3 -5 -6 -15 -19 -22 -14 -7

-25 -19 -25 -26 0 -7 -8 -18 -17 -23 -10 -6 -15 -11 -10 -11 4 0 -2 -9 -13

-20 -25 -25 -25 -43 -1 -97 11 -23 17 -44 13 -47 -14 -15 -52 -4 -72 22 -12

15 -27 27 -33 28 -7 0 -31 -15 -54 -33 -53 -42 -64 -42 -61 3 1 22 -3 39 -12

44 -18 12 -36 7 -32 -9 1 -7 -3 -21 -9 -33 -8 -16 -8 -19 1 -13 9 5 10 2 6

-13 -6 -19 -2 -22 44 -28 40 -5 50 -10 45 -22 -3 -8 0 -21 6 -28 9 -11 8 -18

-1 -29 -18 -22 -10 -26 59 -32 58 -5 61 -7 61 -32 0 -20 -3 -22 -9 -12 -8 12

-11 9 -16 -12 -4 -15 -11 -27 -17 -27 -5 0 -6 -4 -3 -10 3 -5 -1 -10 -10 -10

-9 0 -13 5 -10 10 3 6 -1 10 -9 10 -9 0 -16 -4 -16 -10 0 -5 -9 -10 -20 -10

-10 0 -24 -8 -29 -17 -11 -19 -12 -17 -15 34 -3 50 -66 89 -66 41 0 -28 -10

-42 -30 -45 -15 -3 -33 29 -44 80 -4 17 -13 27 -24 27 -16 -1 -16 -1 1 -14 9

-7 17 -19 17 -26 0 -10 -3 -10 -14 -1 -11 9 -15 9 -19 -1 -4 -8 -6 -7 -6 5 -1

9 -5 17 -9 17 -16 0 -9 30 7 31 14 0 14 1 1 6 -16 6 -30 23 -30 35 0 4 7 5 15

2 8 -4 15 -2 15 4 0 5 -12 13 -26 16 -35 9 -25 32 12 27 16 -1 31 -6 34 -11 3

-4 12 -10 20 -13 10 -4 8 -6 -7 -6 -31 -1 -33 -41 -2 -41 11 0 18 -4 15 -8 -6

-11 92 2 128 17 38 15 27 25 -28 23 -43 -2 -45 -1 -43 25 1 18 -3 27 -11 25

-7 -1 -15 5 -18 13 -3 8 -11 12 -17 8 -6 -4 -7 -1 -2 7 4 7 2 16 -6 21 -11 7

-11 9 3 9 9 0 19 -6 21 -12 3 -7 6 -4 6 7 1 11 -6 31 -15 43 -8 12 -17 35 -19

50 -1 15 -8 26 -14 25 -6 -2 -11 2 -11 7 0 14 13 13 29 -2 11 -10 14 -10 18 0

3 6 15 12 28 12 13 0 27 5 31 11 3 6 14 9 23 6 9 -2 22 1 28 7 27 25 41 35 45

30 3 -2 29 9 59 26 40 22 67 30 107 30 46 0 52 -2 52 -21z m-867 -198 c-5 -74

-4 -81 20 -112 36 -48 77 -230 72 -324 -5 -110 -34 -208 -76 -260 -9 -11 -19

-31 -23 -45 -3 -14 -3 -19 0 -12 11 24 29 -29 25 -73 -3 -32 -5 -36 -12 -20

-7 19 -8 19 -8 -2 -1 -13 4 -23 9 -23 6 0 3 -16 -6 -37 -9 -21 -33 -78 -54

-128 -53 -129 -153 -339 -164 -347 -13 -9 -64 94 -116 235 -46 125 -101 249

-108 242 -3 -2 2 -19 11 -37 8 -18 18 -44 22 -58 8 -25 7 -25 -13 -7 -13 12

-22 15 -27 8 -3 -6 -2 -11 3 -11 6 0 8 -9 5 -20 -4 -16 -11 -19 -27 -14 -11 4

-24 12 -28 18 -6 8 -8 8 -8 0 0 -6 7 -17 15 -24 8 -7 12 -16 9 -22 -3 -5 -1

-14 5 -21 16 -20 22 -76 11 -97 -9 -17 -14 -18 -32 -9 -18 10 -20 9 -15 -5 6

-15 -1 -17 -63 -14 -53 2 -69 6 -67 17 1 8 -10 18 -26 22 -38 10 -56 36 -57

79 0 20 -7 45 -15 56 -8 12 -11 24 -8 28 3 3 -1 6 -9 6 -16 0 -33 28 -23 38 2

3 32 6 65 6 47 1 59 -2 55 -13 -3 -8 0 -11 9 -8 7 3 17 2 22 -3 5 -5 29 -12

53 -16 40 -6 43 -6 33 12 -10 18 -63 39 -127 50 -22 3 -26 2 -15 -6 13 -8 13

-10 -2 -10 -10 0 -18 4 -18 9 0 5 -25 13 -55 16 -66 9 -73 28 -17 52 20 9 42

17 47 18 6 1 18 5 28 9 10 5 23 4 30 -2 7 -6 18 -7 26 -2 8 4 20 6 28 3 9 -4

11 0 6 13 -5 13 -3 15 8 9 7 -5 20 -10 29 -10 38 -4 85 -19 98 -31 7 -8 18

-11 24 -8 6 4 6 9 2 13 -5 3 -16 15 -24 25 -14 18 -13 18 8 12 17 -6 21 -4 16

8 -4 11 0 16 14 16 11 0 25 7 32 15 7 8 9 15 4 15 -5 0 2 7 14 16 13 9 21 22

18 30 -5 13 10 29 29 29 6 0 14 10 20 23 5 12 13 22 17 22 4 0 28 20 52 45 25

25 48 45 50 45 11 0 126 125 159 173 39 57 52 111 27 112 -16 0 -19 74 -8 250

8 121 7 115 18 115 6 0 7 -30 3 -79z m1114 0 c1 -1 0 -7 -3 -15 -3 -8 -1 -17

5 -21 6 -3 11 1 11 11 0 13 3 14 15 4 12 -10 15 -10 15 1 0 12 2 12 9 0 5 -7

14 -11 19 -7 6 4 16 -3 23 -15 6 -12 27 -37 46 -56 25 -25 32 -40 27 -55 -5

-17 -3 -19 15 -13 12 4 21 2 21 -4 0 -6 -5 -11 -11 -11 -6 0 -25 -11 -41 -25

-24 -21 -37 -25 -62 -20 -36 8 -56 30 -56 62 0 20 4 22 25 17 28 -7 31 2 10

30 -13 17 -15 18 -15 3 0 -9 -5 -17 -11 -17 -6 0 -8 8 -5 18 7 23 -58 64 -101

64 -18 0 -33 4 -33 9 0 5 -6 9 -14 9 -18 0 -29 17 -21 31 5 8 108 8 132 0z

m230 -260 c35 -25 25 -46 -22 -44 -22 1 -30 -1 -17 -4 15 -3 22 -12 22 -29 0

-20 -5 -24 -30 -24 -16 0 -30 4 -30 9 0 5 -9 7 -21 4 -14 -4 -20 -1 -19 8 5

32 -1 47 -22 57 -13 6 -17 11 -10 11 6 1 12 7 12 15 0 29 96 27 137 -3z

m-2612 -93 c6 -5 5 -11 -4 -17 -9 -6 -10 -11 -2 -15 6 -4 11 -14 11 -22 0 -19

88 -144 101 -144 15 0 209 -199 209 -215 0 -8 5 -15 10 -15 6 0 10 -6 10 -14

0 -9 7 -12 18 -9 12 3 24 -4 35 -20 15 -23 14 -26 -39 -96 -30 -40 -54 -75

-54 -77 0 -14 -83 -125 -88 -119 -4 4 -7 25 -8 48 0 53 -12 114 -29 152 -8 17

-24 62 -36 100 -12 39 -28 77 -36 86 -7 8 -13 18 -13 21 0 3 -8 23 -17 44 -9

22 -17 41 -18 44 -1 3 -5 13 -8 23 -8 19 -13 37 -17 52 -1 6 -6 15 -11 21 -5

6 -18 53 -28 105 -11 52 -23 105 -26 119 -4 18 -1 15 12 -10 10 -19 22 -38 28

-42z"/>

<path d="M2191 3208 c-1 -17 -13 -23 -35 -19 -5 1 -6 -6 -2 -15 5 -13 2 -15

-18 -10 -14 3 -27 2 -31 -3 -3 -5 3 -12 12 -14 11 -3 8 -5 -9 -6 -16 -1 -28 4

-28 12 0 6 -5 4 -11 -5 -7 -13 -22 -18 -52 -17 -23 1 -34 3 -24 6 9 2 17 8 17

13 0 5 -7 7 -15 4 -8 -4 -21 -2 -28 3 -18 15 -57 22 -57 11 0 -5 -6 -8 -12 -5

-7 2 -26 -2 -41 -10 -15 -8 -33 -11 -40 -6 -7 4 -7 0 2 -10 8 -10 12 -19 10

-21 -11 -8 -101 -26 -110 -21 -5 4 -9 1 -9 -5 0 -6 -5 -8 -11 -5 -20 13 -103

-18 -138 -52 -19 -18 -39 -33 -43 -33 -4 0 -8 -7 -8 -15 0 -8 -9 -29 -19 -46

-14 -22 -17 -38 -11 -49 5 -9 8 -25 8 -36 -4 -47 10 -69 44 -72 18 -1 43 3 55

9 17 9 25 8 38 -5 9 -9 24 -16 33 -16 10 0 23 -9 30 -20 10 -17 10 -20 -4 -20

-24 0 -15 -64 10 -68 36 -7 105 9 141 34 42 28 55 30 55 7 0 -15 2 -14 15 3

14 18 14 18 15 1 0 -11 5 -17 13 -14 6 2 11 14 9 26 -1 18 2 21 16 17 13 -5

22 1 30 19 6 14 15 25 20 25 5 0 9 33 11 73 2 93 5 110 19 115 7 2 12 15 12

29 l0 25 31 -26 c35 -30 51 -33 42 -9 -4 11 -3 14 5 9 7 -4 12 -13 12 -21 0

-7 7 -16 16 -19 10 -4 13 -13 9 -25 -3 -11 -1 -22 5 -26 6 -3 8 -10 5 -15 -12

-19 7 -60 27 -60 12 0 17 -4 12 -12 -5 -7 -2 -9 9 -5 9 3 18 1 21 -6 3 -9 8

-8 16 3 11 13 11 13 7 0 -3 -9 1 -24 9 -34 11 -15 16 -17 28 -7 10 8 16 9 21

1 3 -6 10 -8 15 -5 5 3 0 15 -10 25 -22 22 -26 40 -9 40 5 0 7 -4 4 -10 -3 -5

-1 -10 6 -10 7 0 23 -9 35 -21 32 -30 129 -35 188 -9 24 10 48 15 52 12 4 -4

4 1 1 11 -4 9 -2 17 3 17 5 0 7 7 4 15 -4 9 0 15 9 15 8 0 17 7 21 15 3 8 2

15 -3 15 -16 0 -7 33 11 38 10 2 15 8 12 13 -3 5 0 9 5 9 6 0 11 -4 11 -10 0

-5 11 -10 25 -10 14 0 25 4 25 9 0 5 8 11 18 14 14 3 13 6 -8 14 -19 8 -21 12

-10 17 8 3 29 11 45 17 17 6 24 13 18 16 -7 3 -13 15 -13 28 0 26 -39 62 -79

72 -14 3 -29 10 -32 16 -4 5 -18 10 -32 10 -14 1 -24 4 -22 6 2 2 -5 12 -15

24 -17 18 -32 20 -117 21 -54 1 -120 -3 -147 -7 -42 -8 -48 -7 -43 7 4 10 1

16 -8 16 -8 0 -15 -5 -15 -12 0 -6 -8 -3 -20 7 -18 16 -20 16 -26 1 -9 -23

-22 -20 -27 7 -3 14 -5 16 -6 5z"/>

</g>

</svg>

