<?xml version="1.0" standalone="no"?>

<!DOCTYPE svg PUBLIC "-//W3C//DTD SVG 20010904//EN"

 "http://www.w3.org/TR/2001/REC-SVG-20010904/DTD/svg10.dtd">

<svg version="1.0" xmlns="http://www.w3.org/2000/svg"

 width="113.385827" height="74.065144" viewBox="0 0 113.385827 74.065144"

 preserveAspectRatio="xMidYMid meet">

<metadata>

Created by potrace 1.14, written by Peter Selinger 2001-2017

</metadata>

<g transform="translate(60.082978,20.809088) scale(0.0095,-0.0095)"
fill="#000000" stroke="none">

<path d="M250 4423 c0 -9 -8 -25 -17 -35 -9 -10 -18 -38 -19 -61 -1 -40 -4

-43 -40 -52 -22 -6 -50 -16 -63 -24 -15 -8 -38 -11 -67 -6 -42 6 -44 5 -44

-19 0 -19 4 -24 15 -20 30 12 42 -14 43 -86 0 -105 35 -149 75 -94 18 24 18

26 2 51 -9 14 -17 41 -18 61 -1 28 5 40 33 64 47 38 63 33 74 -24 7 -36 6 -57

-6 -87 -17 -43 -13 -56 25 -76 23 -12 28 -11 48 11 19 21 21 27 11 49 -15 32

-16 104 -2 139 9 26 42 35 65 18 44 -31 65 -131 33 -151 -22 -14 -23 -28 -2

-48 12 -12 20 -14 33 -6 13 8 16 28 16 102 l0 91 47 0 c58 0 84 -24 94 -87 5

-33 2 -48 -10 -62 -18 -20 -22 -51 -6 -51 17 0 50 63 50 96 0 57 -12 93 -36

109 -29 19 -107 27 -141 14 -18 -7 -28 -5 -39 6 -9 8 -23 15 -33 15 -9 0 -29

6 -44 13 -23 10 -26 17 -21 42 3 19 -2 47 -16 78 -21 47 -40 62 -40 30z"/>

<path d="M5527 4226 c-18 -14 -22 -35 -19 -89 2 -34 22 -26 22 8 0 30 35 52

55 35 10 -8 23 -9 42 -2 24 8 32 6 56 -16 25 -23 27 -24 27 -6 0 25 -8 35 -47

62 -36 25 -107 29 -136 8z"/>

<path d="M4455 3991 c-7 -12 0 -14 28 -12 19 2 23 -14 5 -25 -8 -5 -6 -11 6

-20 24 -17 10 -37 -21 -29 -18 4 -24 2 -21 -7 7 -20 60 -22 74 -4 10 14 13 15

24 1 34 -40 81 1 71 62 -5 30 -11 39 -29 41 -30 5 -52 -14 -52 -44 0 -36 -18

-29 -22 9 -2 26 -8 33 -30 35 -14 2 -29 -2 -33 -7z"/>

<path d="M3960 3971 c-5 -11 -10 -29 -10 -41 0 -44 18 -60 65 -60 l45 0 0 48

c0 26 -5 53 -12 60 -20 20 -76 15 -88 -7z"/>

<path d="M2617 3957 c-10 -6 -20 -28 -23 -49 -5 -31 -3 -38 19 -53 17 -11 34

-14 49 -9 30 9 38 22 38 66 0 51 -43 75 -83 45z"/>

<path d="M18 3922 c-22 -4 -23 -22 -3 -69 l15 -36 58 7 c31 3 134 9 227 12 94

3 172 8 174 10 2 2 12 21 21 42 l18 39 -247 0 c-135 -1 -254 -2 -263 -5z"/>

<path d="M5712 3898 c-11 -29 -10 -29 7 -14 15 13 22 14 44 3 31 -14 32 -41 2

-43 -11 -1 -24 -3 -30 -4 -20 -5 -50 2 -57 13 -5 8 -13 5 -27 -7 -19 -17 -21

-17 -51 1 -31 18 -32 18 -51 -5 -10 -13 -23 -21 -29 -17 -16 10 -12 21 14 31

l25 9 -23 28 -23 29 -42 -21 c-38 -20 -41 -25 -41 -62 l0 -40 194 2 c141 1

196 5 200 14 2 6 1 27 -3 46 -5 27 -13 35 -41 44 -19 5 -40 13 -46 17 -6 4

-15 -6 -22 -24z"/>

<path d="M1387 3913 c-11 -10 -8 -113 3 -113 6 0 10 7 10 15 0 8 9 15 19 15

11 0 26 9 34 20 l14 21 6 -21 c4 -15 13 -20 36 -20 25 0 32 5 37 27 13 49 -30

81 -65 49 -16 -15 -19 -15 -31 -1 -13 15 -51 20 -63 8z"/>

<path d="M2016 3720 c-5 -12 -23 -14 -88 -12 -59 3 -83 0 -89 -10 -7 -10 -11

-10 -17 -1 -4 7 -19 14 -32 15 -19 2 -26 -2 -28 -19 -3 -21 1 -23 45 -24 26

-1 53 0 58 1 6 2 32 2 59 1 31 -1 53 4 58 11 5 9 8 10 8 1 0 -8 17 -10 58 -6

72 7 93 23 30 23 -36 0 -47 4 -51 18 -3 14 -5 15 -11 2z"/>

<path d="M4715 3648 c28 -96 48 -114 59 -53 4 19 11 35 16 35 5 0 12 -16 16

-35 8 -45 31 -45 40 0 9 50 24 54 24 6 0 -23 5 -41 11 -41 6 0 9 20 7 52 -2

41 -7 54 -21 56 -9 2 -19 -2 -21 -10 -17 -54 -17 -55 -34 -20 -19 39 -32 37

-48 -9 l-12 -34 -11 28 c-6 16 -11 33 -11 38 0 5 -5 9 -11 9 -6 0 -8 -9 -4

-22z"/>

<path d="M3997 3653 c-10 -9 -9 -103 1 -104 4 0 17 -2 30 -3 12 -2 31 4 42 11

27 19 27 78 1 93 -22 11 -64 13 -74 3z"/>

<path d="M4174 3645 c-4 -11 -13 -35 -20 -54 -17 -40 -17 -41 -4 -41 6 0 10 7

10 15 0 19 30 19 66 0 32 -17 184 -21 184 -6 0 5 -11 11 -25 13 l-25 3 25 37

c14 20 25 39 25 42 0 4 -19 5 -42 5 -30 -2 -35 -3 -15 -6 15 -2 27 -7 27 -11

0 -4 -15 -24 -33 -45 -29 -35 -34 -38 -60 -28 -25 10 -27 14 -22 45 4 20 2 36

-4 40 -7 5 -11 -8 -11 -38 0 -52 -13 -60 -28 -18 -6 15 -17 36 -25 47 l-16 20

-7 -20z"/>

<path d="M3152 3588 c3 -51 4 -53 34 -56 38 -4 64 19 64 57 0 37 -17 51 -63

51 l-38 0 3 -52z"/>

<path d="M889 3616 c-2 -2 -57 -7 -121 -10 -65 -2 -125 -9 -135 -14 -10 -5

-35 -12 -55 -16 -32 -6 -41 -14 -58 -48 -11 -23 -20 -48 -20 -55 0 -7 -11 -13

-26 -13 -16 0 -24 -5 -21 -12 2 -7 10 -12 16 -10 19 4 12 -15 -8 -21 -15 -4

-21 -18 -28 -63 -12 -87 -7 -279 10 -356 12 -57 12 -70 1 -85 -12 -16 -13 -15

-14 11 0 21 -4 27 -16 22 -9 -3 -18 -6 -20 -6 -8 0 -4 -61 6 -78 6 -9 16 -48

23 -87 12 -66 14 -70 42 -75 27 -5 30 -9 40 -70 5 -36 20 -81 33 -101 17 -28

22 -51 22 -102 0 -43 -5 -69 -13 -74 -7 -4 -18 -20 -24 -35 -10 -23 -19 -28

-46 -28 -20 0 -56 -14 -91 -35 -32 -19 -64 -35 -71 -35 -6 0 -64 -27 -129 -60

-93 -47 -118 -57 -122 -45 -7 18 -34 20 -34 4 0 -7 7 -17 15 -23 10 -8 15 -36

16 -109 1 -82 -1 -100 -16 -110 -15 -12 -15 -14 -1 -26 19 -16 21 -38 4 -44

-10 -3 -10 -9 0 -26 16 -28 15 -41 -4 -41 -9 0 -14 -6 -11 -12 2 -7 16 -12 30

-10 20 2 25 -1 21 -13 -3 -8 -10 -15 -15 -15 -5 0 -9 -7 -9 -16 0 -8 -4 -13

-9 -9 -6 3 -15 -4 -21 -15 -8 -16 -8 -20 4 -20 8 0 18 -5 21 -10 4 -6 3 -10

-2 -9 -19 3 -53 -14 -53 -27 0 -11 7 -13 27 -7 24 5 67 46 131 123 15 17 32

20 132 25 243 10 913 23 1288 25 l42 0 0 200 c0 191 -1 200 -19 200 -11 0 -22

4 -25 9 -3 5 -18 12 -33 16 -16 3 -41 13 -58 20 -16 8 -70 30 -119 49 -49 20

-99 44 -110 55 -20 18 -116 34 -116 20 0 -10 28 -19 56 -19 41 0 31 -45 -24

-109 -27 -31 -55 -67 -62 -80 -19 -36 -109 -117 -164 -147 -95 -52 -188 -30

-288 67 -22 21 -48 41 -59 44 -10 4 -19 13 -19 20 0 8 -18 35 -40 60 -22 25

-40 55 -40 67 0 14 -5 18 -15 14 -10 -3 -15 1 -15 12 0 19 44 44 65 36 7 -3

23 0 35 6 20 11 21 12 4 24 -16 13 -16 14 5 25 25 14 24 15 40 -16 6 -13 18

-23 27 -23 8 0 19 -11 26 -25 6 -14 22 -26 37 -29 81 -15 113 -17 125 -6 8 6

31 12 51 13 20 2 39 8 43 13 4 6 17 14 29 18 12 4 44 29 72 56 29 28 55 50 60

50 5 0 12 26 16 57 4 31 17 78 30 103 25 49 41 140 25 140 -6 0 -10 -6 -10

-14 0 -21 -38 -83 -55 -90 -8 -3 -15 -14 -15 -25 0 -12 -10 -23 -26 -28 -21

-7 -30 -21 -43 -63 -12 -39 -22 -56 -36 -58 -11 -2 -24 -9 -30 -16 -5 -6 -21

-12 -35 -13 -14 -1 -37 -4 -51 -8 -19 -5 -33 0 -57 20 -18 15 -32 35 -32 45 0

20 -19 30 -56 30 -15 0 -27 7 -30 18 -3 9 -10 26 -15 37 -15 34 3 77 34 81 18

2 27 -2 27 -12 0 -8 5 -14 10 -14 6 0 10 5 10 11 0 5 5 7 10 4 6 -4 26 3 45

15 37 23 65 21 65 -5 0 -14 14 -20 35 -15 27 7 100 -3 120 -16 21 -14 23 -13

29 12 10 40 -21 78 -66 82 -20 2 -44 12 -53 23 -23 24 -41 24 -55 -1 -15 -27

-38 -25 -52 5 -17 37 -49 31 -98 -16 -30 -30 -40 -35 -35 -20 5 18 2 21 -19

21 -29 0 -46 -25 -46 -69 0 -37 -13 -40 -28 -7 -6 14 -18 23 -29 23 -12 -2

-21 8 -28 31 -5 17 -13 32 -17 32 -5 0 -4 9 2 19 5 11 6 22 1 25 -4 3 -11 24

-15 46 -7 45 -25 51 -55 19 l-19 -21 -7 32 c-5 22 -2 36 9 49 9 10 16 23 16

29 0 7 7 12 16 12 9 0 18 8 21 19 3 10 22 26 44 34 21 8 39 22 39 30 0 8 9 17

20 20 11 3 20 13 20 22 0 12 -6 16 -20 12 -11 -3 -20 -1 -20 4 0 5 5 9 11 9 5

0 8 4 5 9 -7 10 -25 9 -43 -2 -12 -8 -17 -2 -14 16 1 5 -8 11 -19 14 -23 6

-24 10 -7 46 7 15 20 27 31 27 16 0 17 2 5 17 -11 13 -12 17 -1 21 10 3 9 7

-4 17 -29 21 -10 45 34 45 30 0 43 6 54 22 23 34 102 32 197 -4 17 -6 28 -5

41 7 9 9 24 13 34 9 9 -3 22 -1 29 5 8 6 31 8 58 5 24 -4 67 -7 94 -8 28 -1

59 -7 71 -13 21 -12 44 -71 44 -113 0 -13 7 -31 15 -40 12 -14 13 -26 5 -71

-21 -109 -23 -129 -8 -129 19 0 46 88 58 188 8 71 7 97 -10 173 -11 49 -20 91

-20 93 0 3 -6 11 -13 18 -7 7 -23 27 -35 45 -13 18 -34 38 -47 45 -80 44 -125

72 -125 80 0 4 -6 8 -13 8 -7 0 -29 9 -50 20 -35 19 -59 25 -68 16z"/>

<path d="M4990 3410 c0 -5 7 -10 15 -10 8 0 15 -5 15 -11 0 -14 -52 -2 -61 13

-5 8 -17 7 -40 -2 -25 -11 -34 -11 -37 -2 -2 7 -10 12 -17 12 -18 0 -29 -32

-14 -41 18 -11 3 -39 -21 -39 -12 0 -18 -4 -15 -10 11 -18 34 -11 61 19 27 31

33 32 267 31 30 0 33 7 13 35 -14 19 -15 19 -33 2 -24 -21 -53 -22 -79 -2 -22

17 -54 20 -54 5z"/>

<path d="M5217 3034 c-13 -13 -7 -81 8 -94 21 -17 50 -8 53 18 4 29 20 29 24

0 2 -17 10 -23 28 -23 29 0 47 38 36 79 -9 37 -52 37 -68 -1 l-11 -28 -6 25

c-7 25 -48 40 -64 24z"/>

<path d="M640 3016 c0 -9 -7 -19 -15 -22 -8 -4 -12 -10 -9 -15 3 -6 -6 -19

-20 -30 -32 -25 -33 -36 -4 -45 15 -4 25 -1 35 12 12 16 13 16 13 1 0 -27 19

-20 59 20 20 21 47 43 61 49 25 10 25 11 4 22 -11 6 -44 14 -72 18 -45 6 -52

4 -52 -10z"/>

<path d="M995 3015 c-5 -2 -22 -6 -37 -9 -16 -4 -28 -12 -28 -20 0 -7 -9 -21

-20 -31 -11 -10 -20 -23 -20 -29 0 -6 6 -4 13 5 7 9 22 19 35 23 12 4 22 12

22 17 0 6 30 9 73 8 53 -1 78 -7 96 -20 13 -11 28 -19 32 -19 15 0 10 30 -7

47 -22 22 -123 40 -159 28z"/>

<path d="M3233 2990 c-21 -24 -33 -26 -33 -4 0 11 -8 14 -32 12 -32 -3 -33 -4

-33 -53 0 -49 1 -50 33 -53 26 -3 34 1 41 20 l8 23 7 -23 c10 -31 63 -31 75 0

l8 22 12 -22 c16 -31 59 -30 71 2 10 26 4 75 -10 90 -18 18 -59 -3 -69 -37 -8

-29 -9 -30 -10 -6 -2 48 -39 64 -68 29z"/>

<path d="M5406 2758 c-17 -39 -4 -53 57 -56 49 -3 57 0 57 14 0 17 1 17 13 1

8 -12 25 -16 57 -14 39 2 45 5 48 27 3 20 1 22 -10 12 -11 -9 -19 -8 -35 3

-18 12 -29 13 -98 1 -5 -1 -15 -5 -21 -9 -7 -4 -14 0 -18 8 -3 8 -10 15 -16

15 -6 0 -8 -4 -5 -10 3 -5 2 -10 -4 -10 -5 0 -11 8 -14 18 -4 16 -4 16 -11 0z"/>

<path d="M5057 2333 c-15 -14 -7 -53 11 -54 159 -7 171 -6 175 10 4 14 5 14 6

0 1 -12 11 -15 48 -12 43 3 62 15 63 36 0 4 -22 5 -50 3 -29 -2 -57 2 -66 9

-13 9 -28 8 -67 -2 -45 -11 -52 -11 -60 3 -7 12 -12 13 -23 3 -10 -8 -14 -8

-14 0 0 12 -13 15 -23 4z"/>

<path d="M1764 2105 c-10 -56 1 -85 35 -85 29 0 41 14 41 51 0 20 15 26 25 9

3 -5 18 -10 31 -10 16 0 24 -5 21 -12 -2 -7 -16 -12 -31 -11 -17 1 -26 -2 -23

-10 6 -19 37 -20 57 -2 21 19 21 82 -1 96 -25 16 -56 10 -66 -13 l-10 -23 -7

23 c-5 16 -15 22 -36 22 -25 0 -30 -5 -36 -35z"/>

<path d="M5141 1939 c-12 -33 -5 -83 10 -73 15 9 10 -23 -5 -35 -17 -15 -13

-57 16 -154 24 -83 41 -79 35 9 -6 69 0 73 37 26 12 -16 22 -20 29 -13 6 6 4

15 -7 26 -18 19 -21 36 -6 51 16 16 1 44 -24 44 -26 0 -37 8 -53 37 -21 36

-16 43 32 43 28 0 45 4 45 12 0 9 3 9 12 0 7 -7 20 -12 30 -12 13 0 18 8 18

30 0 36 -19 39 -60 10 -21 -15 -30 -17 -33 -8 -4 10 -8 10 -16 -1 -8 -12 -12

-10 -22 12 -16 35 -25 34 -38 -4z"/>

<path d="M5771 1949 c-45 -20 -88 -19 -102 2 -7 11 -9 9 -9 -8 0 -13 -8 -24

-20 -28 -11 -3 -20 -11 -20 -16 0 -12 2 -12 38 7 18 8 44 14 59 13 48 -4 63 1

63 18 0 11 3 14 10 7 6 -6 6 -23 -1 -49 -8 -29 -8 -40 0 -43 19 -6 12 -32 -11

-41 l-22 -8 22 -12 c12 -6 22 -18 22 -26 0 -18 -12 -19 -28 -3 -16 16 -26 -14

-18 -50 4 -15 7 -39 6 -54 -1 -39 16 -43 30 -7 7 16 22 36 33 44 20 14 27 62

10 74 -25 15 -35 153 -13 175 7 7 10 6 10 -3 0 -7 5 -9 10 -6 16 10 12 22 -9

28 -11 2 -37 -4 -60 -14z"/>

<path d="M3368 1819 c-26 -15 -25 -103 1 -125 10 -9 17 -24 14 -33 -2 -10 3

-23 11 -30 14 -12 16 -9 16 22 0 20 5 39 10 42 14 9 7 100 -10 120 -15 17 -19

18 -42 4z"/>

<path d="M3997 1823 c-4 -3 -7 -28 -7 -55 0 -26 -4 -48 -8 -48 -4 0 -16 23

-26 50 -10 28 -23 50 -30 50 -13 0 -62 -107 -53 -117 9 -8 27 7 27 23 0 21 37

17 53 -6 7 -11 25 -21 38 -22 20 -3 24 1 22 20 -2 12 2 22 7 22 6 0 10 -9 10

-21 0 -33 34 -20 38 15 2 18 0 26 -7 21 -11 -6 -18 5 -23 40 -4 28 -26 43 -41

28z"/>

<path d="M4291 1772 c-24 -67 -25 -72 -12 -72 5 0 13 9 16 20 9 27 51 27 60

-1 5 -15 14 -19 33 -17 24 3 27 7 24 36 -4 42 10 41 34 -3 29 -54 44 -45 44

24 0 33 -4 63 -10 66 -6 4 -10 -8 -10 -29 0 -20 -3 -36 -6 -36 -3 0 -17 14

-31 30 -13 17 -29 30 -34 30 -5 0 -9 -22 -9 -50 0 -27 -3 -50 -8 -50 -4 0 -16

23 -27 52 -11 28 -25 53 -31 55 -6 2 -21 -23 -33 -55z"/>

<path d="M4884 1819 c-2 -4 -1 -14 2 -22 3 -9 1 -23 -4 -32 -8 -15 -12 -12

-31 19 -33 53 -46 46 -49 -25 -3 -47 0 -60 10 -56 7 2 12 17 12 36 -2 40 9 39

36 -4 34 -55 52 -47 44 22 -7 51 -5 56 10 50 10 -4 21 -7 26 -7 4 0 11 -22 15

-50 4 -27 10 -50 14 -50 19 0 28 25 23 66 -4 36 -2 44 12 44 9 0 16 5 16 11 0

11 -129 9 -136 -2z"/>

<path d="M5040 1823 c0 -5 -5 -37 -10 -73 -8 -58 -7 -66 10 -82 21 -20 40 -24

40 -8 0 6 -7 10 -15 10 -8 0 -15 5 -15 10 0 6 7 10 15 10 17 0 39 -36 30 -50

-3 -5 8 -16 24 -24 16 -9 31 -21 34 -28 4 -10 6 -10 6 0 1 7 -10 28 -24 46

-27 36 -32 62 -12 69 6 3 0 6 -15 6 -16 1 -32 9 -37 20 -9 16 -6 20 22 27 l32

8 -32 3 c-25 3 -33 9 -33 24 0 14 7 19 30 19 17 0 30 5 30 10 0 11 -80 14 -80

3z"/>

<path d="M3190 1810 c-28 -7 -35 -27 -25 -76 7 -42 50 -59 72 -29 11 16 13 16

13 3 0 -21 22 -29 57 -18 27 8 27 9 6 15 l-23 7 20 25 c29 37 26 71 -6 79 -18

5 -31 1 -42 -11 -16 -16 -15 -17 16 -10 28 6 32 4 32 -14 0 -27 -39 -54 -57

-39 -7 6 -13 21 -13 33 0 30 -19 43 -50 35z"/>

<path d="M4073 1805 c-3 -10 -1 -26 5 -36 7 -10 12 -32 12 -48 0 -27 3 -30 31

-29 21 1 33 7 39 22 7 17 9 18 9 4 1 -25 26 -22 44 5 l16 22 0 -22 c1 -13 7

-23 14 -23 8 0 12 19 13 60 0 50 -3 60 -17 60 -10 0 -23 -15 -32 -37 l-15 -38

-17 38 c-18 44 -40 44 -41 1 -1 -52 -4 -64 -13 -64 -6 0 -11 21 -13 47 -3 47

-23 69 -35 38z"/>

<path d="M6005 1811 c-3 -5 -31 -23 -62 -40 -43 -24 -59 -28 -70 -19 -7 6 -17

8 -21 4 -12 -13 39 -43 65 -38 23 4 24 3 12 -16 -7 -11 -21 -23 -32 -26 -15

-4 -16 -2 -6 10 9 11 8 14 -4 14 -16 0 -77 -70 -77 -88 0 -5 -14 -12 -32 -16

-47 -9 -25 -20 36 -17 30 1 57 -2 60 -8 6 -9 127 -27 156 -22 8 1 27 15 41 31

14 17 33 30 42 30 22 0 22 -9 0 -26 -17 -12 -16 -13 5 -14 12 0 32 10 43 21

16 16 23 18 29 9 6 -9 13 -9 29 -1 29 16 26 26 -6 26 -16 0 -46 4 -69 8 -32 5

-46 3 -62 -11 -11 -9 -30 -25 -41 -34 -24 -21 -51 -24 -51 -6 0 9 -3 9 -12 0

-15 -15 -48 -16 -48 -2 0 18 48 34 63 22 10 -9 20 -9 40 1 15 6 27 15 27 20 0

18 -138 -6 -154 -28 -8 -11 -21 -13 -48 -9 -41 7 -50 23 -18 31 11 3 20 13 20

23 0 13 6 16 25 12 21 -4 33 4 61 37 20 22 44 41 54 41 22 0 36 16 18 22 -8 3

-7 13 5 36 12 26 13 32 2 32 -8 0 -16 -4 -20 -9z"/>

<path d="M174 1583 c-29 -3 -49 -12 -69 -33 -16 -17 -25 -33 -21 -37 11 -12

131 -6 174 8 20 7 55 20 76 30 32 15 36 20 22 25 -11 4 -29 -2 -48 -16 -31

-23 -49 -21 -29 3 9 12 5 16 -20 21 -17 3 -34 5 -38 4 -3 -1 -25 -3 -47 -5z"/>

<path d="M3056 858 c-32 -46 -8 -118 39 -118 43 0 61 73 29 118 -19 28 -49 28

-68 0z"/>

<path d="M4722 868 c-16 -16 -16 -100 0 -116 7 -7 21 -12 33 -12 32 0 45 19

45 65 0 60 -45 96 -78 63z"/>

<path d="M4994 866 c-3 -7 -4 -38 -2 -67 3 -48 6 -54 26 -57 59 -9 85 78 36

117 -31 24 -52 27 -60 7z"/>

<path d="M500 851 c-24 -46 -5 -111 33 -111 34 0 47 19 47 67 0 32 -5 45 -19

53 -29 15 -49 12 -61 -9z"/>

<path d="M371 517 c-14 -18 -17 -115 -4 -128 6 -6 23 -9 39 -7 36 4 52 50 38

106 -7 29 -14 38 -35 40 -14 2 -31 -3 -38 -11z"/>

<path d="M5992 518 c-15 -15 -16 -92 -2 -119 13 -23 62 -26 79 -5 7 9 11 38 9

73 l-3 58 -35 3 c-19 2 -41 -3 -48 -10z"/>

<path d="M890 495 c-12 -31 -13 -85 -2 -101 11 -17 50 -23 67 -10 12 9 15 25

13 71 -3 60 -3 60 -36 63 -27 3 -34 -1 -42 -23z"/>

<path d="M1827 514 c-4 -4 -7 -36 -7 -70 0 -60 1 -64 27 -70 45 -12 58 6 58

77 l0 64 -35 3 c-20 2 -39 0 -43 -4z"/>

<path d="M1960 494 c-14 -35 -12 -98 2 -112 19 -19 66 -15 78 7 14 27 13 104

-2 119 -7 7 -25 12 -40 12 -21 0 -31 -6 -38 -26z"/>

<path d="M2094 506 c-3 -7 -4 -40 -2 -72 l3 -59 34 -3 c20 -2 37 2 42 10 10

15 12 99 3 122 -8 20 -72 22 -80 2z"/>

<path d="M2241 511 c-9 -6 -11 -18 -7 -35 4 -15 1 -34 -6 -46 -18 -28 0 -54

40 -58 23 -2 34 2 42 18 6 11 7 26 3 33 -4 6 -8 30 -8 52 0 35 -3 40 -25 43

-14 1 -31 -2 -39 -7z"/>

<path d="M3190 501 c-11 -22 -14 -90 -4 -115 4 -10 18 -16 40 -16 27 0 36 5

44 24 9 23 5 100 -6 118 -10 16 -63 8 -74 -11z"/>

<path d="M3467 513 c-12 -20 -18 -76 -12 -104 8 -36 45 -55 76 -39 15 9 19 22

19 68 0 32 -5 63 -12 70 -13 13 -64 16 -71 5z"/>

<path d="M3612 512 c-8 -6 -11 -18 -7 -35 4 -14 2 -35 -5 -46 -18 -35 4 -63

48 -59 39 3 51 22 36 56 -4 9 -8 33 -8 52 -1 30 -5 35 -26 38 -14 1 -31 -2

-38 -6z"/>

<path d="M4022 508 c-15 -15 -16 -92 -2 -119 13 -24 75 -27 84 -3 10 25 7 93

-4 115 -12 22 -59 26 -78 7z"/>

<path d="M4157 513 c-9 -8 -9 -106 -1 -127 8 -22 80 -22 88 0 10 25 7 93 -4

115 -11 19 -68 28 -83 12z"/>

<path d="M4297 513 c-11 -10 -8 -102 3 -124 13 -24 75 -27 84 -3 10 25 7 93

-4 115 -11 19 -68 28 -83 12z"/>

<path d="M1560 491 c-5 -11 -10 -34 -10 -51 0 -44 17 -70 45 -70 14 0 29 8 35

19 14 27 13 94 -2 109 -18 18 -56 14 -68 -7z"/>

</g>

</svg>

