<?xml version="1.0" standalone="no"?>

<!DOCTYPE svg PUBLIC "-//W3C//DTD SVG 20010904//EN"

 "http://www.w3.org/TR/2001/REC-SVG-20010904/DTD/svg10.dtd">

<svg version="1.0" xmlns="http://www.w3.org/2000/svg"

 width="113.385827" height="113.572757" viewBox="0 0 113.385827 113.572757"

 preserveAspectRatio="xMidYMid meet">

<metadata>

Created by potrace 1.14, written by Peter Selinger 2001-2017

</metadata>

<g transform="translate(0.000000,113.572757) scale(0.018200,-0.018200)"

fill="#000000" stroke="none">

<path d="M0 3120 l0 -3120 1050 0 1049 0 -5 88 c-2 48 -6 107 -8 132 -2 25 0

81 5 125 5 44 11 163 14 265 8 277 14 324 41 313 10 -4 14 2 14 20 0 19 4 24

18 20 24 -6 42 69 48 202 3 55 8 107 11 115 3 8 7 27 8 43 1 27 28 56 53 57 7

0 23 -10 36 -22 32 -31 126 -163 126 -177 0 -6 4 -11 8 -11 5 0 14 -11 22 -24

7 -13 21 -27 32 -29 11 -3 17 -10 13 -16 -7 -12 22 -47 32 -37 3 3 12 1 20 -5

9 -9 13 -8 13 0 0 6 3 10 8 10 18 -3 26 2 15 9 -7 4 -10 17 -6 30 3 12 10 19

15 16 5 -3 8 2 7 12 -2 11 0 25 5 32 5 8 4 18 -3 25 -16 16 -14 24 10 30 16 4

19 11 14 26 -6 21 9 29 20 11 4 -6 11 -7 17 -4 6 4 17 -1 24 -11 9 -13 26 -17

59 -17 25 1 45 -2 45 -6 0 -4 8 -9 18 -10 20 -2 56 -10 60 -12 1 -2 6 -3 11

-4 5 0 12 -3 15 -6 3 -3 56 -5 118 -4 116 2 241 28 271 58 7 7 23 16 35 20 12

4 37 23 57 42 19 19 41 34 48 35 6 0 26 19 42 42 17 23 43 48 58 55 16 8 33

24 39 38 6 13 14 21 18 19 4 -3 19 4 33 15 30 24 37 25 37 5 0 -14 3 -13 25 1

20 13 28 14 40 4 8 -6 13 -17 12 -23 -1 -6 9 -16 23 -23 24 -13 60 -67 60 -90

0 -6 7 -17 15 -24 8 -7 13 -16 10 -20 -2 -4 7 -18 21 -31 14 -13 34 -43 44

-67 11 -24 35 -61 54 -84 29 -34 34 -46 29 -72 -3 -17 -11 -34 -17 -38 -8 -6

-7 -11 2 -17 11 -6 11 -20 2 -71 -6 -34 -9 -64 -7 -67 3 -2 13 17 23 44 36 98

44 114 54 108 5 -3 10 -13 10 -20 0 -8 11 -22 25 -31 23 -15 24 -17 10 -44 -8

-16 -15 -35 -15 -43 0 -8 -16 -27 -35 -43 -19 -15 -33 -29 -31 -31 2 -3 26 3

53 13 100 35 252 53 301 36 24 -8 29 -7 29 7 0 20 -19 34 -28 19 -4 -6 -14 2

-23 21 l-17 32 25 -7 c18 -4 33 0 52 15 15 12 32 21 38 21 18 0 42 34 54 76

11 37 11 36 6 -20 -4 -41 -2 -56 5 -51 6 3 14 -2 17 -12 3 -10 10 -26 15 -35

19 -37 12 -51 -26 -44 -19 4 -35 5 -35 3 0 -7 94 -51 103 -49 5 2 7 -3 4 -10

-7 -20 12 -48 31 -48 28 0 42 -21 42 -63 0 -38 36 -99 79 -134 8 -7 10 -13 5

-13 -5 0 -26 14 -47 31 l-38 31 5 -73 c3 -41 8 -157 11 -259 3 -102 8 -215 11

-252 l7 -68 753 0 754 0 0 939 c0 886 -1 940 -17 944 -17 4 -17 5 0 6 16 1 17

112 17 2176 l0 2175 -1772 -3 c-1000 -1 -1783 -6 -1797 -11 -18 -7 -22 -6 -17

2 10 16 -76 16 -129 0 -22 -6 -43 -11 -47 -10 -4 1 -20 -3 -35 -9 -15 -6 -24

-7 -20 -2 5 4 23 13 40 20 l32 11 -27 1 c-28 1 -129 -57 -158 -90 -27 -30

-106 -95 -90 -74 10 14 6 13 -14 -5 -36 -32 -63 -70 -81 -114 -11 -26 -12 -34

-3 -31 9 3 13 -5 14 -24 1 -26 -1 -28 -13 -15 -25 25 -33 11 -10 -20 11 -16

18 -12 71 39 32 30 61 53 64 50 3 -2 24 12 47 33 24 20 59 48 79 62 20 14 53

37 73 53 20 15 44 27 55 27 11 0 17 4 14 9 -4 5 3 7 13 4 19 -5 19 -5 0 -40

-11 -19 -15 -32 -9 -28 22 14 8 -13 -21 -41 -44 -41 -110 -129 -146 -194 -86

-157 -99 -312 -40 -473 5 -15 7 -30 4 -34 -4 -3 -9 3 -13 13 -3 10 -11 30 -19

44 -19 37 -29 132 -26 249 2 73 0 101 -8 97 -6 -4 -11 -19 -11 -34 0 -22 -2

-24 -11 -12 -8 11 -9 1 -6 -37 4 -49 -5 -70 -16 -40 -3 6 -6 -13 -6 -43 -1

-39 -4 -51 -11 -40 -5 8 -10 30 -10 48 0 17 -5 32 -11 32 -8 0 -9 -13 -5 -41

4 -26 3 -38 -4 -34 -5 3 -10 1 -10 -5 0 -7 7 -10 15 -6 9 3 15 0 15 -10 0 -8

4 -13 9 -10 5 3 15 -18 21 -47 7 -28 25 -78 41 -109 30 -63 24 -78 -10 -25

-11 17 -21 27 -21 20 0 -6 5 -15 10 -18 6 -3 10 -17 10 -31 0 -13 4 -24 10

-24 5 0 7 -6 4 -13 -3 -8 6 -25 20 -38 27 -26 36 -50 11 -29 -30 25 -24 4 7

-25 29 -28 31 -28 26 -7 -7 27 0 27 30 3 26 -23 30 -46 5 -37 -15 6 -15 4 2

-14 19 -21 55 -28 55 -10 0 6 23 -2 51 -17 46 -24 64 -27 165 -29 66 -2 114 1

114 7 0 5 4 9 10 9 5 0 7 -7 4 -15 -4 -9 0 -15 7 -16 8 0 36 -4 64 -8 51 -9

79 -5 70 9 -6 9 72 30 115 30 21 0 29 4 24 11 -5 8 1 10 20 7 14 -3 26 -1 26

3 0 21 27 6 49 -26 13 -19 27 -32 32 -29 5 3 6 10 3 16 -4 6 1 8 15 3 14 -4

23 -1 27 9 3 9 11 16 17 16 18 0 99 -42 119 -62 10 -10 28 -19 41 -19 78 -5

101 -10 111 -25 7 -10 31 -19 56 -21 39 -4 100 -35 108 -55 2 -4 10 -8 17 -8

7 0 16 -11 19 -25 4 -15 19 -30 39 -39 17 -7 43 -25 56 -40 26 -27 53 -37 31

-11 -7 8 -8 15 -2 15 21 0 94 -104 123 -178 13 -33 -7 -18 -27 19 -19 38 -52

71 -59 60 -2 -5 2 -14 10 -21 8 -7 15 -18 15 -26 0 -7 8 -29 17 -49 18 -37 13

-55 -10 -37 -8 7 -17 9 -20 5 -4 -3 9 -21 28 -40 20 -19 33 -38 30 -44 -3 -5

1 -6 9 -3 19 7 22 -12 3 -19 -9 -4 -8 -8 3 -17 12 -9 9 -10 -13 -5 -22 4 -27

3 -21 -7 15 -25 59 -83 66 -86 4 -2 5 -9 2 -16 -3 -8 1 -20 9 -28 10 -9 14

-33 13 -71 -2 -31 1 -54 6 -51 8 5 9 3 13 -51 7 -77 14 -128 19 -132 8 -8 -21

-33 -38 -33 -8 0 -18 -5 -21 -10 -4 -6 -11 -8 -16 -4 -15 9 -59 -4 -59 -18 0

-6 -8 -17 -18 -25 -15 -13 -15 -13 5 -3 12 5 25 15 28 20 3 6 11 10 16 10 6 0

7 -4 4 -10 -3 -5 1 -10 10 -10 9 0 13 -4 10 -10 -3 -5 1 -10 10 -10 9 0 13 -5

10 -10 -9 -15 15 -42 32 -36 7 3 13 1 13 -5 0 -5 -7 -12 -15 -15 -8 -4 -15

-14 -15 -24 0 -28 -25 -42 -82 -46 -205 -15 -372 -24 -375 -20 -6 5 112 84

147 99 21 9 22 11 7 14 -16 4 -15 7 7 28 26 24 34 45 16 45 -5 0 -13 -6 -17

-13 -4 -8 -23 -24 -41 -38 -33 -24 -34 -24 -48 -5 -8 11 -14 16 -14 10 0 -10

-28 -23 -120 -54 -36 -12 -85 -38 -110 -58 -25 -20 -61 -45 -80 -55 -34 -17

-67 -54 -57 -64 3 -2 14 0 25 6 25 14 62 14 62 2 0 -6 -15 -22 -34 -36 -30

-23 -56 -68 -56 -96 0 -16 27 -9 46 12 10 12 36 30 57 41 36 18 38 18 28 1 -5

-10 -23 -31 -40 -47 -32 -30 -39 -46 -21 -46 6 0 10 7 10 15 0 9 12 21 28 28

15 6 29 14 32 17 19 20 81 60 93 60 9 0 18 6 21 13 4 8 8 9 11 1 3 -6 12 -20

20 -30 14 -18 14 -18 15 4 0 28 35 30 50 2 16 -31 69 -27 96 7 19 24 24 26 38

14 23 -19 21 -26 -21 -66 -21 -21 -30 -35 -21 -35 21 0 66 50 79 88 9 27 15

32 33 26 29 -9 46 -24 46 -40 0 -8 6 -14 13 -14 6 0 -1 -12 -16 -25 -23 -21

-25 -25 -10 -25 21 0 54 -34 50 -51 -4 -21 21 -20 28 1 5 14 14 20 28 18 16

-2 26 5 37 29 11 24 22 33 41 33 14 0 39 11 55 25 16 14 31 25 34 25 9 0 35

-20 27 -20 -5 0 -1 -7 7 -16 9 -8 16 -26 16 -39 0 -13 5 -36 10 -51 13 -34 14

-201 1 -269 -27 -146 -40 -194 -70 -253 -15 -31 -34 -75 -41 -97 -7 -22 -20

-53 -28 -70 -9 -16 -15 -36 -14 -42 2 -7 -2 -13 -8 -13 -5 0 -10 -6 -10 -14 0

-8 -7 -27 -15 -43 -8 -15 -20 -43 -27 -60 -7 -18 -16 -33 -20 -33 -3 0 -14

-24 -23 -52 -21 -64 -161 -356 -184 -381 -19 -22 -60 -93 -92 -157 -57 -116

-301 -396 -379 -435 -57 -28 -169 -55 -260 -61 -73 -5 -97 -2 -175 21 -103 30

-128 45 -257 152 -83 70 -218 198 -218 207 0 2 -17 21 -37 43 -21 22 -56 60

-78 86 -22 26 -43 47 -47 47 -4 0 -22 14 -40 30 -18 17 -36 30 -40 30 -16 0

-121 116 -170 188 -29 42 -58 82 -64 87 -6 6 -17 25 -24 43 -7 17 -16 32 -21

32 -5 0 -9 5 -9 12 0 6 -8 30 -19 52 -26 58 -61 160 -61 180 0 9 6 16 13 16 6

0 4 5 -5 11 -22 12 -25 51 -3 43 8 -3 17 -16 21 -27 7 -23 83 -135 118 -175

57 -64 76 -75 76 -46 0 26 -42 138 -55 149 -14 11 -45 96 -49 132 -2 11 -13

33 -25 48 -11 15 -21 32 -21 37 0 6 -12 29 -28 52 -15 22 -40 70 -56 106 -16

36 -40 90 -55 120 -14 30 -26 57 -26 60 -3 11 -17 47 -30 76 -8 18 -17 48 -20

68 -4 20 -11 36 -16 36 -5 0 -6 6 -3 13 3 8 -1 27 -7 43 -7 16 -11 37 -10 47

1 9 -2 17 -8 17 -16 0 3 194 21 218 7 8 6 12 -3 12 -8 0 -4 9 11 24 28 26 37

24 50 -8 l9 -21 0 22 c1 17 6 22 23 20 12 -1 23 3 23 10 0 25 15 25 15 -1 0

-39 27 -86 50 -86 12 0 17 5 14 13 -3 8 1 19 9 26 11 9 17 8 27 -4 7 -8 16

-12 22 -9 5 3 -1 14 -13 25 -18 15 -20 21 -9 34 11 13 9 15 -12 15 -17 0 -27

8 -35 30 -8 21 -8 32 0 37 6 4 1 10 -14 15 -15 6 -19 12 -12 16 13 8 5 62 -9

62 -6 0 -8 7 -5 15 4 8 0 27 -8 42 -8 15 -15 35 -15 44 0 8 -5 20 -12 27 -8 8

-8 15 2 27 9 11 10 18 1 29 -9 11 -9 15 1 19 10 4 10 8 -2 16 -12 9 -11 14 8

40 12 17 22 35 22 41 0 6 18 39 40 72 22 34 40 67 40 72 0 6 -9 -4 -21 -23

-11 -18 -23 -31 -26 -27 -3 3 2 15 11 25 10 11 15 25 11 31 -4 6 2 19 12 28

10 9 24 39 31 67 7 27 16 52 20 55 13 10 32 50 32 68 0 11 7 33 16 51 8 17 14

35 12 41 -4 11 -93 -107 -102 -137 -10 -33 -23 -28 -20 7 1 20 -3 30 -12 30

-8 0 -14 2 -14 4 0 2 25 41 55 86 46 68 51 80 32 74 -21 -6 -21 -6 -4 13 9 11

17 24 17 29 0 10 70 74 82 74 4 0 5 6 2 13 -6 17 14 34 45 39 14 2 25 11 27

21 4 29 -55 13 -114 -30 -41 -31 -51 -24 -22 16 15 22 30 31 49 31 15 0 36 7

47 15 16 13 17 16 4 25 -8 5 -11 10 -6 10 5 0 1 9 -10 21 -10 11 -14 20 -9 19

17 -3 55 12 55 21 0 16 27 9 64 -16 20 -13 43 -22 51 -19 20 8 19 13 -7 41

l-21 23 30 0 c17 0 44 -7 59 -15 65 -34 74 -3 14 45 -22 18 -50 51 -61 74 -26

50 -51 146 -38 146 5 0 9 -8 9 -18 0 -44 34 -109 76 -146 47 -42 70 -45 31 -5

-46 48 -89 109 -84 121 2 7 0 24 -6 38 -12 31 -26 96 -37 175 l-8 60 2 -72 c1

-40 -1 -73 -5 -73 -3 0 -4 -12 -1 -26 3 -19 1 -25 -7 -20 -6 4 -11 14 -11 22

0 8 -6 14 -14 14 -9 0 -12 -7 -9 -20 4 -16 2 -19 -11 -14 -10 4 -16 1 -16 -7

0 -10 -3 -10 -11 -2 -13 13 3 146 21 188 4 11 16 51 25 89 9 38 22 81 30 97 8

15 12 34 9 42 -3 8 -1 18 5 22 6 3 11 17 11 31 0 13 4 24 10 24 5 0 7 6 4 14

-12 32 120 206 157 206 9 0 64 41 123 92 6 4 -517 8 -1162 8 l-1172 0 0 -3120z

m3030 2995 c0 -2 -24 -18 -52 -35 l-53 -30 50 0 50 0 -58 -24 c-65 -27 -80

-37 -119 -79 -33 -35 -148 -117 -165 -117 -7 0 -13 -4 -13 -10 0 -5 -25 -36

-56 -67 -31 -32 -54 -53 -52 -48 3 6 22 44 42 86 43 91 102 150 199 199 37 19

70 42 72 51 3 10 13 20 21 23 8 3 13 10 9 15 -6 11 33 36 42 27 3 -3 -5 -10

-18 -15 -15 -6 -18 -10 -8 -10 9 -1 22 5 29 13 6 8 26 17 43 19 18 2 33 5 35

5 1 1 2 0 2 -3z m-185 -63 c-6 -4 -36 -25 -67 -46 -73 -49 -187 -168 -244

-257 -76 -117 -67 -76 12 58 39 65 65 95 129 146 44 35 90 67 102 71 11 4 27

13 33 21 7 8 20 15 28 15 9 0 12 -3 7 -8z m201 -117 c-10 -8 -24 -16 -30 -18

-8 -3 -7 -9 2 -20 12 -14 9 -18 -17 -32 -36 -18 -41 -29 -8 -20 21 6 21 6 -3

-14 -17 -14 -33 -19 -50 -16 -19 4 -21 3 -10 -5 8 -5 12 -10 9 -10 -4 0 -23

-7 -44 -16 -20 -8 -34 -10 -30 -5 10 17 -11 13 -50 -9 -19 -11 -35 -16 -35

-11 0 10 154 129 178 139 10 3 11 7 2 12 -7 5 5 13 31 22 59 21 80 22 55 3z

m1206 -75 c29 -6 72 -21 95 -33 35 -17 42 -25 37 -42 -6 -18 -5 -18 10 -6 15

13 20 11 43 -11 21 -22 23 -29 13 -47 -11 -22 -12 -22 -51 14 -43 38 -114 73

-203 99 -99 29 -58 48 56 26z m-708 -316 c55 -8 103 -14 108 -14 4 0 8 -5 8

-11 0 -6 -7 -9 -15 -5 -8 3 -15 1 -15 -5 0 -6 -40 -7 -117 -3 -87 5 -114 4

-109 -4 4 -7 2 -12 -3 -12 -6 0 -11 5 -11 11 0 6 -37 10 -102 9 -57 -1 -112

-1 -123 0 -47 3 26 19 95 21 39 1 73 6 76 11 3 4 -4 8 -16 8 -12 0 -18 4 -15

11 8 11 74 7 239 -17z m-17 -70 c0 -10 -13 -14 -43 -14 -24 0 -46 -5 -50 -11

-5 -9 10 -10 52 -7 57 5 163 -4 221 -18 25 -7 27 -6 14 9 -14 18 -2 24 15 7 5

-5 37 -11 71 -12 l61 -3 -21 -22 c-22 -25 -47 -29 -77 -13 -10 5 -28 6 -40 2

-19 -7 -17 -10 24 -31 50 -25 106 -36 106 -21 0 6 7 10 15 10 16 0 21 -15 8

-23 -5 -2 -2 -2 5 -1 17 5 62 -17 62 -29 0 -10 -93 -5 -121 7 -22 9 -32 -29

-13 -45 8 -6 13 -19 12 -28 -2 -10 5 -17 18 -19 21 -3 38 -17 110 -97 22 -25

33 -32 29 -20 -4 13 -3 16 3 10 5 -5 13 -20 17 -33 8 -27 -7 -26 -40 3 -44 38

-54 45 -70 45 -8 0 -15 4 -15 9 0 4 -18 29 -41 55 -23 25 -35 46 -27 46 14 1

-259 97 -386 136 -43 13 -92 24 -108 24 -33 0 -29 19 5 21 15 1 12 4 -13 11

-78 22 -75 28 13 25 48 -2 82 0 76 3 -14 9 25 20 75 20 37 0 38 1 21 14 -19

13 -18 14 6 9 14 -2 26 -11 26 -19z m-1590 -177 c0 -34 5 -73 12 -85 7 -13 10

-26 8 -28 -3 -3 -28 -7 -56 -10 -48 -4 -51 -3 -66 26 -9 17 -13 40 -10 50 4

13 2 20 -7 21 -7 0 0 5 15 11 18 6 26 15 23 24 -3 7 -1 16 4 19 4 3 10 -1 12

-7 3 -7 13 4 23 25 25 53 42 34 42 -46z m2333 -1079 c6 -98 15 -201 20 -229 6

-28 10 -75 10 -103 0 -64 21 -160 60 -284 32 -99 50 -206 32 -187 -10 10 -60

166 -86 267 -8 31 -24 139 -35 240 -35 312 -42 372 -49 413 -6 38 -7 36 -13

-30 -27 -263 4 -621 64 -730 6 -11 11 -24 12 -30 1 -15 43 -93 55 -100 5 -3

10 -11 10 -17 0 -6 -9 -3 -20 7 -25 23 -28 1 -4 -34 11 -15 13 -26 7 -32 -11

-11 -41 52 -64 131 -7 25 -16 47 -20 50 -7 5 -20 58 -68 272 -10 42 -15 83

-11 90 3 7 3 128 0 268 -7 271 1 404 27 485 l17 50 22 -160 c13 -88 28 -240

34 -337z m130 7 c7 -33 18 -89 25 -125 7 -36 22 -98 34 -138 12 -40 23 -92 24

-116 1 -24 5 -42 8 -40 11 6 69 -520 70 -638 0 -10 4 -18 10 -18 5 0 9 -7 9

-15 0 -8 5 -15 10 -15 6 0 10 16 10 35 0 19 5 35 10 35 6 0 8 -16 4 -40 -6

-35 -4 -39 10 -34 17 7 19 0 7 -30 -7 -18 -12 -15 -49 23 -23 24 -42 52 -42

62 0 30 -23 109 -32 109 -4 0 -9 -12 -9 -27 -1 -16 -2 -32 -4 -38 -1 -5 -3

-23 -3 -39 -4 -66 -14 -11 -17 91 -1 59 -6 126 -10 147 -5 24 -4 37 2 33 26

-16 9 309 -23 452 -8 36 -17 87 -19 113 -3 27 -10 58 -16 70 -6 11 -12 30 -14

42 -2 11 -15 76 -29 144 -14 68 -26 128 -25 135 0 20 45 -114 59 -178z m-3190

-189 c0 -2 -13 -20 -30 -41 -23 -29 -27 -41 -20 -56 8 -13 4 -32 -13 -71 -63

-142 -105 -360 -92 -477 4 -36 10 -102 15 -146 8 -85 35 -192 87 -345 3 -8 7

-28 8 -45 2 -16 6 -56 9 -87 6 -59 18 -120 31 -150 4 -11 3 -18 -4 -18 -6 0

-11 5 -11 10 0 6 -9 10 -20 10 -19 0 -19 -1 -3 -42 9 -24 25 -55 35 -70 10

-14 18 -32 18 -40 0 -8 5 -19 12 -26 7 -7 8 -12 2 -12 -6 0 -21 18 -33 41 -13

22 -25 38 -28 35 -8 -8 22 -67 46 -93 22 -23 30 -70 10 -57 -19 11 -70 134

-64 153 5 18 -44 103 -56 95 -4 -2 -3 -21 3 -41 5 -21 12 -49 14 -63 8 -38

-100 157 -126 228 -13 34 -25 60 -28 57 -3 -2 -11 3 -19 13 -13 15 -14 15 -8

-8 17 -64 18 -75 5 -64 -7 7 -13 48 -15 100 -2 49 -1 80 4 70 13 -32 20 -3 11

44 -32 172 -36 271 -10 230 6 -8 10 -29 10 -46 0 -56 58 -212 83 -222 4 -2 5

-8 2 -13 -4 -5 -1 -17 4 -26 9 -15 10 -12 11 15 0 18 -5 42 -10 53 -6 11 -9

50 -8 87 3 58 5 63 12 35 5 -18 13 -33 18 -33 6 0 8 10 4 23 -3 12 -6 30 -6

40 0 10 -4 15 -10 12 -6 -4 -10 17 -10 52 0 32 -4 74 -8 93 -7 25 -9 -6 -10

-108 0 -79 -3 -147 -6 -150 -3 -3 -6 10 -6 29 0 19 -4 39 -9 44 -5 6 -12 35

-15 65 -3 30 -9 69 -13 85 -7 27 -8 71 -1 212 1 23 5 40 10 37 4 -3 8 -12 8

-20 0 -8 4 -14 9 -14 12 0 32 89 37 165 4 70 29 176 52 222 29 58 6 44 -40

-24 -58 -85 -98 -162 -98 -188 0 -11 -11 -57 -24 -103 -13 -45 -20 -85 -15

-87 13 -9 6 -43 -8 -38 -16 6 -17 -13 -2 -23 8 -5 7 -9 -4 -15 -8 -5 -19 -28

-23 -52 l-8 -42 -7 65 c-4 44 -2 76 6 100 8 19 16 53 20 75 4 22 15 55 26 73

10 18 14 30 8 26 -14 -8 -3 66 17 115 18 43 18 46 -3 30 -14 -11 -13 -8 2 11

11 14 22 27 25 30 15 15 80 99 80 104 0 3 16 22 35 43 35 38 40 57 8 32 -10

-7 -7 -1 6 13 13 15 28 25 35 22 6 -2 27 11 46 31 32 33 40 39 40 31z m3519

-330 c6 -33 11 -95 11 -137 0 -43 5 -81 10 -84 6 -4 10 5 10 19 0 14 4 26 9

26 14 0 20 -29 16 -73 -2 -25 0 -35 7 -31 7 5 9 -1 5 -15 -6 -23 20 -581 27

-589 3 -2 16 9 30 24 14 16 26 24 26 18 0 -10 -66 -84 -75 -84 -3 0 -5 23 -5

51 0 31 -4 48 -10 44 -5 -3 -10 -15 -10 -26 0 -26 -15 -24 -27 4 -6 14 -7 54

-1 111 6 65 6 91 -3 96 -7 5 -8 17 -4 31 5 17 4 21 -4 14 -15 -15 -27 -80 -13

-71 8 5 10 -3 6 -26 -10 -64 -14 -78 -22 -78 -10 0 -68 93 -64 105 2 5 8 30

13 55 39 176 41 198 42 448 0 139 4 247 8 240 4 -7 12 -40 18 -72z m-3352 -98

c10 -13 63 -107 88 -158 7 -14 24 -47 38 -75 14 -27 28 -67 32 -87 7 -34 5

-38 -14 -38 -12 0 -49 19 -82 42 -56 40 -79 75 -79 126 0 6 -9 12 -19 12 -32

0 -61 47 -61 99 0 55 6 65 45 79 40 14 41 14 52 0z m-888 -324 c-9 -11 -9 -17

0 -28 8 -9 8 -15 2 -18 -15 -4 -27 -128 -14 -136 8 -5 7 -32 -3 -87 -11 -61

-11 -87 -3 -108 9 -21 15 -25 25 -16 7 6 16 21 20 32 3 12 12 28 18 36 6 8 12

24 12 35 6 102 8 125 13 120 3 -3 4 -34 2 -70 -1 -37 1 -64 7 -64 14 0 22 38

9 43 -8 2 -6 12 5 29 10 14 23 56 29 92 7 36 16 66 21 66 14 0 9 -52 -13 -113

-12 -32 -19 -72 -17 -88 3 -16 1 -29 -4 -29 -4 0 -8 -7 -8 -15 0 -9 -6 -12

-17 -8 -14 5 -15 1 -11 -28 4 -22 1 -42 -8 -54 -13 -18 -14 -16 -8 15 6 33 5

34 -9 14 -9 -11 -25 -47 -36 -80 -20 -58 -20 -59 -1 -91 11 -18 16 -33 11 -33

-4 0 -13 12 -19 26 -7 15 -17 22 -24 18 -8 -5 -9 -2 -5 10 4 9 0 32 -7 51 -8

18 -12 36 -9 39 4 3 -1 23 -10 43 -8 21 -18 54 -21 73 -2 19 -2 29 1 23 13

-33 21 -4 27 100 8 148 24 227 42 220 11 -4 12 -9 3 -19z m252 -313 c1 -14 0

-34 -1 -45 -1 -11 3 -15 9 -12 6 4 11 14 11 23 0 9 3 13 6 10 7 -6 -40 -120

-58 -141 -4 -6 -17 -22 -28 -35 -13 -16 -18 -32 -14 -50 4 -20 3 -23 -5 -11

-6 8 -11 11 -11 5 0 -5 -4 -16 -9 -24 -8 -12 -13 -12 -24 -3 -12 10 -17 7 -27

-20 -29 -77 -35 -87 -53 -92 -10 -2 -17 -10 -16 -18 3 -23 -1 -38 -9 -38 -14

0 -7 38 11 58 9 10 17 24 17 30 0 7 5 12 10 12 6 0 10 9 10 20 0 11 4 20 9 20

5 0 17 20 27 45 9 25 21 45 25 45 13 0 11 -24 -3 -38 -9 -9 -8 -12 5 -12 18 0

33 41 22 59 -3 6 -3 11 2 11 11 0 6 109 -5 124 -5 6 -14 27 -20 46 -12 35 -12

35 7 13 10 -12 21 -20 24 -17 3 3 10 -14 15 -38 l9 -43 8 43 c4 24 14 46 22

49 10 4 12 14 8 34 -5 24 -4 28 9 23 9 -3 17 -18 17 -33z m3912 -81 c-8 -37

-7 -50 1 -47 6 2 13 12 14 23 2 10 9 24 14 29 16 16 1 -110 -18 -147 -9 -17

-17 -42 -18 -57 -1 -14 -16 -55 -34 -91 -18 -36 -32 -70 -32 -76 0 -6 -8 -22

-19 -35 -10 -13 -24 -42 -31 -64 -7 -22 -21 -56 -31 -75 -20 -40 -64 -169 -74

-217 -7 -34 -25 -55 -25 -29 0 9 9 44 19 78 11 35 34 110 51 168 17 58 39 134

50 170 11 36 31 106 46 155 14 50 28 97 31 105 3 8 6 26 8 40 1 14 8 41 15 60

21 57 23 65 21 75 -1 6 3 5 10 -2 9 -9 9 -25 2 -63z m-129 -8 c4 9 4 22 0 29

-4 8 -3 9 4 5 7 -4 12 -15 12 -24 0 -9 9 -28 20 -42 11 -14 20 -36 20 -50 0

-27 -45 -182 -78 -267 -11 -29 -23 -72 -27 -95 -4 -24 -15 -50 -26 -58 -10 -8

-20 -31 -22 -50 -2 -19 -11 -48 -19 -65 -8 -16 -20 -57 -27 -90 -7 -33 -17

-67 -22 -75 -14 -25 -11 19 6 74 17 57 20 90 6 67 -5 -7 -13 -11 -19 -7 -6 3

-13 0 -15 -6 -3 -7 -5 7 -5 32 1 28 3 34 5 18 9 -57 26 -28 37 62 5 39 42 154

59 185 12 20 35 108 41 155 2 14 11 49 20 79 9 30 16 63 16 73 0 27 -19 22

-26 -7 -3 -14 -10 -25 -15 -25 -13 0 -12 6 14 82 l22 67 6 -42 c4 -31 7 -37

13 -25z m233 -78 c3 -8 0 -34 -7 -57 -27 -91 -120 -286 -137 -287 -6 0 -15 -9

-18 -21 -4 -11 -9 -18 -13 -15 -6 6 18 65 76 183 19 39 32 75 29 80 -3 5 5 31

18 58 14 27 25 54 25 62 0 18 19 16 27 -3z m-3965 -34 c-6 -39 7 -105 18 -94

5 5 10 22 12 38 5 43 24 43 32 0 9 -46 -3 -166 -16 -158 -5 3 -6 33 -4 67 5

56 5 58 -5 22 -12 -50 -27 -67 -21 -24 3 22 1 30 -7 25 -6 -4 -11 -19 -11 -33

0 -48 -9 -18 -14 46 -3 37 -13 76 -25 97 -22 38 -13 47 12 12 l16 -23 0 28 c1

15 5 27 9 27 5 0 7 -13 4 -30z m3393 -175 c-8 -22 -14 -46 -15 -54 0 -8 -9

-33 -19 -55 -39 -82 -101 -234 -101 -247 0 -8 -5 -21 -11 -29 -7 -11 -8 -6 -4

19 5 23 4 31 -4 27 -6 -4 -11 0 -11 8 0 18 22 64 98 209 29 53 52 104 52 112

0 15 22 57 27 52 1 -2 -4 -21 -12 -42z m1774 -639 c9 -11 9 -15 -1 -19 -7 -3

20 -6 61 -6 65 -1 72 -3 61 -16 -7 -9 -20 -13 -29 -10 -21 6 -46 -10 -37 -24

5 -8 -11 -11 -51 -11 -35 -1 -66 -6 -77 -15 -11 -8 -26 -15 -34 -15 -22 0 8

25 41 34 15 3 27 11 27 16 0 6 9 10 20 10 11 0 20 3 20 8 0 4 -35 9 -78 11

-42 2 -88 4 -102 5 -14 0 -25 -3 -25 -9 0 -5 18 -10 39 -11 22 0 41 -5 43 -11

5 -15 -33 -23 -46 -10 -8 8 -11 6 -11 -7 0 -16 -6 -17 -52 -11 -29 4 -54 11

-56 16 -2 5 -13 9 -25 9 -17 0 -18 3 -9 12 10 10 17 10 32 0 34 -21 59 -15 55

13 -2 27 -3 26 80 29 22 1 50 5 63 10 15 5 29 3 39 -6 15 -11 16 -11 10 5 -8

21 25 24 42 3z m-5629 -521 c-5 -32 -7 -61 -5 -65 3 -5 -2 -10 -10 -14 -8 -3

-15 -10 -15 -16 0 -6 5 -8 10 -5 13 8 13 -5 -2 -38 -7 -15 -18 -27 -24 -27 -6

0 -17 -26 -24 -57 -7 -32 -18 -78 -26 -103 -17 -56 -34 -163 -34 -212 0 -21

-4 -38 -9 -38 -10 0 -10 2 -16 -174 -3 -71 -6 -131 -8 -133 -3 -2 -9 29 -16

69 -18 118 -7 240 39 408 10 36 20 82 23 103 6 36 67 210 88 249 5 10 9 26 9

36 0 22 21 85 26 79 2 -2 -1 -29 -6 -62z m5002 -143 c-15 -12 -46 -27 -70 -33

-23 -7 -45 -16 -49 -22 -4 -6 2 -8 18 -3 68 18 72 19 65 8 -4 -6 -23 -14 -44

-17 -20 -3 -45 -11 -55 -16 -10 -5 -37 -10 -60 -10 -23 0 -90 -2 -148 -5 -69

-4 -113 -2 -125 5 -15 8 3 10 77 11 62 0 112 6 140 16 24 8 51 17 59 19 17 3

90 35 160 69 54 26 74 12 32 -22z m-4861 -814 c-22 -67 -79 -173 -87 -165 -3

3 2 19 10 35 23 45 59 139 48 127 -18 -20 -72 -106 -72 -115 0 -9 -32 -30 -45

-30 -3 0 2 14 11 31 8 17 11 28 5 25 -35 -22 23 57 80 109 6 6 23 22 38 36 14

15 27 23 29 18 2 -5 -6 -37 -17 -71z"/>

<path d="M2205 3786 c22 -20 66 -50 98 -67 32 -16 56 -33 53 -38 -3 -4 -103

-6 -223 -5 -274 4 -265 4 -281 17 -8 6 -32 12 -53 13 -36 2 -39 0 -33 -19 8

-28 28 -62 59 -106 14 -18 22 -37 19 -42 -3 -5 16 -9 41 -9 43 0 46 -2 40 -21

-6 -18 -4 -20 14 -14 15 5 21 2 21 -9 0 -23 9 -20 44 17 33 34 57 51 96 68 20

9 27 7 35 -7 18 -31 67 -84 77 -84 6 0 -1 12 -16 26 -29 30 -30 33 -16 54 8

13 13 13 41 -2 40 -23 58 -23 86 4 22 21 23 21 43 3 11 -10 20 -14 20 -9 0 5

6 17 14 26 11 16 17 14 77 -17 144 -77 139 -75 126 -54 -17 28 -3 32 34 10 19

-12 37 -21 42 -21 15 0 6 31 -14 51 -27 27 -13 42 27 30 27 -8 30 -6 32 17 2

29 -32 72 -58 72 -9 0 -20 4 -26 9 -5 5 -34 19 -64 31 -30 12 -66 27 -80 33

-14 5 -29 9 -33 8 -4 0 -18 4 -30 11 -34 19 -107 36 -107 25 0 -5 -7 -3 -16 4

-9 7 -31 12 -49 10 -19 -1 -44 3 -57 9 -14 7 -7 -3 17 -24z"/>

<path d="M2713 2640 c-4 -15 -11 -19 -24 -15 -14 5 -17 2 -13 -8 5 -14 42 -31

128 -58 22 -6 49 -20 60 -30 10 -10 36 -30 57 -45 36 -24 41 -25 91 -15 29 7

62 20 73 30 29 25 120 81 133 81 16 0 42 29 42 46 0 11 -6 13 -20 9 -12 -4

-27 -1 -35 5 -31 26 -171 -23 -159 -55 8 -20 -34 -42 -91 -48 -50 -5 -50 -5

-102 49 -71 73 -129 95 -140 54z"/>

<path d="M3126 2253 c-3 -4 -19 -8 -34 -9 -15 -2 -49 -7 -75 -12 -29 -6 -64

-6 -88 -1 -95 22 -241 14 -383 -19 -43 -10 -45 -32 -4 -32 18 0 73 -7 122 -16

72 -12 94 -13 113 -3 18 10 31 9 65 -2 53 -17 260 -18 368 -1 148 23 200 36

200 48 0 13 -20 19 -140 39 -96 16 -133 18 -144 8z"/>

<path d="M2810 1906 c32 -33 120 -47 205 -31 63 11 85 20 85 35 0 4 -60 8

-132 7 -73 0 -144 3 -158 7 l-25 8 25 -26z"/>

</g>

</svg>

