<?xml version="1.0" standalone="no"?>

<!DOCTYPE svg PUBLIC "-//W3C//DTD SVG 20010904//EN"

 "http://www.w3.org/TR/2001/REC-SVG-20010904/DTD/svg10.dtd">

<svg version="1.0" xmlns="http://www.w3.org/2000/svg"

 width="113.385827" height="160.336095" viewBox="0 0 113.385827 160.336095"

 preserveAspectRatio="xMidYMid meet">

<metadata>

Created by potrace 1.14, written by Peter Selinger 2001-2017

</metadata>

<g transform="translate(60.082978,20.809088) scale(0.0095,-0.0095)"
fill="#000000" stroke="none">

<path d="M0 4320 l0 -4320 3055 0 3055 0 0 4320 0 4320 -3055 0 -3055 0 0

-4320z m1874 3424 c105 -51 182 -158 193 -269 6 -58 -3 -125 -17 -125 -5 0

-31 -21 -59 -47 -28 -27 -60 -56 -73 -66 -51 -40 -155 -46 -232 -13 -21 9 -45

16 -52 16 -8 0 -14 5 -14 11 0 6 -8 9 -18 7 -13 -4 -26 5 -42 29 -29 43 -62

56 -116 48 -48 -7 -51 -3 -60 79 -18 151 100 317 253 356 67 17 174 5 237 -26z

m1923 -924 c144 -55 313 -179 500 -367 230 -232 375 -444 437 -641 47 -151 57

-235 61 -548 l4 -292 35 -113 c57 -187 66 -229 71 -339 4 -94 3 -98 -5 -40

-12 87 -60 279 -71 286 -13 8 -12 -31 12 -330 24 -292 24 -286 -33 -286 l-27

0 6 101 6 100 -34 -3 c-33 -3 -34 -4 -41 -58 -3 -30 -14 -80 -23 -111 l-18

-57 -131 -37 c-72 -21 -148 -44 -168 -51 -21 -7 -38 -10 -38 -6 0 3 29 101 65

217 84 275 95 323 95 429 0 99 -17 216 -31 216 -5 0 -27 -11 -49 -25 -22 -14

-46 -25 -54 -25 -21 0 -100 -81 -139 -142 -65 -101 -81 -160 -81 -288 0 -161

32 -255 119 -346 l47 -48 -28 -71 c-46 -119 -170 -367 -214 -426 -35 -48 -51

-60 -108 -82 -77 -30 -170 -52 -260 -62 -82 -9 -80 -28 6 -71 l63 -32 -63 -6

c-47 -5 -96 0 -194 18 -172 32 -294 65 -294 80 0 7 11 35 25 62 31 60 31 68 2

91 -34 27 -82 93 -108 146 -13 26 -25 47 -28 47 -4 0 -13 -15 -21 -33 -11 -21

-32 -40 -64 -56 l-47 -24 -42 23 c-23 13 -56 34 -73 47 -17 13 -33 23 -36 23

-4 0 -8 -21 -11 -47 -6 -61 -39 -298 -67 -473 -44 -280 -69 -454 -66 -458 2

-2 80 27 172 64 93 37 183 71 201 76 30 8 32 12 35 60 l3 52 85 37 c47 21 91

38 98 38 8 1 12 -18 12 -64 0 -36 3 -65 8 -65 4 0 70 7 147 15 77 8 148 15

158 15 25 0 22 -46 -8 -113 -26 -61 -52 -80 -119 -90 -22 -4 -89 -31 -150 -62

-90 -44 -128 -58 -201 -69 -75 -11 -440 -118 -454 -132 -11 -11 8 -12 48 -3

46 10 84 4 79 -13 -2 -6 -28 -20 -58 -31 -30 -11 -61 -24 -67 -30 -17 -13 -16

-92 1 -106 7 -6 43 -14 80 -18 64 -6 66 -7 66 -34 0 -25 -4 -29 -27 -29 -25

-1 -24 -2 12 -15 111 -40 145 -40 335 -1 41 9 100 16 130 16 33 1 71 8 95 20

l40 19 6 -72 c4 -40 7 -108 8 -153 l1 -81 78 -66 c42 -36 97 -86 122 -112 l45

-46 -35 -30 c-57 -48 -89 -63 -114 -50 -11 6 -48 20 -80 32 -37 14 -74 36 -97

60 -21 22 -46 39 -56 39 -26 1 -101 36 -135 65 -16 14 -40 25 -53 25 -13 0

-28 7 -33 16 -7 12 -46 21 -161 36 -84 11 -155 18 -157 15 -9 -9 16 -47 31

-47 7 0 44 -16 82 -36 65 -35 71 -36 124 -28 100 17 240 -26 325 -99 28 -23

68 -50 91 -60 l40 -19 7 -91 c3 -51 9 -159 12 -240 l7 -148 111 -83 c61 -45

161 -119 223 -164 l112 -81 91 70 c141 109 222 226 260 375 21 80 26 179 11

188 -5 3 -22 -24 -37 -62 -59 -138 -208 -325 -322 -404 -60 -42 -64 -28 -4 15

128 95 272 285 339 449 24 61 24 61 8 137 -9 42 -32 128 -51 191 -57 194 -67

254 -67 400 0 99 7 175 26 285 14 83 28 194 32 248 3 54 15 167 28 250 18 128

22 196 21 425 0 149 3 272 7 272 12 0 24 -186 22 -325 -1 -114 -21 -330 -39

-435 -5 -28 -4 -33 6 -23 18 17 69 337 80 498 8 126 -2 434 -15 454 -2 5 5 44

17 87 l22 79 9 -50 c13 -80 13 -617 -2 -730 -18 -149 -46 -304 -101 -555 -106

-488 -106 -558 2 -878 l53 -157 -1 -175 c0 -198 -11 -267 -57 -353 -35 -68

-134 -164 -242 -237 -41 -28 -75 -52 -75 -54 0 -2 27 -22 60 -45 33 -23 60

-46 60 -51 0 -9 -86 -106 -434 -483 l-200 -217 -566 0 -566 0 -69 86 c-71 88

-74 89 -130 69 -12 -4 -9 1 8 11 15 10 27 22 27 27 0 4 -57 77 -128 161 -204

247 -294 358 -290 361 9 8 374 140 513 185 177 57 294 109 369 163 39 28 55

49 73 94 39 93 93 281 93 320 0 30 -14 114 -35 220 -6 24 0 23 -290 43 -88 5

-169 13 -181 16 -18 5 -23 -2 -37 -46 -9 -29 -17 -72 -17 -96 0 -23 -3 -45 -7

-47 -5 -3 -69 -11 -143 -18 -156 -14 -144 -7 -260 -146 -230 -276 -369 -716

-387 -1225 l-6 -178 -114 0 c-112 0 -113 0 -108 23 2 12 25 135 50 272 24 138

63 344 85 460 23 116 44 225 47 243 5 28 1 38 -25 65 -78 81 -94 199 -41 305

16 34 45 73 62 88 18 15 28 29 22 31 -5 2 -66 35 -135 73 -69 38 -126 67 -127

66 -9 -8 -147 -499 -163 -579 -12 -57 -25 -177 -31 -290 -5 -105 -21 -294 -34

-419 -14 -124 -25 -244 -25 -266 0 -72 0 -72 -116 -72 -122 0 -114 -17 -84

164 80 473 152 777 284 1199 36 114 70 245 76 290 6 45 15 96 21 113 11 37 57

81 123 118 63 37 247 176 416 316 254 210 271 220 451 258 72 15 410 132 599

206 20 8 49 229 61 451 4 88 15 228 23 310 21 201 21 363 1 385 -9 10 -31 46

-50 81 -37 69 -47 62 -15 -10 23 -49 20 -69 -3 -24 -61 116 -158 504 -159 632

0 16 -3 20 -8 11 -10 -17 -16 3 -29 103 -12 84 -15 277 -5 277 3 0 19 -9 35

-21 l29 -20 0 76 c0 77 -35 245 -51 245 -13 0 -86 -101 -104 -143 -19 -47 -19

-117 1 -228 15 -80 15 -91 2 -107 -12 -13 -14 -29 -8 -72 11 -74 12 -238 1

-244 -4 -3 -36 0 -70 6 -53 10 -68 18 -95 50 -30 35 -40 39 -130 58 -54 11

-102 20 -108 20 -30 0 156 -208 223 -249 40 -25 49 -26 49 -6 0 15 38 40 47

31 3 -3 -2 -12 -11 -21 -28 -28 -19 -38 27 -31 23 3 51 8 62 11 26 8 65 -51

89 -132 10 -32 28 -87 41 -123 25 -69 75 -243 70 -248 -1 -1 -64 3 -139 10

l-136 12 -11 36 c-6 19 -14 101 -16 183 -3 81 -8 147 -12 147 -14 0 -60 -109

-72 -169 -7 -35 -9 -88 -5 -122 l6 -61 -28 6 c-15 3 -79 15 -142 27 -63 11

-116 21 -117 23 -2 2 2 37 8 77 13 81 7 189 -14 259 -13 44 -13 44 -9 -41 4

-77 2 -92 -23 -146 -15 -34 -42 -75 -60 -93 l-33 -32 -140 38 c-117 31 -142

41 -146 58 -3 12 -12 86 -22 166 -12 111 -15 196 -11 360 3 118 8 224 13 234

5 13 4 17 -4 12 -14 -8 -65 -166 -99 -306 -14 -58 -29 -157 -34 -220 -7 -106

-7 -101 -4 55 3 194 6 208 110 519 36 107 79 255 95 328 49 219 100 376 178

546 13 30 43 63 93 104 41 33 198 178 349 322 358 342 405 384 529 467 250

169 558 276 860 299 146 11 208 5 298 -30z m1197 -4094 c-22 -64 -55 -96 -100

-96 -44 0 -132 45 -194 100 l-45 39 177 1 177 0 -15 -44z m381 10 c-107 -92

-213 -129 -257 -90 -21 19 -57 89 -58 112 0 9 42 12 178 12 l177 0 -40 -34z

m-2049 -175 c32 -14 104 -14 257 0 120 12 121 12 139 -11 10 -12 18 -38 18

-57 0 -35 -28 -101 -52 -121 -12 -10 -142 -38 -383 -83 -184 -34 -246 -50

-265 -69 -15 -15 -33 -20 -75 -20 -54 0 -56 1 -61 30 -4 16 -5 33 -4 37 2 5

28 17 60 29 103 37 155 81 134 115 -11 19 -69 38 -138 45 -75 8 -87 21 -23 26

38 3 42 6 45 31 4 34 20 41 127 61 44 9 105 23 135 33 l55 18 3 -26 c2 -17 12

-31 28 -38z m-425 -151 c28 -15 26 -74 -3 -94 -30 -21 -44 -20 -68 4 -51 51 6

124 71 90z"/>

<path d="M3495 5359 c-49 -10 -148 -23 -220 -29 -200 -17 -311 -37 -420 -76

-55 -20 -112 -38 -127 -41 -16 -3 -28 -8 -28 -11 0 -36 37 -195 46 -199 7 -2

35 2 63 11 28 8 51 13 51 10 0 -3 -7 -16 -16 -29 -16 -25 -16 -26 56 -93 103

-95 180 -133 194 -96 10 25 7 54 -5 54 -21 0 -150 102 -175 139 -31 46 -31 58

2 32 20 -16 31 -18 45 -10 10 5 19 16 19 23 0 9 8 12 25 8 15 -2 36 3 52 14

23 16 47 19 134 19 98 0 108 -2 147 -27 31 -21 50 -46 78 -103 20 -41 38 -75

39 -75 2 0 17 22 34 49 35 55 50 135 32 169 -7 13 -26 24 -49 29 -20 4 -39 8

-42 8 -27 6 -126 41 -130 47 -8 11 -59 28 -82 28 -12 0 -30 -7 -40 -17 -10 -9

-18 -12 -18 -6 0 13 -32 13 -49 -1 -11 -8 -15 -8 -18 1 -2 7 -10 10 -16 8 -7

-2 -28 -6 -47 -8 -41 -6 -70 -16 -70 -26 0 -4 -25 -3 -55 2 -48 9 -57 8 -68

-7 -12 -16 -14 -16 -26 -2 -11 13 7 21 143 65 l156 50 113 -9 c61 -6 168 -7

237 -3 124 6 125 6 158 39 20 20 32 42 32 58 0 23 -4 26 -32 25 -18 -1 -73

-10 -123 -20z"/>

<path d="M3910 5350 c0 -41 19 -77 44 -84 11 -3 58 -6 103 -6 91 0 217 -21

260 -43 15 -8 39 -27 52 -43 l23 -27 -23 8 c-13 4 -44 7 -69 7 -41 -1 -82 -1

-192 0 -41 0 -150 -41 -142 -54 3 -4 1 -8 -5 -8 -5 0 -12 -9 -16 -20 -3 -11

-12 -19 -18 -17 -17 3 -14 -79 4 -121 l14 -32 45 67 c52 78 107 113 177 113

32 0 46 5 57 22 15 21 16 21 16 3 0 -29 54 -52 77 -34 14 12 15 11 9 -7 -4

-14 0 -26 13 -38 19 -18 21 -17 51 15 16 18 30 37 30 42 0 4 4 5 10 2 6 -3 7

1 4 9 -3 9 -1 16 5 16 40 0 -41 135 -100 165 -16 9 -69 20 -117 26 -101 11

-210 34 -260 54 -48 20 -52 19 -52 -15z"/>

<path d="M2524 5203 c4 -32 9 -102 13 -156 3 -54 9 -100 13 -102 7 -4 99 22

109 31 2 2 -6 62 -19 133 l-23 129 -37 11 c-62 18 -64 17 -56 -46z"/>

<path d="M4130 5041 c-50 -16 -148 -76 -139 -86 3 -3 23 8 45 25 51 38 72 39

66 2 -2 -19 4 -35 22 -55 30 -32 59 -34 86 -7 24 24 28 82 5 74 -11 -4 -19 3

-26 25 -11 32 -17 34 -59 22z"/>

<path d="M3228 4989 c-19 -32 -23 -67 -10 -85 14 -20 57 -44 78 -44 26 0 64

44 64 73 0 19 3 18 31 -9 25 -22 29 -24 21 -8 -6 12 -8 25 -4 29 4 5 1 5 -5 1

-7 -4 -13 -3 -13 3 0 13 -103 71 -126 71 -11 0 -27 -14 -36 -31z"/>

<path d="M2570 4871 c0 -5 8 -36 19 -69 12 -40 37 -82 76 -131 32 -39 59 -70

60 -69 2 2 -1 32 -6 68 -11 72 -36 140 -53 140 -6 0 -28 16 -50 35 -41 37 -46

40 -46 26z"/>

<path d="M2802 4747 c-11 -12 -8 -167 4 -240 3 -22 29 -76 56 -120 68 -109

162 -298 214 -426 23 -57 44 -99 46 -95 3 5 11 27 18 49 7 22 22 58 34 80 24

47 27 65 10 85 -16 20 -44 89 -44 109 0 13 2 13 9 2 6 -9 11 -10 15 -2 8 12

-18 44 -28 34 -3 -4 -6 1 -6 10 0 9 -11 24 -26 33 -14 10 -23 23 -20 31 4 9 0

13 -11 11 -9 -2 -18 3 -20 10 -3 7 0 11 5 10 6 -2 10 0 11 5 3 20 0 27 -11 25

-8 -2 -13 6 -12 18 0 14 -4 20 -13 17 -8 -3 -13 3 -13 17 0 12 -7 28 -15 36

-13 14 -13 17 0 30 17 17 20 28 5 19 -5 -3 -18 3 -30 15 -11 11 -16 20 -10 20

13 0 -10 51 -30 67 -8 7 -11 13 -5 13 5 0 0 7 -12 15 -13 9 -20 22 -17 30 4 8

1 15 -5 15 -6 0 -11 -5 -11 -11 0 -5 -5 -7 -10 -4 -6 4 -8 10 -5 15 3 4 -11

18 -30 30 -27 17 -34 27 -30 41 7 22 2 24 -13 6z"/>

<path d="M3516 4312 l-28 -7 50 -43 51 -42 121 -7 122 -6 89 43 c50 25 85 48

80 53 -10 10 -445 19 -485 9z"/>

<path d="M3664 4011 c-44 -21 -114 -58 -154 -82 -40 -23 -106 -52 -146 -64

-79 -23 -86 -35 -19 -35 42 0 75 -17 197 -102 63 -45 122 -58 257 -58 117 0

130 7 171 93 31 67 45 86 75 103 11 6 20 15 20 21 0 14 -161 153 -176 153 -8

-1 -25 -7 -39 -14 -21 -12 -29 -12 -62 5 -20 10 -39 19 -40 18 -2 0 -39 -17

-84 -38z"/>

<path d="M2794 1668 c3 -29 8 -107 12 -173 3 -66 7 -122 9 -123 2 -2 12 25 23

60 l20 63 48 3 c65 3 111 -21 144 -77 27 -48 61 -76 101 -85 29 -6 71 18 53

31 -6 5 -17 19 -23 31 -25 48 -88 106 -171 160 -47 30 -111 79 -143 108 -32

30 -63 54 -69 54 -7 0 -8 -18 -4 -52z"/>

</g>

</svg>

