<?xml version="1.0" standalone="no"?>

<!DOCTYPE svg PUBLIC "-//W3C//DTD SVG 20010904//EN"

 "http://www.w3.org/TR/2001/REC-SVG-20010904/DTD/svg10.dtd">

<svg version="1.0" xmlns="http://www.w3.org/2000/svg"

 width="113.385827" height="170.082793" viewBox="0 0 113.385827 170.082793"

 preserveAspectRatio="xMidYMid meet">

<metadata>

Created by potrace 1.14, written by Peter Selinger 2001-2017

</metadata>

<g transform="translate(0.000000,170.078740) scale(0.019685,-0.019685)"

fill="#000000" stroke="none">

<path d="M2723 8433 l5 -208 -26 -57 c-14 -32 -32 -58 -40 -58 -8 0 -28 -11

-44 -26 -17 -14 -37 -23 -44 -20 -8 3 -14 -1 -14 -9 0 -18 -35 -28 -58 -16

-10 5 -31 8 -48 5 -16 -2 -51 -4 -78 -4 -57 -1 -78 -10 -50 -21 17 -7 17 -8

-3 -8 -13 -1 -25 -1 -28 -1 -3 0 -19 -7 -36 -16 -23 -11 -29 -12 -23 -2 18 29

13 36 -20 27 -50 -14 -90 -32 -98 -43 -5 -7 -8 -6 -8 3 0 12 -2 12 -17 0 -31

-25 -60 -37 -99 -45 -22 -3 -43 -10 -49 -14 -5 -4 -28 -13 -50 -20 -85 -26

-125 -43 -125 -55 0 -20 -25 -36 -37 -24 -7 7 -22 2 -48 -16 -21 -14 -49 -28

-62 -31 -13 -4 -23 -10 -23 -15 0 -5 -12 -9 -26 -9 -22 0 -24 -2 -14 -15 10

-12 6 -18 -24 -36 -20 -11 -34 -24 -31 -29 2 -4 -7 -18 -21 -31 l-26 -24 24

-6 c19 -6 17 -7 -12 -9 -33 -2 -33 -3 -10 -10 26 -8 21 -11 -30 -15 -9 0 -29

-6 -45 -12 -17 -6 -50 -17 -75 -24 -25 -7 -54 -19 -65 -26 -23 -16 -16 -17 21

-3 15 6 43 13 63 15 36 5 36 5 -11 -16 -44 -20 -50 -26 -47 -45 0 -4 -5 -11

-13 -15 -11 -7 -10 -9 1 -9 11 0 10 -5 -4 -20 -10 -11 -23 -20 -30 -20 -6 0

-23 -16 -37 -36 -14 -19 -29 -35 -34 -35 -4 1 -9 -6 -10 -14 -2 -14 0 -14 14

-3 14 11 15 10 9 -6 -6 -16 -5 -17 8 -6 12 10 15 10 15 -4 0 -24 -18 -56 -32

-56 -6 0 -5 7 3 18 13 15 12 16 -4 3 -9 -8 -15 -16 -12 -19 3 -3 0 -11 -7 -19

-6 -7 -8 -17 -4 -20 4 -4 11 -1 16 7 5 8 12 12 15 9 3 -3 -13 -33 -35 -67 -22

-33 -40 -64 -39 -69 1 -4 1 -10 0 -13 -1 -3 -4 -20 -6 -39 -2 -22 0 -29 6 -20

15 25 10 -2 -16 -72 -20 -56 -23 -81 -20 -136 12 -154 11 -231 -1 -283 -7 -30

-9 -57 -6 -60 12 -9 7 -55 -6 -56 -6 -1 -16 -2 -21 -3 -11 -1 -3 -40 13 -60 9

-12 8 -13 -3 -6 -11 6 -13 3 -9 -11 3 -11 -1 -55 -8 -98 -8 -43 -11 -82 -8

-87 3 -5 1 -9 -5 -9 -5 0 -12 14 -16 31 -4 17 -9 28 -12 25 -3 -2 0 -20 6 -39

13 -38 21 -231 10 -219 -4 4 -9 30 -10 57 -2 28 -7 53 -12 56 -11 8 -26 119

-15 119 4 0 8 5 8 11 0 5 -5 7 -10 4 -11 -7 -32 39 -32 73 0 12 -4 22 -9 22

-5 0 -7 19 -3 43 4 31 3 38 -5 27 -6 -8 -11 -36 -11 -62 0 -26 -5 -50 -12 -54

-6 -4 -8 -3 -5 2 3 6 1 16 -4 24 -15 25 -7 -147 16 -313 4 -34 12 -120 24

-282 10 -136 4 -421 -10 -447 -7 -13 -7 -18 -1 -14 21 13 21 -12 1 -83 -11

-40 -18 -75 -15 -79 3 -3 6 2 6 10 0 9 8 22 18 29 14 11 15 11 5 -1 -7 -8 -13

-28 -13 -45 0 -22 3 -26 9 -15 6 8 8 17 5 21 -2 4 0 10 6 14 14 9 12 -25 -4

-54 -7 -13 -11 -33 -8 -44 3 -11 1 -18 -4 -15 -5 3 -10 -15 -10 -41 -1 -33 1

-40 7 -25 9 27 29 40 29 21 0 -8 -7 -32 -16 -53 -18 -43 -27 -154 -12 -154 5

0 7 -4 3 -9 -3 -5 -1 -12 4 -16 6 -3 9 -28 7 -55 -2 -28 0 -47 5 -44 14 8 11

-9 -13 -83 -27 -87 -36 -97 -30 -34 3 31 1 51 -5 51 -7 0 -8 19 -5 46 3 34 2

45 -6 40 -14 -8 -7 15 16 54 14 24 13 24 -3 5 -16 -19 -17 -18 -13 33 4 38 2

50 -6 42 -6 -6 -12 -37 -13 -68 -1 -31 -4 -66 -6 -77 -3 -11 -6 -22 -6 -25 -1

-3 -5 1 -10 8 -6 10 -12 6 -26 -15 -14 -21 -19 -52 -22 -128 -2 -55 -5 -106

-8 -114 -4 -11 -3 -11 9 -2 13 11 15 4 15 -51 0 -73 -6 -101 -21 -92 -6 4 -8

29 -4 63 l5 56 -13 -45 c-14 -50 -10 -110 10 -125 7 -5 14 -23 16 -40 2 -16 7

-28 13 -25 5 3 8 10 7 15 -7 18 -5 145 2 152 3 4 12 1 19 -6 9 -11 9 -14 0

-18 -15 -5 -18 -33 -4 -33 13 0 21 39 15 84 -3 25 2 64 14 101 l19 60 3 -60

c4 -97 1 -145 -16 -203 -9 -31 -14 -72 -11 -94 5 -34 3 -39 -12 -35 -16 4 -16

1 1 -47 10 -28 15 -63 12 -78 -5 -23 -2 -28 15 -28 13 0 22 -7 23 -17 3 -34

-4 -68 -14 -74 -6 -4 -4 -17 6 -37 15 -29 24 -60 25 -90 1 -7 5 -10 11 -7 5 3

10 0 10 -7 0 -10 2 -11 8 0 6 9 12 5 21 -14 17 -38 4 -177 -17 -169 -12 4 -13

-2 -8 -38 4 -23 8 -118 11 -211 3 -152 5 -170 24 -190 14 -14 18 -29 14 -44

-3 -13 0 -49 6 -80 6 -31 13 -109 14 -173 2 -63 7 -121 11 -128 4 -6 10 -57

12 -114 3 -56 6 -113 8 -127 2 -14 4 -40 4 -58 1 -18 6 -31 11 -27 5 3 7 27 4

53 -2 26 -6 94 -9 152 -2 58 -4 116 -5 130 0 14 6 90 14 168 12 122 18 147 36

165 17 18 21 19 21 5 0 -19 52 -160 86 -235 13 -28 24 -54 24 -57 0 -17 97

-158 121 -177 16 -12 29 -27 29 -34 0 -16 35 -47 43 -38 4 3 19 -4 35 -18 15

-13 6 -1 -19 26 -26 28 -56 71 -67 96 -10 25 -34 65 -51 90 -37 50 -54 87 -82

176 -11 34 -24 65 -29 68 -5 3 -5 19 1 38 5 17 9 33 9 34 0 6 -26 -3 -31 -11

-12 -15 -21 33 -10 52 13 25 6 121 -14 179 -10 30 -14 61 -9 89 3 23 3 48 -1

55 -18 28 -22 186 -6 202 8 8 11 6 11 -6 0 -20 16 -23 23 -4 3 6 2 -23 -1 -67

-4 -64 -2 -80 10 -87 9 -5 19 -26 22 -46 8 -48 62 -223 88 -288 11 -27 24 -59

28 -70 11 -31 89 -186 112 -223 11 -18 23 -31 26 -28 2 3 -1 12 -8 21 -7 9

-10 18 -7 22 4 3 0 11 -8 17 -13 9 -11 11 11 13 15 0 22 -2 16 -6 -8 -5 -6

-16 6 -36 29 -48 35 -68 17 -61 -8 3 -15 3 -15 0 0 -2 11 -9 26 -14 14 -6 29

-23 35 -40 6 -16 15 -30 20 -30 5 0 9 -8 9 -19 0 -10 10 -33 23 -52 12 -19 42

-73 66 -122 25 -48 51 -93 59 -99 17 -15 44 -20 36 -7 -3 5 -10 6 -16 3 -6 -4

-9 -1 -6 7 3 8 -6 32 -20 53 -13 22 -26 54 -27 72 -2 18 -10 43 -19 56 -21 32

-11 41 25 23 45 -24 46 -17 2 15 -22 17 -44 41 -47 54 -5 21 -37 40 -59 37 -5

-1 -6 3 -2 9 3 5 -6 38 -20 72 -15 35 -41 113 -60 173 -18 61 -48 144 -67 185

-30 64 -62 180 -57 207 5 27 -3 64 -17 78 -9 9 -13 23 -9 33 6 16 8 15 23 -3

9 -11 24 -20 32 -20 8 0 20 -11 27 -25 7 -14 18 -25 25 -26 25 -1 58 -15 58

-25 0 -12 16 -33 58 -74 17 -17 32 -39 32 -49 0 -22 75 -102 101 -109 19 -5

19 -4 5 18 -20 30 -20 35 0 35 8 0 28 -13 44 -29 16 -16 41 -31 56 -34 l27 -5

-32 25 c-17 13 -36 34 -42 45 -10 19 -9 20 15 16 26 -5 37 7 14 15 -10 3 -10

10 1 30 18 34 33 35 27 2 -4 -20 3 -29 45 -54 29 -19 55 -28 65 -24 10 4 15 2

11 -4 -5 -7 101 -73 119 -73 2 0 4 9 4 20 0 11 -7 20 -16 20 -19 0 -94 42 -94

53 0 5 16 0 36 -12 19 -12 45 -21 57 -21 21 1 22 1 3 15 -29 22 -15 25 19 4

17 -11 24 -19 16 -19 -11 0 -10 -5 4 -20 10 -11 26 -20 36 -20 28 0 49 -11 42

-23 -4 -6 0 -8 10 -4 9 3 21 -1 29 -11 11 -13 11 -14 -1 -7 -8 4 -34 9 -57 10

-24 1 -47 5 -51 10 -5 4 0 5 10 2 27 -10 20 8 -8 21 -17 8 -25 8 -25 1 0 -20

21 -49 35 -49 9 0 12 -6 9 -15 -4 -8 -2 -16 2 -16 5 -1 25 -3 44 -5 29 -2 31

-1 13 6 -13 5 -23 12 -23 15 0 9 16 5 36 -9 18 -14 18 -15 -6 -25 l-25 -10 28

2 c15 1 27 5 27 9 0 4 7 8 16 8 13 0 14 -3 5 -14 -10 -12 -8 -17 7 -25 11 -6

22 -8 25 -5 3 3 14 1 24 -6 16 -9 15 -10 -7 -5 l-25 6 25 -20 c24 -20 24 -20

3 -14 -13 3 -23 3 -23 -1 0 -11 85 -60 102 -58 25 1 51 -38 36 -55 -7 -9 -7

-13 1 -13 6 0 10 -10 8 -21 -2 -24 19 -38 25 -16 2 12 8 12 36 0 35 -14 35

-33 1 -33 -11 0 -18 -4 -14 -10 3 -5 13 -6 21 -3 9 3 20 0 25 -8 4 -8 12 -14

16 -14 4 -1 24 -11 43 -23 19 -12 45 -22 57 -22 12 0 25 -4 28 -10 3 -6 15

-10 25 -10 10 0 21 -4 25 -10 3 -5 -18 -2 -47 7 -138 42 -168 46 -168 19 0 -7

6 -18 13 -25 10 -10 8 -11 -8 -5 -18 7 -18 6 -7 -9 9 -11 11 -27 7 -48 -5 -20

-10 -27 -15 -19 -4 6 -11 12 -16 12 -5 0 -8 4 -6 10 1 5 -2 7 -7 4 -17 -11

-24 15 -22 76 1 35 -2 58 -8 58 -6 0 -11 -18 -11 -39 0 -22 -4 -51 -10 -65 -6

-17 -6 -26 0 -26 6 0 10 -4 10 -10 0 -5 -7 -7 -15 -4 -10 4 -15 0 -15 -16 0

-11 4 -19 9 -16 5 3 11 -15 13 -40 2 -25 0 -48 -5 -51 -4 -2 -7 -23 -7 -46 1

-23 -2 -93 -5 -154 -3 -67 -2 -113 4 -113 5 0 11 39 14 88 6 98 13 168 21 197

2 11 5 23 5 28 1 4 16 7 35 7 l34 0 -3 -67 c-2 -38 -6 -119 -9 -181 -6 -102

-5 -113 11 -118 10 -3 26 -10 35 -15 10 -5 28 -9 40 -9 31 0 68 -11 68 -19 0

-4 -12 -7 -27 -6 -16 1 -20 0 -10 -2 9 -2 17 -8 17 -12 0 -4 -28 -4 -62 1 -33

4 -64 5 -67 2 -3 -4 -1 -8 4 -10 11 -4 11 -96 0 -152 -4 -21 -1 -39 7 -50 7

-9 8 -13 2 -9 -11 6 -20 -30 -30 -128 -3 -22 -14 -86 -25 -143 -11 -57 -18

-110 -15 -117 3 -8 0 -17 -6 -21 -7 -4 -6 -9 3 -14 10 -7 10 -19 2 -54 -11

-50 -8 -56 14 -28 9 10 12 11 7 2 -4 -9 -3 -12 2 -7 5 5 10 25 11 45 2 53 25

152 35 152 4 0 8 8 8 18 0 9 7 26 15 36 21 27 19 6 -4 -71 -10 -34 -16 -64

-13 -68 3 -3 -2 -11 -11 -18 -18 -13 -32 -57 -18 -57 5 0 11 9 14 20 3 11 11

20 17 20 9 0 10 -3 1 -13 -6 -8 -8 -16 -5 -19 3 -3 -6 -34 -21 -69 l-25 -64

25 30 25 30 -16 -38 c-14 -36 -14 -40 2 -52 16 -12 16 -14 -4 -40 -22 -28 -29

-51 -13 -40 10 6 6 -48 -4 -65 -3 -6 -2 -10 4 -10 5 0 13 5 16 10 4 6 11 8 16

4 6 -4 4 -15 -5 -29 -8 -12 -12 -32 -10 -43 3 -11 1 -23 -5 -27 -6 -3 -11 -3

-10 2 4 23 -2 53 -11 53 -14 0 -12 -32 4 -71 13 -30 14 -31 20 -11 4 12 11 22

16 22 4 0 10 10 13 23 3 12 14 46 25 75 12 29 16 52 10 52 -7 0 -6 5 1 14 12

14 21 41 45 128 11 41 11 46 -3 41 -13 -4 -12 -1 2 10 10 8 20 27 23 42 3 15

12 42 21 59 16 30 16 30 24 8 10 -25 29 -21 29 6 0 15 -2 15 -11 2 -9 -13 -10

-13 -5 0 3 8 9 23 12 32 3 9 12 19 19 22 10 3 12 -14 11 -74 0 -43 -4 -73 -9

-66 -4 6 -6 -2 -6 -19 2 -44 -10 -116 -26 -147 -7 -15 -17 -42 -20 -60 -10

-42 -40 -94 -53 -91 -6 2 -9 -4 -6 -12 4 -9 2 -21 -4 -28 -5 -6 -18 -39 -28

-72 -11 -33 -27 -68 -37 -78 -10 -10 -15 -22 -12 -26 2 -5 -2 -12 -11 -15 -9

-4 -14 -13 -10 -21 3 -8 1 -15 -4 -15 -5 0 -12 -10 -15 -21 -15 -45 -76 -139

-87 -133 -7 4 -8 2 -4 -5 4 -6 0 -23 -9 -37 -17 -26 -13 -46 5 -28 5 5 25 40

43 77 19 36 37 64 40 60 4 -3 18 18 32 48 14 30 34 65 46 79 l20 25 -17 -35

c-16 -32 -16 -34 0 -21 9 8 19 11 23 7 3 -3 1 -6 -5 -6 -6 0 -9 -7 -5 -17 4

-10 2 -14 -5 -9 -6 3 -22 -9 -37 -28 -22 -30 -25 -38 -15 -57 7 -12 8 -19 2

-16 -5 4 -21 -16 -37 -44 -29 -53 -48 -62 -20 -10 8 17 13 31 11 31 -13 0 -34

-58 -29 -82 4 -22 0 -30 -21 -39 -14 -7 -23 -16 -20 -20 3 -5 -1 -6 -9 -3 -8

3 -29 -13 -51 -40 -20 -25 -56 -65 -80 -88 -23 -24 -60 -64 -80 -91 l-38 -47

33 0 c32 1 79 28 79 46 0 10 73 118 83 122 4 2 7 9 7 16 0 7 11 23 26 37 21

19 24 20 18 5 -12 -31 14 -9 32 27 21 40 61 89 83 101 13 7 13 6 4 -4 -6 -7

-9 -19 -6 -27 3 -8 0 -13 -7 -11 -7 2 -15 -3 -18 -11 -3 -8 0 -11 7 -7 7 5 9

1 4 -11 -6 -16 -5 -16 10 -4 25 20 20 3 -11 -38 -15 -20 -40 -55 -54 -77 -24

-38 -25 -41 -8 -37 11 3 17 9 15 14 -3 4 4 13 15 19 11 6 20 18 20 27 0 9 12

32 26 50 14 19 27 45 28 58 0 13 4 21 7 19 3 -2 6 17 6 43 0 36 -2 43 -11 32

-14 -19 -46 -32 -46 -18 0 5 7 12 16 16 9 3 13 12 9 21 -3 9 -3 13 1 9 4 -4

14 -1 22 6 10 7 13 8 9 1 -4 -7 0 -18 9 -25 10 -8 13 -21 10 -35 -5 -18 -3

-22 8 -18 9 4 4 -13 -14 -48 -16 -29 -41 -75 -55 -103 -29 -59 -79 -118 -90

-107 -4 4 -6 -3 -3 -15 4 -14 2 -20 -7 -17 -14 6 -41 -23 -31 -33 4 -4 11 -1

16 7 6 8 10 10 10 4 0 -5 -4 -14 -10 -20 -6 -6 10 -10 49 -11 54 -1 61 1 77

25 10 15 26 36 37 48 11 12 19 24 18 28 -2 4 4 18 13 31 22 34 56 95 56 101 0

3 -5 2 -11 -2 -7 -4 -10 -1 -7 7 3 8 11 14 18 14 7 0 15 7 17 15 4 13 3 13 -6

0 -7 -10 -11 -11 -11 -3 0 7 11 20 24 28 32 21 53 77 55 143 0 42 6 60 26 84

14 16 23 33 20 37 -2 5 7 19 20 31 14 13 30 41 36 62 5 21 14 36 19 33 6 -4

10 5 10 19 0 13 3 32 7 42 5 13 3 15 -8 9 -11 -7 -10 -3 2 15 9 14 23 50 32

80 14 47 27 65 94 127 43 39 84 77 91 84 7 8 36 16 64 19 47 5 52 8 62 38 7

18 15 30 20 25 5 -5 6 -2 0 7 -4 8 -9 28 -10 45 l-3 30 15 -25 15 -25 -6 32

c-3 17 -2 34 3 37 19 11 31 -21 35 -89 2 -55 3 -48 5 35 2 139 -22 236 -177

695 -195 577 -541 1633 -541 1651 0 23 32 41 132 75 45 15 62 5 78 -49 15 -48

170 -522 177 -542 23 -62 230 -672 249 -735 13 -44 31 -93 38 -110 8 -16 18

-42 21 -58 4 -15 11 -29 15 -32 15 -10 22 32 26 165 2 74 8 155 13 180 33 154

119 394 246 685 100 230 117 263 195 400 32 55 59 107 61 115 4 21 -10 60 -22

60 -5 0 -9 5 -9 11 0 5 5 7 11 3 8 -4 8 0 0 15 -7 11 -8 21 -4 21 4 0 -1 8

-12 17 -16 13 -17 15 -2 10 11 -4 17 -1 17 9 0 9 -5 12 -11 8 -9 -5 -10 1 -5

20 3 14 2 35 -4 46 -7 13 -7 20 -1 20 6 0 8 7 5 15 -4 8 -1 15 6 15 6 0 9 4 6

8 -3 5 1 20 9 35 12 23 12 27 -1 27 -8 0 -14 -6 -14 -14 0 -11 -20 -26 -35

-26 -1 0 2 18 7 40 6 22 14 40 19 40 5 0 9 5 9 11 0 20 56 68 69 59 10 -5 10

-9 2 -14 -6 -4 -9 -12 -6 -17 4 -5 13 -2 21 6 9 8 20 12 25 9 6 -3 13 3 16 15

3 11 9 18 14 15 5 -3 9 -1 9 5 0 6 11 13 25 17 14 3 22 11 18 17 -3 5 -2 8 3

5 5 -3 20 -1 34 4 20 7 22 11 10 18 -8 5 -11 10 -6 10 5 0 19 -8 30 -17 12

-10 18 -14 14 -9 -4 5 1 20 12 33 10 13 17 33 15 43 -3 13 1 17 12 13 12 -5

12 -7 1 -15 -9 -6 -5 -7 12 -2 14 3 33 15 43 25 10 11 22 17 27 14 5 -3 11 -1

14 4 7 11 48 2 58 -13 4 -6 15 -3 28 9 18 17 40 21 124 24 144 5 164 4 329 -8

162 -13 236 -32 367 -96 95 -47 103 -53 87 -70 -7 -7 -15 -11 -19 -8 -5 2 -8

-6 -7 -19 0 -13 3 -17 6 -10 2 6 9 10 13 7 5 -3 6 -13 3 -22 -4 -9 -2 -14 3

-10 5 3 10 -3 10 -14 0 -10 -4 -19 -9 -19 -4 0 -5 -5 -1 -11 4 -8 -1 -9 -17

-5 -21 6 -22 5 -6 -4 12 -8 15 -16 9 -23 -14 -19 -23 -49 -12 -42 6 3 10 1 10

-4 0 -6 -7 -11 -15 -11 -10 0 -15 -7 -13 -17 2 -12 -3 -18 -14 -17 -22 2 -23

-10 -3 -30 19 -18 19 -24 -1 -53 -16 -26 -6 -30 29 -12 22 12 22 12 2 -8 -11

-11 -27 -18 -35 -16 -10 3 -8 -2 5 -14 20 -18 31 -58 14 -47 -5 3 -9 0 -9 -5

0 -6 8 -11 18 -12 11 0 13 -2 4 -6 -10 -4 -8 -11 9 -29 20 -21 20 -24 5 -39

-19 -20 -21 -29 -3 -20 6 4 4 0 -6 -8 -18 -15 -18 -15 2 -22 13 -4 18 -11 14

-18 -4 -6 -8 -21 -9 -34 -2 -13 -5 -32 -9 -43 -3 -11 -2 -20 3 -20 5 0 7 -12

5 -28 -2 -15 -4 -35 -4 -45 0 -9 -5 -17 -10 -17 -6 0 -8 -4 -4 -9 3 -5 1 -12

-5 -16 -5 -3 -10 -11 -10 -16 0 -6 4 -7 10 -4 6 3 10 -1 10 -10 0 -9 -4 -13

-10 -10 -9 6 -15 -9 -11 -29 4 -20 -10 -57 -19 -51 -6 3 -10 -1 -10 -9 0 -8 5

-18 11 -22 8 -4 7 -9 -2 -14 -13 -8 -17 -22 -23 -73 -2 -15 -9 -34 -16 -43 -8

-8 -9 -14 -4 -12 5 2 10 -1 12 -7 1 -5 -4 -10 -10 -10 -19 0 -29 -18 -15 -27

13 -8 17 -78 5 -78 -5 0 -8 -9 -8 -21 0 -11 4 -18 9 -15 5 4 7 -3 4 -14 -3

-11 -9 -20 -14 -20 -5 0 -4 -8 2 -19 10 -15 8 -22 -11 -41 -15 -15 -19 -25

-12 -28 7 -2 9 -9 5 -15 -9 -14 -10 -19 -12 -49 -1 -19 -3 -20 -11 -8 -9 14

-12 7 -9 -17 0 -3 -6 -10 -15 -15 -9 -5 -14 -14 -10 -20 4 -6 10 -5 15 3 7 11

9 11 9 1 0 -7 -11 -18 -25 -24 -22 -10 -24 -13 -10 -21 15 -8 15 -11 -2 -29

-17 -19 -17 -20 1 -34 10 -7 24 -10 30 -7 6 4 5 -1 -3 -10 -7 -9 -18 -14 -24

-10 -6 4 -8 -2 -5 -14 3 -12 2 -27 -3 -34 -7 -11 -9 -10 -9 4 0 14 -4 16 -19

8 -10 -6 -21 -7 -25 -3 -4 3 -4 -1 0 -11 3 -9 2 -23 -4 -30 -12 -15 3 -61 18

-52 5 3 10 1 10 -5 0 -7 -3 -10 -7 -8 -5 2 -21 10 -38 18 -16 8 -33 19 -36 23

-4 5 -10 4 -14 -3 -4 -6 -2 -17 4 -23 16 -16 14 -44 -3 -50 -10 -4 -13 -1 -10

8 9 21 -4 34 -26 28 -15 -4 -19 -11 -14 -25 4 -13 2 -18 -4 -14 -6 3 -8 -1 -5

-12 2 -10 -3 -24 -11 -31 -14 -12 -16 -10 -17 10 -1 19 -3 17 -11 -10 -7 -26

-12 -31 -18 -21 -6 9 -4 17 3 22 9 6 9 8 -1 8 -8 0 -16 -9 -19 -20 -3 -11 -9

-18 -13 -15 -16 10 -20 -13 -5 -25 19 -16 20 -34 1 -27 -18 7 -30 -23 -15 -37

9 -8 10 -8 5 2 -4 6 -3 12 2 12 6 0 13 -7 16 -16 6 -15 10 -14 31 6 14 13 25

19 25 14 0 -10 -37 -36 -44 -32 -2 2 -13 -6 -25 -16 -12 -11 -21 -14 -21 -8 0

6 6 13 13 15 6 3 7 6 1 6 -5 1 -19 -6 -30 -14 -11 -8 -14 -15 -6 -15 14 0 17

-30 2 -30 -5 0 -10 5 -10 11 0 5 -5 7 -10 4 -6 -4 -8 -10 -5 -15 3 -5 -4 -14

-15 -20 -19 -10 -20 -9 -14 14 8 34 -3 50 -23 31 -8 -9 -16 -23 -18 -33 -1 -9

-7 -16 -13 -15 -5 1 -9 -5 -8 -14 2 -23 -21 -28 -27 -6 -3 10 -4 0 -1 -22 l4

-40 -15 30 c-8 17 -14 25 -15 18 0 -6 -7 -19 -16 -27 -8 -9 -10 -16 -4 -16 7

0 8 -6 2 -17 -5 -10 -7 -24 -5 -30 3 -7 -3 -13 -12 -13 -10 0 -13 -5 -9 -12 5

-8 2 -9 -9 -5 -14 5 -15 3 -4 -13 6 -11 13 -16 15 -10 2 6 8 7 14 4 5 -3 12 3

15 14 5 20 25 24 40 7 4 -4 3 -6 -2 -2 -6 3 -15 -10 -21 -28 -6 -19 -7 -32 -2

-29 4 3 8 1 8 -5 0 -5 -5 -13 -11 -16 -6 -4 -8 -13 -5 -21 3 -9 -6 -21 -23

-32 -16 -10 -27 -24 -25 -34 1 -10 -4 -18 -12 -18 -18 0 -19 39 -1 46 14 5 15

60 1 72 -4 4 -4 -1 -1 -10 4 -10 3 -18 -2 -18 -5 0 -12 -12 -16 -27 -10 -37

-16 -102 -9 -85 5 10 9 9 19 -4 14 -20 0 -54 -21 -54 -19 0 -25 -29 -8 -38 9

-5 12 -15 8 -25 -3 -9 -10 -14 -15 -11 -5 3 -7 10 -4 15 4 5 2 9 -4 9 -5 0

-13 -5 -16 -10 -3 -6 -1 -10 4 -10 17 0 13 -31 -6 -52 -9 -10 -11 -18 -5 -18

6 0 12 6 15 13 2 6 7 9 11 5 4 -3 0 -19 -10 -35 -18 -28 -18 -28 2 -10 11 9

27 17 35 17 11 0 11 2 1 8 -15 10 -25 52 -11 52 5 0 17 16 26 36 16 33 18 34

25 13 5 -12 6 -24 3 -27 -3 -3 -5 0 -5 7 0 7 -5 9 -10 6 -17 -11 -12 -35 7

-28 11 4 14 3 9 -5 -4 -7 -14 -12 -23 -12 -12 0 -13 -3 -4 -14 6 -7 9 -22 5

-32 -5 -16 -4 -17 6 -4 9 13 11 12 8 -5 -4 -21 -25 -27 -45 -12 -10 7 -13 3

-13 -15 0 -13 -11 -34 -24 -45 -20 -17 -23 -28 -20 -66 4 -42 1 -49 -33 -83

-21 -21 -27 -29 -14 -18 14 10 21 13 16 5 -4 -8 -3 -16 4 -20 17 -11 -5 -65

-23 -58 -12 5 -13 0 -5 -21 9 -28 8 -57 -4 -68 -9 -10 58 -74 79 -76 88 -7

131 3 197 46 53 35 75 44 107 42 38 -1 54 8 28 16 -7 3 -9 11 -4 24 6 12 10

15 13 7 3 -7 9 -13 14 -13 6 0 8 4 5 9 -9 14 46 63 58 51 14 -14 26 -12 26 5

0 9 6 12 16 8 10 -4 15 -1 14 8 -5 29 1 39 21 39 l21 0 -20 33 c-11 17 -23 42

-27 54 -10 36 20 18 40 -23 9 -18 26 -39 38 -46 12 -7 22 -22 22 -32 0 -27 23

-32 33 -7 7 20 7 20 57 -3 28 -13 79 -43 115 -68 54 -38 81 -49 160 -66 178

-39 432 -49 508 -21 l22 9 -1 1797 c-1 989 -4 1788 -6 1777 -6 -31 -40 -37

-58 -11 -13 18 -13 24 -1 42 15 21 19 21 49 10 16 -7 17 5 17 170 0 169 -1

177 -18 163 -9 -9 -28 -14 -40 -12 -27 5 -68 31 -65 42 1 4 0 17 -4 30 -7 29

24 88 51 97 26 9 26 9 54 0 l22 -6 0 939 0 939 -72 7 c-40 3 -368 22 -728 41

-907 48 -988 54 -1021 70 -58 30 -84 98 -57 148 31 59 66 70 218 68 125 -1

929 -32 1325 -51 116 -5 238 -10 273 -10 l62 0 0 655 0 655 -1521 0 -1521 0 5

-207z m-438 -503 c-3 -5 0 -7 8 -4 8 3 18 1 22 -5 3 -6 -1 -11 -9 -11 -9 0

-25 -9 -37 -21 -12 -12 -27 -18 -39 -14 -10 3 -21 2 -24 -3 -3 -5 10 -8 29 -7

19 0 35 -3 35 -7 0 -4 11 -3 25 2 16 6 25 6 25 0 0 -6 -8 -10 -18 -10 -10 0

-24 -6 -31 -12 -8 -7 -11 -8 -8 -2 4 8 -5 11 -28 10 -35 -1 -50 -15 -17 -17

14 0 14 -2 -3 -9 -17 -7 -14 -9 15 -10 19 -2 49 -6 65 -11 20 -5 0 -6 -56 -4

-48 2 -90 1 -94 -3 -4 -4 -25 -8 -48 -10 -65 -4 -76 -6 -72 -13 3 -3 -2 -15

-11 -25 -14 -18 -14 -17 -8 16 8 44 13 52 25 44 5 -3 25 6 44 20 24 19 32 31

28 46 -5 19 -2 21 35 17 23 -2 39 -1 37 3 -7 11 64 43 81 36 8 -3 14 -1 14 4

0 6 5 10 11 10 5 0 7 -4 4 -10z m-259 -650 c8 0 14 -4 14 -10 0 -5 -5 -10 -11

-10 -5 0 -8 -4 -4 -10 3 -5 13 -6 22 -3 12 5 14 3 8 -8 -6 -11 -5 -12 6 -1 18

17 50 15 78 -5 14 -9 21 -11 17 -5 -4 7 -3 12 2 12 6 0 12 -7 16 -15 3 -8 1

-15 -4 -15 -6 0 -10 -4 -10 -9 0 -4 12 -6 28 -3 23 5 25 3 14 -10 -10 -13 -8

-17 18 -28 16 -7 39 -21 51 -31 14 -12 30 -17 42 -13 12 4 17 2 13 -4 -3 -6 8

-13 26 -18 18 -3 56 -18 84 -31 28 -13 55 -23 60 -22 5 0 19 -2 32 -6 17 -6

20 -11 12 -20 -12 -14 6 -25 41 -25 11 0 18 -4 14 -9 -3 -5 -1 -12 5 -16 5 -3

10 -1 10 5 0 6 14 1 31 -11 23 -16 28 -24 17 -30 -10 -7 -10 -9 2 -10 8 -1 18

-1 23 0 4 0 7 -5 7 -12 0 -7 15 -21 34 -31 21 -11 32 -24 29 -32 -3 -8 0 -14

6 -14 6 0 11 -7 11 -15 0 -18 16 -20 24 -2 3 6 3 0 0 -15 -4 -17 -2 -28 5 -28

6 0 11 -7 11 -15 0 -8 7 -15 15 -15 8 0 15 -7 15 -16 0 -8 5 -12 10 -9 6 3 10

-1 10 -9 0 -9 -5 -16 -11 -16 -8 0 -7 -6 2 -17 8 -9 14 -23 14 -32 1 -9 7 -27

14 -40 10 -18 10 -25 0 -35 -9 -8 -10 -8 -4 2 6 11 3 11 -13 1 -12 -7 -20 -15

-20 -18 2 -18 -3 -28 -14 -28 -7 -1 -29 -4 -48 -7 -19 -3 -54 -8 -76 -10 -62

-5 -116 -25 -146 -53 -14 -14 -28 -23 -30 -21 -4 3 -90 -33 -98 -42 -9 -10

-63 -31 -67 -26 -3 3 -22 -5 -42 -18 -20 -13 -56 -32 -81 -44 -25 -11 -67 -35

-95 -54 -43 -28 -50 -38 -53 -70 -3 -37 32 -128 49 -128 5 0 9 -7 9 -15 0 -8

5 -15 10 -15 6 0 9 -13 8 -30 -1 -16 -5 -30 -8 -30 -3 0 -5 -24 -5 -54 -1 -50

1 -54 18 -44 14 7 17 7 13 -1 -4 -6 -5 -11 -2 -11 2 0 12 -3 22 -7 12 -5 15

-3 9 6 -6 10 -3 11 13 2 21 -11 33 2 37 41 1 10 8 25 15 33 11 14 10 17 -8 22

-19 5 -20 7 -7 27 12 18 13 28 3 54 -7 18 -16 32 -21 32 -4 0 -5 -5 -1 -12 4

-7 3 -8 -5 -4 -9 6 -9 11 0 22 6 7 9 20 6 28 -4 10 -1 13 8 10 8 -3 11 -12 9

-19 -3 -7 1 -16 8 -21 7 -4 10 -4 6 0 -7 8 21 46 34 46 5 0 22 12 38 27 17 15

37 28 45 29 7 1 29 14 48 28 19 14 39 26 44 26 6 0 18 11 27 25 16 24 44 37

30 13 -4 -7 7 -2 24 11 18 12 32 19 32 15 0 -4 8 0 18 9 15 14 58 25 112 29 8

0 20 5 27 10 7 5 14 5 17 -1 3 -5 15 -7 26 -4 14 4 20 0 20 -11 0 -10 -5 -14

-11 -11 -6 4 -20 -3 -31 -15 -15 -15 -23 -19 -31 -11 -14 14 -27 14 -27 1 0

-5 3 -9 8 -7 4 1 8 -2 9 -7 1 -5 7 -13 15 -17 10 -7 10 -9 -2 -10 -8 -1 -18

-1 -22 0 -5 0 -8 -3 -8 -8 0 -10 -23 -20 -60 -28 -13 -2 -27 -7 -30 -11 -3 -4

-12 -8 -20 -8 -26 0 -110 -28 -110 -37 0 -4 -4 -5 -10 -2 -5 3 -10 1 -10 -5 0

-7 -6 -10 -12 -8 -16 6 -106 -84 -100 -100 2 -7 -1 -12 -6 -12 -6 0 -21 -14

-33 -32 -13 -17 -18 -28 -11 -24 7 4 12 3 12 -2 0 -21 36 -5 55 24 11 17 27

38 36 47 15 15 18 14 39 -9 13 -13 19 -24 13 -24 -6 0 -16 7 -23 15 -18 22

-22 13 -10 -20 9 -23 7 -32 -13 -59 -13 -17 -29 -45 -35 -63 -10 -29 -9 -32

11 -31 56 0 64 6 60 44 -2 33 3 42 44 81 26 23 50 43 54 43 5 0 16 -16 25 -35

9 -20 33 -49 53 -66 35 -29 49 -31 95 -13 9 3 16 1 16 -5 0 -6 -10 -11 -22

-11 -22 -1 -21 -2 5 -16 15 -8 27 -21 27 -29 0 -8 6 -15 13 -15 19 0 109 55

141 86 16 16 26 23 22 17 -4 -7 -2 -13 3 -13 6 0 11 7 11 17 0 9 3 14 6 10 10

-10 32 17 27 33 -3 11 0 10 10 -3 14 -17 15 -15 15 18 0 19 6 42 12 50 7 8 9

15 5 15 -4 0 -2 7 5 15 7 9 20 13 28 10 10 -3 12 0 8 10 -5 14 4 19 31 16 6

-1 15 8 18 20 6 17 9 19 16 8 7 -11 9 -10 9 4 0 17 20 19 32 3 4 -6 12 -5 21

3 12 9 17 9 23 0 4 -8 3 -9 -4 -5 -7 4 -12 2 -12 -3 0 -6 4 -11 10 -11 5 0 8

-6 6 -12 -1 -7 -1 -10 1 -5 11 19 33 4 38 -27 4 -21 15 -38 28 -44 12 -6 17

-11 10 -11 -8 -1 -10 -8 -6 -18 8 -22 33 -42 48 -39 5 2 7 1 3 -1 -4 -2 -4

-11 -1 -20 5 -12 3 -14 -8 -8 -12 8 -12 6 0 -8 7 -9 10 -17 6 -17 -4 0 -2 -7

5 -15 11 -13 10 -14 -4 -9 -9 3 -16 1 -16 -5 0 -6 4 -11 10 -11 6 0 6 -10 -1

-27 -7 -18 -6 -30 1 -37 8 -8 11 -7 8 3 -2 7 4 16 12 18 13 4 13 3 0 -6 -8 -6

-11 -11 -7 -11 4 0 3 -9 -3 -20 -6 -11 -7 -20 -2 -20 5 0 9 -6 9 -14 0 -8 -7

-12 -16 -9 -13 4 -13 2 1 -10 13 -11 15 -16 5 -26 -16 -16 -20 -94 -4 -84 7 4

6 0 -2 -10 -7 -9 -10 -17 -5 -17 5 0 9 -18 9 -39 0 -22 -3 -37 -7 -34 -5 2 -8

2 -8 -1 0 -2 -3 -12 -7 -22 -5 -13 -3 -15 8 -10 8 4 6 1 -4 -7 -18 -15 -17

-16 4 -22 14 -5 18 -10 10 -15 -7 -4 -13 -21 -13 -39 -1 -17 -5 -34 -10 -37

-12 -7 -10 -62 2 -69 8 -5 8 -11 1 -19 -6 -7 -8 -15 -5 -18 3 -3 1 -9 -5 -13

-6 -3 -11 2 -12 12 0 16 -1 16 -9 -2 -4 -11 -4 -24 1 -29 12 -14 11 -39 -1

-31 -6 4 -2 -16 9 -44 12 -32 15 -49 7 -48 -6 1 -10 -8 -8 -22 2 -13 -2 -28

-10 -33 -10 -7 -10 -11 -1 -15 10 -3 9 -8 -2 -20 -13 -13 -13 -16 0 -29 18

-18 18 -21 3 -30 -7 -4 -8 -3 -4 4 4 7 2 12 -3 12 -6 0 -11 -7 -11 -16 0 -8

-4 -13 -8 -10 -4 3 -7 -8 -6 -25 1 -16 -2 -32 -8 -35 -5 -3 -1 -12 9 -20 13

-11 14 -14 3 -12 -8 2 -14 -3 -12 -9 1 -8 -8 -13 -20 -13 -17 0 -19 -3 -10 -9

11 -7 10 -16 -7 -47 -21 -39 -29 -72 -11 -44 6 9 10 10 10 3 0 -6 -5 -15 -11

-18 -6 -4 -8 -14 -5 -22 3 -8 2 -12 -2 -10 -4 3 -16 -7 -27 -22 -15 -20 -15

-23 -2 -12 10 8 17 9 17 3 0 -6 -9 -16 -20 -22 -11 -6 -17 -16 -14 -22 5 -7 2

-9 -8 -6 -12 5 -15 0 -13 -24 2 -18 -3 -32 -11 -35 -8 -3 -12 -9 -9 -13 3 -5

1 -11 -4 -15 -5 -3 -8 -14 -6 -24 2 -10 -3 -18 -11 -18 -10 0 -11 4 -3 14 14

16 0 17 -22 0 -14 -10 -14 -14 -3 -25 8 -7 16 -12 19 -12 3 0 4 -3 3 -7 -2 -4

-12 -6 -22 -4 -14 2 -17 -2 -13 -14 4 -9 3 -13 -2 -10 -5 3 -13 0 -17 -6 -4

-8 -3 -9 4 -5 7 4 12 3 12 -3 0 -6 8 -7 17 -4 11 4 4 -7 -15 -28 -17 -18 -32

-42 -32 -51 0 -10 -4 -18 -10 -18 -5 0 -7 -7 -4 -15 5 -13 2 -14 -18 -6 -31

12 -62 -3 -38 -18 9 -7 19 -6 28 1 17 15 13 -10 -6 -30 -7 -8 -10 -18 -7 -23

4 -5 0 -9 -8 -9 -8 0 -20 -7 -27 -15 -7 -8 -16 -12 -21 -9 -5 3 -9 -2 -9 -11

0 -9 -5 -15 -12 -13 -6 2 -20 -3 -29 -11 -38 -35 -51 -43 -56 -37 -3 3 -27 -6

-54 -19 -41 -21 -58 -24 -117 -20 -48 4 -80 1 -104 -9 -79 -34 -182 9 -259

106 -91 116 -237 256 -342 327 -121 82 -230 220 -242 306 -2 11 -8 38 -13 60

-12 43 -23 118 -27 176 -1 20 -5 41 -9 47 -8 13 5 207 14 207 2 0 10 55 12 83

1 6 5 12 10 12 4 0 7 3 7 8 -7 42 1 54 107 152 l27 25 -24 5 c-23 6 -23 6 6

26 17 11 51 30 78 43 50 24 57 42 32 75 -8 11 -13 27 -10 37 4 10 -8 29 -35

53 -46 42 -50 49 -15 36 19 -7 23 -6 18 5 -3 8 -11 15 -19 15 -8 0 -14 6 -14

14 0 8 -7 16 -15 20 -8 3 -12 12 -9 21 4 9 -10 37 -35 70 -32 42 -50 57 -82

65 -22 6 -48 10 -57 9 -21 -4 -92 22 -92 33 0 4 -6 8 -13 8 -14 0 -17 12 -18

60 -1 14 -6 28 -12 32 -8 5 -8 8 -1 8 7 0 8 17 4 48 -5 39 -5 247 0 247 1 0 4

32 6 70 3 39 12 94 21 123 9 30 16 60 16 68 0 8 4 14 9 14 5 0 6 5 3 10 -3 6

-2 10 4 10 6 0 14 12 17 28 4 15 14 37 22 50 8 12 11 22 6 22 -4 0 1 8 12 18

10 10 30 35 44 55 14 20 30 37 36 37 6 0 23 23 38 50 15 28 33 50 39 49 26 -3

38 2 31 12 -7 12 45 71 56 64 4 -2 12 7 18 20 7 14 17 25 23 25 8 0 8 4 1 13

-7 8 -6 18 4 31 8 11 14 15 14 9 0 -6 11 -10 25 -8 14 1 25 -2 25 -8 0 -6 3

-7 7 -4 3 4 11 -1 18 -10 17 -22 35 -8 31 25 -2 15 -1 21 1 15 2 -7 11 -13 19

-13z m2669 -1135 c38 -4 75 -11 81 -16 7 -6 15 -6 18 -1 9 15 56 1 56 -15 0

-12 3 -13 14 -4 10 9 22 4 50 -18 36 -29 36 -30 14 -37 -32 -11 -62 -11 -70 0

-4 6 -12 5 -21 -2 -8 -7 -41 -12 -73 -11 -32 0 -111 -2 -175 -4 -75 -3 -121 0

-130 7 -20 15 -61 95 -54 106 5 9 164 6 290 -5z m425 -739 c0 18 31 -22 40

-52 14 -42 8 -72 -20 -101 -16 -18 -29 -22 -62 -19 -49 5 -74 28 -83 76 -11

60 51 119 103 99 12 -5 22 -6 22 -3z m433 -7 c28 -13 48 -75 34 -106 -5 -11

-25 -28 -44 -37 -47 -22 -98 -6 -113 37 -15 43 -13 52 16 86 28 33 63 40 107

20z m-651 -210 c49 -12 64 -53 44 -121 -6 -22 -14 -28 -36 -28 -16 0 -31 6

-33 13 -3 7 -6 5 -6 -5 -1 -26 -28 -11 -39 21 -5 15 -7 49 -5 77 6 56 11 59

75 43z m428 -10 c51 -14 54 -111 4 -144 -33 -22 -70 -10 -99 32 -19 29 -22 40

-14 61 21 55 48 67 109 51z m-190 -251 c25 -27 26 -69 1 -99 -26 -33 -70 -33

-98 0 -34 38 -34 74 -1 103 29 25 73 23 98 -4z m423 -15 l18 -32 -36 -36 c-31

-32 -38 -35 -53 -23 -48 37 -55 79 -19 109 32 27 67 20 90 -18z m-212 -235

c14 -26 -15 -78 -44 -78 -23 0 -64 37 -61 55 10 57 47 84 77 56 11 -8 23 -24

28 -33z m-3591 -145 c0 -4 -12 -20 -27 -35 -24 -25 -25 -28 -7 -28 10 0 25 9

32 20 7 11 23 20 37 20 19 0 29 -9 45 -42 11 -23 20 -58 20 -77 0 -20 7 -54

15 -76 15 -39 16 -40 12 -7 -3 24 1 36 15 43 14 8 20 6 25 -8 4 -10 22 -40 40

-67 18 -27 46 -76 61 -110 47 -100 53 -112 47 -91 l-5 20 15 -20 c10 -12 14

-29 10 -44 -5 -18 -3 -22 9 -18 8 3 17 -1 21 -11 4 -12 8 -13 14 -4 14 23 45

-65 43 -121 -1 -15 3 -25 7 -23 5 3 9 -5 9 -19 0 -14 -4 -22 -9 -19 -26 16 3

-48 38 -84 7 -7 14 -18 14 -23 1 -5 2 -13 3 -18 0 -5 4 -13 9 -17 4 -4 7 -12

7 -18 0 -6 -9 0 -20 14 -12 15 -20 20 -20 11 0 -8 8 -24 17 -35 10 -12 11 -15

3 -8 -24 21 -38 14 -34 -18 3 -22 0 -28 -11 -24 -8 4 -15 12 -15 20 0 8 -5 14

-11 14 -5 0 -7 -5 -3 -11 4 -7 -3 -6 -17 2 -13 7 -27 12 -31 11 -5 -1 -8 3 -8

9 0 6 9 8 22 3 20 -6 21 -5 9 9 -7 9 -16 15 -20 12 -4 -2 -27 8 -52 22 -24 14

-59 28 -78 30 -19 3 -41 11 -48 19 -16 15 -44 24 -89 28 -16 1 -36 6 -44 11

-25 16 -40 14 -41 -3 0 -13 -3 -11 -9 4 -11 29 -26 37 -69 39 -35 2 -115 26

-151 45 -22 12 -36 53 -35 103 0 20 -4 37 -10 37 -5 0 -15 17 -22 37 -10 32

-9 41 4 55 10 11 13 24 8 35 -15 35 -12 108 7 143 10 19 14 38 10 42 -4 4 -6

24 -4 44 3 25 8 34 18 30 10 -4 14 4 14 31 0 28 3 33 13 24 17 -14 27 -4 27

26 0 14 4 21 10 18 6 -3 10 -15 10 -25 0 -11 11 -27 25 -36 28 -19 32 -36 10

-54 -8 -7 -15 -23 -15 -36 0 -13 -5 -24 -10 -24 -6 0 -8 -11 -4 -25 3 -14 -1

-37 -10 -56 -18 -35 -22 -65 -5 -36 6 9 14 15 20 12 10 -7 30 35 22 48 -2 4 3

10 11 13 9 3 16 12 16 19 0 7 6 15 12 17 10 4 10 10 0 32 -10 21 -10 32 -1 42

6 8 8 14 4 14 -4 0 2 16 14 36 12 19 16 32 11 29 -16 -10 -24 24 -12 50 10 21

26 29 70 34 6 0 12 -2 12 -6z m3625 -543 c91 -67 145 -132 200 -240 18 -36 66

-180 59 -180 -2 0 -28 50 -59 111 -63 128 -90 165 -194 272 -42 42 -72 77 -68

77 4 0 32 -18 62 -40z m-3598 -420 c8 0 31 -13 50 -30 18 -16 38 -30 43 -30 5

0 12 -9 15 -21 4 -11 26 -39 48 -62 23 -22 34 -38 25 -34 -31 11 -19 -2 15

-17 17 -7 46 -27 62 -43 17 -16 57 -51 90 -78 33 -26 72 -60 88 -74 15 -14 30

-25 34 -23 4 2 10 -5 14 -15 3 -10 11 -19 18 -19 6 -1 16 -2 22 -3 6 0 9 -8 5

-16 -3 -9 0 -15 10 -15 8 0 13 -4 10 -9 -3 -5 6 -21 20 -37 25 -26 25 -28 8

-34 -17 -6 -17 -7 1 -18 18 -10 19 -11 2 -12 -10 0 -15 -5 -12 -10 4 -6 10 -8

15 -5 4 3 7 -3 5 -12 -1 -10 2 -24 8 -30 6 -9 6 -13 -1 -13 -6 0 -13 4 -16 9

-5 7 -62 23 -69 19 -1 -1 -18 13 -37 30 -19 18 -40 32 -47 32 -6 0 -18 8 -25

18 -14 18 -55 31 -43 13 3 -7 -2 -11 -14 -11 -11 0 -23 5 -26 10 -3 6 1 10 9

10 25 0 19 14 -11 28 -48 21 -148 89 -148 100 0 6 -4 14 -9 19 -5 5 -6 3 -2

-4 10 -18 4 -16 -45 12 -47 26 -64 31 -54 15 3 -5 1 -10 -5 -10 -7 0 -9 8 -5

19 3 11 1 22 -5 26 -5 3 -10 0 -10 -7 -1 -7 -6 -3 -13 10 -7 12 -16 19 -20 16

-4 -4 -7 0 -7 10 0 9 -8 20 -17 23 -10 4 -45 34 -78 67 -33 33 -66 59 -74 57

-9 -2 -12 3 -8 13 3 8 1 16 -4 18 -6 2 -7 11 -3 21 5 13 10 15 19 7 9 -8 15

-8 20 0 3 5 16 10 27 10 18 0 14 6 -20 32 -23 18 -42 36 -42 40 0 11 7 10 22

-5 7 -7 31 -20 53 -29 32 -13 40 -21 37 -40 -2 -18 0 -20 8 -8 15 24 49 19 77

-11 15 -15 31 -25 36 -22 6 3 7 1 3 -5 -4 -6 6 -18 23 -27 35 -17 86 -21 76

-4 -4 6 -13 8 -21 5 -8 -3 -14 1 -14 8 0 12 -88 71 -125 85 -15 5 -85 74 -85

83 0 5 16 6 35 2 l35 -6 2 58 2 59 3 -67 c3 -54 7 -68 20 -68z m203 -104 c7

-9 18 -16 24 -16 6 0 -2 11 -19 25 -24 19 -26 24 -12 25 19 0 47 -22 47 -37 0

-4 36 -32 79 -61 44 -28 103 -74 133 -100 29 -27 62 -52 73 -56 14 -5 16 -9 7

-15 -9 -5 -5 -14 13 -31 25 -24 24 -50 -2 -29 -11 10 -16 10 -23 0 -6 -10 -9

-10 -15 -1 -4 6 -14 9 -22 6 -8 -3 -11 -2 -8 3 3 5 -5 11 -17 13 -13 2 -23 8

-23 15 0 14 -48 53 -66 53 -7 0 -9 3 -6 7 4 3 1 13 -6 22 -9 12 -5 11 18 -3

27 -17 28 -17 13 -1 -9 10 -27 18 -40 19 -13 1 -22 7 -20 14 1 7 -3 12 -9 12

-13 0 -84 54 -121 92 -14 16 -30 28 -36 28 -12 0 -24 29 -16 41 6 11 35 -3 54

-25z m3330 -1812 c0 -10 6 -14 15 -10 11 4 15 -2 15 -20 0 -15 4 -23 11 -19 6

4 8 13 5 20 -7 19 13 24 46 13 29 -10 30 -22 7 -85 -6 -16 -4 -23 9 -26 9 -2

-2 -8 -25 -12 -28 -5 -43 -13 -43 -23 0 -12 3 -12 15 -2 9 8 15 8 15 2 0 -9

-38 -28 -47 -24 -2 1 -21 -5 -43 -13 -36 -13 -40 -12 -40 2 0 12 -3 13 -13 4

-8 -6 -16 -8 -20 -5 -9 9 4 35 14 28 5 -3 6 2 3 10 -5 13 -9 12 -27 -4 -25

-24 -41 -26 -33 -5 3 8 0 15 -6 15 -6 0 -8 3 -5 6 4 4 13 2 20 -4 16 -14 28

-6 20 14 -3 8 0 14 6 14 6 0 11 7 11 15 0 9 7 18 15 21 8 4 12 10 9 15 -7 12

15 51 26 44 5 -3 6 -13 3 -22 -4 -11 -2 -14 8 -11 9 3 14 18 13 41 -1 21 2 37

7 37 5 0 9 -7 9 -16z m130 -211 c-17 -4 -43 -60 -30 -65 4 -2 -4 -14 -17 -28

-21 -22 -23 -22 -18 -5 6 19 6 19 -8 2 -11 -14 -16 -15 -21 -5 -5 10 -7 10

-12 1 -3 -7 -10 -13 -15 -13 -6 0 -7 5 -4 10 11 17 -7 11 -22 -7 -13 -17 -13

-16 -7 6 4 15 2 21 -4 17 -14 -9 -27 13 -15 25 6 6 19 11 31 12 11 0 18 5 15

10 -3 5 3 7 13 6 11 -2 30 3 44 11 14 8 28 13 33 12 4 -1 6 1 6 6 -3 17 2 20

24 14 15 -4 17 -7 7 -9z"/>

<path d="M2275 5450 c3 -5 -5 -20 -19 -33 -26 -24 -29 -62 -5 -62 8 0 28 -10

43 -23 16 -12 33 -22 38 -22 6 0 8 -7 4 -15 -4 -11 1 -15 18 -15 13 0 26 -7

30 -15 3 -8 12 -15 21 -15 8 0 15 -2 15 -4 0 -2 7 -20 16 -41 8 -20 11 -34 5

-31 -5 4 -13 1 -16 -4 -5 -7 -11 -5 -19 6 -10 13 -15 14 -20 5 -10 -15 -4 -22

23 -24 11 -1 23 -7 26 -15 2 -7 1 -11 -3 -8 -4 2 -14 1 -22 -5 -12 -7 -11 -9

5 -10 11 0 14 -3 7 -6 -10 -4 -10 -8 0 -21 10 -12 10 -16 1 -19 -7 -3 -13 -11

-13 -18 0 -16 -31 -28 -51 -20 -8 3 -19 15 -24 28 -23 51 -161 52 -184 0 -16

-36 -8 -42 55 -38 58 4 84 -8 84 -38 0 -18 42 -57 62 -57 9 0 25 10 35 23 10

12 37 36 60 52 46 32 55 49 55 100 0 48 -42 174 -75 223 -31 46 -113 106 -130

95 -6 -4 -8 0 -4 10 3 9 0 18 -9 21 -9 3 -12 1 -9 -4z"/>

<path d="M2370 4750 c-8 -5 -25 -10 -36 -10 -30 0 -65 -30 -67 -57 -1 -13 -5

-23 -9 -23 -4 0 -8 -8 -8 -17 0 -16 -1 -16 -12 0 -12 16 -63 34 -54 18 8 -13

-8 -29 -37 -36 -17 -5 -27 -3 -27 4 0 15 -16 14 -32 -2 -29 -28 -64 -47 -87

-47 -38 0 -12 -17 36 -23 24 -3 46 0 53 7 7 7 52 10 133 9 103 -2 130 1 174

19 29 11 60 18 68 14 8 -3 15 -2 15 2 0 11 67 14 74 4 3 -5 2 -18 -1 -30 -4

-18 -8 -20 -19 -11 -11 9 -14 6 -14 -19 0 -17 -5 -34 -12 -38 -6 -4 -8 -3 -4

4 3 6 2 13 -3 17 -14 8 -32 -30 -24 -51 4 -12 3 -15 -5 -10 -7 4 -12 14 -12

22 0 8 -4 14 -9 14 -4 0 -6 -11 -4 -24 8 -40 -44 -68 -136 -74 -83 -5 -74 -20

14 -21 110 -2 229 36 318 100 22 16 45 29 52 29 15 0 78 88 80 111 1 10 13 29

27 42 l25 24 -26 10 c-14 5 -79 11 -145 12 -70 1 -137 9 -164 17 -66 21 -105

26 -122 14z"/>

<path d="M1809 4148 c-6 -12 -5 -48 2 -48 13 0 49 -42 43 -51 -2 -4 0 -10 6

-14 5 -3 10 -1 10 6 0 7 2 10 5 7 3 -3 -1 -18 -10 -34 -19 -37 -7 -48 40 -35

32 9 38 8 42 -8 6 -22 46 -23 51 0 5 27 -178 198 -189 177z"/>

<path d="M352 7998 c-15 -15 -16 -68 -1 -105 6 -15 17 -64 25 -107 15 -89 22

-101 54 -91 22 7 22 10 15 112 -4 58 -9 112 -10 121 -2 10 -4 22 -4 28 -1 15

-40 54 -54 54 -7 0 -18 -5 -25 -12z"/>

<path d="M410 7420 c0 -5 6 -10 13 -10 8 0 7 -4 -3 -10 -12 -8 -13 -13 -3 -29

19 -31 7 -106 -23 -136 -13 -13 -24 -28 -24 -33 0 -4 -15 -13 -34 -20 -18 -7

-40 -20 -48 -30 -19 -21 -51 -318 -37 -343 6 -12 4 -19 -5 -22 -9 -4 -12 -17

-9 -41 2 -27 -1 -38 -13 -43 -13 -5 -13 -8 -2 -15 9 -7 7 -8 -8 -4 -15 5 -24

0 -34 -19 -10 -19 -19 -24 -34 -19 -16 5 -18 3 -10 -5 6 -7 34 -14 62 -16 28

-2 61 -10 74 -18 13 -8 75 -27 138 -41 63 -15 149 -35 190 -46 41 -10 103 -25

138 -33 l62 -14 0 65 c0 59 -2 64 -20 59 -11 -3 -20 -1 -20 5 0 5 -4 6 -10 3

-5 -3 -10 1 -10 9 0 9 -4 16 -10 16 -5 0 -10 -4 -10 -9 0 -5 -24 -9 -52 -8

-29 0 -81 -3 -116 -7 -36 -5 -62 -5 -60 0 2 5 0 9 -4 9 -4 0 -15 10 -23 23

-11 15 -26 22 -48 22 -21 0 -38 7 -47 19 -7 11 -17 18 -21 16 -8 -6 -39 39

-39 56 0 8 6 6 18 -4 16 -15 20 -15 46 3 16 10 36 16 45 13 9 -4 13 -2 8 2 -4

5 -1 18 6 29 15 24 40 158 36 196 -5 57 1 92 15 87 8 -3 22 3 31 13 16 18 55

24 55 8 0 -4 4 -7 9 -5 5 1 16 -6 24 -17 11 -15 19 -17 40 -10 15 5 26 11 25

14 -1 3 5 16 12 30 8 14 13 40 11 58 -1 22 3 32 11 31 32 -4 37 2 18 21 -20

20 -27 42 -12 38 4 -2 9 2 10 7 2 6 9 16 15 24 9 10 6 18 -12 32 -13 11 -31

19 -41 19 -10 0 -20 9 -23 19 -4 15 -12 18 -42 16 -20 -1 -40 -7 -44 -13 -9

-15 -81 -12 -107 5 -12 8 -21 22 -19 31 2 16 -11 32 -27 32 -5 0 -8 -4 -8 -10z"/>

<path d="M809 7307 c-6 -10 -17 -16 -25 -13 -13 5 -19 -5 -15 -26 0 -5 -5 -8

-13 -8 -7 0 -19 -6 -26 -14 -9 -12 -8 -17 8 -27 20 -12 20 -13 -2 -30 -18 -16

-19 -18 -3 -19 18 0 25 -20 6 -20 -5 0 -7 -4 -4 -10 3 -5 8 -20 10 -32 3 -13

13 -30 22 -38 14 -11 18 -29 18 -70 0 -30 5 -55 10 -55 6 0 9 13 7 29 -1 16 4

43 11 60 39 88 36 84 31 46 -4 -28 3 -19 33 43 22 46 42 75 47 70 5 -4 6 -3 3

4 -10 16 3 44 16 36 6 -3 7 -1 3 6 -4 6 -12 8 -18 5 -6 -4 -8 -1 -6 7 3 8 10

13 15 12 5 -1 10 12 11 28 2 26 -1 30 -20 29 -13 -1 -25 -1 -28 0 -3 1 -22 3

-43 4 -29 1 -41 -3 -48 -17z"/>

<path d="M398 6359 c-22 -12 -23 -52 -3 -83 23 -35 21 -88 -3 -128 -29 -47

-28 -58 12 -109 24 -29 32 -48 27 -58 -5 -9 -11 -32 -14 -52 -5 -33 -3 -37 16

-37 12 0 35 -4 51 -8 37 -9 49 10 30 47 -8 16 -14 35 -14 44 0 8 -4 15 -9 15

-7 0 -21 95 -27 194 -4 66 64 112 110 75 33 -26 42 -24 52 9 5 20 8 23 11 10

3 -10 13 -18 24 -18 25 0 23 0 61 -11 23 -6 34 -5 40 4 6 9 8 9 8 -1 0 -7 5

-10 10 -7 6 3 10 13 10 21 0 8 -4 12 -10 9 -5 -3 -10 -2 -10 3 0 5 -56 21

-125 36 -68 15 -145 34 -171 42 -55 16 -54 16 -76 3z"/>

<path d="M523 1530 c-40 -16 -47 -46 -49 -210 -2 -120 1 -165 13 -197 9 -24

18 -43 22 -44 3 0 15 -2 25 -4 41 -8 106 122 106 209 0 72 -37 195 -69 228

-20 20 -31 24 -48 18z"/>

<path d="M0 670 l0 -670 447 2 c423 3 448 4 451 21 3 13 -2 17 -14 15 -11 -2

-19 3 -19 12 -2 26 -17 50 -28 43 -5 -3 -7 -1 -4 4 4 6 -2 21 -13 33 -11 12

-17 26 -14 31 7 12 -21 51 -29 42 -4 -3 -7 7 -7 23 0 20 -3 25 -9 16 -7 -11

-10 -10 -15 3 -3 9 -3 22 1 27 3 7 1 8 -5 4 -7 -4 -12 -2 -12 4 0 6 -5 8 -12

4 -10 -6 -10 -4 0 8 10 13 10 17 -4 22 -9 3 -14 12 -11 19 3 10 -3 12 -23 9

-15 -2 -31 1 -34 7 -5 7 0 9 11 5 10 -3 7 1 -7 9 -14 9 -29 13 -34 9 -5 -3 -7

2 -3 11 3 9 1 17 -4 19 -11 4 -15 46 -23 230 -2 59 -7 112 -11 118 -4 6 -9 29

-11 52 -5 48 -24 90 -44 96 -8 3 -12 1 -8 -3 4 -5 3 -14 -3 -22 -6 -7 -8 -13

-4 -13 4 0 2 -7 -5 -15 -7 -8 -9 -15 -5 -15 4 0 3 -6 -3 -12 -8 -11 -21 -77

-27 -140 0 -9 -6 -22 -12 -30 -6 -7 -9 -21 -8 -31 2 -9 -1 -17 -6 -17 -17 0

-47 33 -42 47 3 7 -5 23 -18 34 -13 11 -24 26 -26 34 -2 8 -5 23 -6 33 -2 9

-13 18 -25 20 -14 2 -19 8 -15 18 3 8 -6 25 -21 39 -17 16 -24 30 -19 41 4 12

3 15 -5 10 -7 -4 -12 -1 -12 9 0 8 -7 18 -15 21 -12 5 -13 10 -4 20 11 14 10

15 -13 18 -7 1 -12 9 -10 18 1 8 -5 18 -13 22 -9 3 -13 10 -10 16 3 5 1 10 -5

10 -7 0 -9 7 -6 15 3 9 0 18 -8 21 -7 3 -26 35 -42 72 -15 37 -31 69 -35 72

-5 3 -15 21 -23 40 -8 19 -24 45 -36 58 -11 12 -16 22 -11 22 6 0 8 7 5 15 -4

8 -10 15 -15 15 -5 0 -9 -284 -9 -670z"/>

<path d="M2391 1077 c0 -15 -10 -45 -21 -66 -10 -21 -16 -41 -13 -45 4 -3 -1

-6 -9 -6 -9 0 -20 -12 -26 -27 -5 -16 -31 -86 -57 -158 -25 -71 -51 -141 -57

-155 -23 -55 -67 -204 -62 -212 3 -5 0 -15 -6 -23 -14 -17 -21 -78 -13 -123 5

-29 9 -33 29 -28 34 9 73 -35 42 -47 -7 -3 -3 -6 10 -6 24 -1 67 38 77 70 4

11 13 19 21 19 8 0 14 4 14 9 0 5 9 13 21 16 16 5 18 10 9 18 -8 9 -16 6 -30

-13 l-20 -25 4 30 c1 17 8 41 15 54 13 24 0 54 -13 32 -4 -6 -3 -11 2 -11 6 0

-3 -14 -19 -32 -17 -17 -28 -37 -25 -45 8 -19 -52 -53 -93 -53 l-33 0 5 42 c8

62 17 98 35 138 9 19 17 40 17 45 1 11 11 38 28 75 6 14 13 30 16 35 2 6 -6

-1 -19 -15 -12 -14 -8 -5 9 19 34 49 42 81 11 41 -15 -19 -12 -2 16 75 20 55

39 108 42 118 4 15 7 16 14 5 6 -9 7 -6 3 9 -3 13 -1 31 5 40 9 15 10 14 4 -7

-15 -56 8 -8 41 88 20 57 34 113 32 125 -4 18 -5 17 -6 -6z"/>

<path d="M4920 830 c0 -18 22 -52 62 -95 15 -16 33 -42 39 -57 6 -15 15 -25

20 -22 5 3 9 -1 10 -8 4 -116 20 -155 74 -186 19 -12 35 -19 35 -16 0 2 -11

27 -25 54 -14 27 -25 55 -25 61 0 6 -12 22 -27 36 -22 19 -24 22 -8 17 12 -3

15 -2 8 3 -6 4 -13 23 -16 41 -6 35 -19 59 -61 107 -14 17 -26 33 -26 37 0 4

-10 10 -22 14 -13 4 -26 12 -30 18 -5 7 -8 6 -8 -4z"/>

<path d="M5217 394 c-7 -7 4 -44 13 -44 4 0 14 -21 21 -47 15 -56 17 -74 10

-88 -2 -5 -6 -20 -7 -33 -4 -37 -32 -72 -63 -78 -16 -3 -50 -27 -77 -52 l-49

-47 84 -3 c85 -3 106 5 94 35 -3 7 0 13 6 13 6 0 11 5 11 11 0 6 -7 8 -16 5

-14 -5 -15 -4 -5 8 11 13 16 12 34 -8 16 -17 28 -21 42 -16 11 4 23 6 27 4 13

-8 21 38 8 46 -12 8 -22 45 -22 88 0 12 -4 22 -9 22 -5 0 -9 -5 -9 -11 0 -5

-4 -8 -10 -4 -5 3 -6 13 -3 22 5 12 3 14 -6 8 -10 -5 -11 -2 -6 14 3 11 8 33

11 48 3 15 7 30 10 35 3 4 -4 8 -14 8 -13 0 -22 9 -26 25 -6 24 -38 50 -49 39z"/>

<path d="M2721 251 c-12 -16 -21 -33 -21 -37 0 -4 -21 -34 -46 -67 -26 -32

-48 -66 -49 -75 -5 -36 -18 -61 -28 -55 -6 3 -7 1 -3 -5 4 -7 9 -12 11 -12 13

0 195 252 195 270 0 21 -40 8 -59 -19z"/>

</g>

</svg>

