<?xml version="1.0" standalone="no"?>

<!DOCTYPE svg PUBLIC "-//W3C//DTD SVG 20010904//EN"

 "http://www.w3.org/TR/2001/REC-SVG-20010904/DTD/svg10.dtd">

<svg version="1.0" xmlns="http://www.w3.org/2000/svg"

 width="113.385827" height="139.124896" viewBox="0 0 113.385827 139.124896"

 preserveAspectRatio="xMidYMid meet">

<metadata>

Created by potrace 1.14, written by Peter Selinger 2001-2017

</metadata>

<g transform="translate(60.082978,20.809088) scale(0.0095,-0.0095)"
fill="#000000" stroke="none">

<path d="M856 1955 c-12 -9 -40 -14 -73 -14 -35 1 -59 -4 -71 -14 -9 -8 -36

-20 -59 -26 -80 -22 -189 -160 -197 -251 -1 -14 -10 -42 -19 -63 -20 -43 -27

-228 -14 -339 8 -65 8 -68 -12 -68 -21 0 -21 -1 4 -40 14 -22 25 -50 25 -62 1

-45 18 5 25 72 9 94 22 125 61 155 42 32 53 58 57 131 4 65 21 86 97 123 85

41 137 53 196 43 28 -5 61 -5 73 -1 23 9 145 4 161 -6 6 -3 10 -14 10 -23 1

-19 44 -72 58 -72 6 0 23 -7 38 -15 16 -8 25 -15 21 -15 -5 0 -2 -6 5 -13 12

-12 14 -45 8 -129 0 -5 -7 -8 -15 -8 -8 0 -20 -9 -27 -20 -10 -16 -24 -20 -69

-20 -41 0 -63 -5 -80 -19 -31 -25 -22 -28 102 -34 60 -3 108 -11 128 -21 17

-9 34 -16 38 -16 12 0 11 54 -1 62 -8 5 -7 11 1 19 17 17 42 -44 54 -130 11

-74 17 -84 33 -57 6 10 22 32 34 47 17 20 20 29 10 29 -8 0 -19 -5 -25 -11

-18 -18 -21 3 -11 76 16 113 0 329 -28 392 -8 17 -14 42 -14 55 0 22 -39 91

-64 113 -6 6 -19 23 -29 38 -10 15 -30 33 -45 40 -15 6 -38 19 -51 29 -13 10

-34 18 -46 18 -12 0 -39 11 -59 25 -32 22 -44 24 -90 19 -35 -4 -56 -3 -60 5

-10 16 -57 13 -80 -4z"/>

<path d="M572 1263 c-42 -22 -58 -41 -45 -54 8 -8 19 -6 41 5 21 11 58 16 119

16 92 0 127 10 106 31 -17 17 -189 18 -221 2z"/>

<path d="M1238 543 c-10 -3 -18 -9 -18 -14 0 -6 -13 -15 -30 -20 -16 -6 -30

-17 -30 -24 0 -8 -8 -16 -17 -19 -10 -3 -36 -22 -58 -41 -23 -20 -66 -43 -100

-54 -57 -18 -58 -19 -23 -20 20 -1 60 4 88 11 39 9 56 9 70 0 15 -9 25 -4 65

36 26 25 51 57 56 70 5 13 13 20 19 17 6 -4 10 6 10 24 0 33 -6 39 -32 34z"/>

<path d="M1278 328 c-1 -13 -2 -92 -2 -175 l-1 -153 233 0 232 0 2 73 c1 39 2

97 2 127 l1 55 -50 5 c-27 3 -61 12 -74 19 -13 7 -56 19 -95 26 -39 7 -96 18

-126 24 -122 23 -120 23 -122 -1z"/>

<path d="M513 309 c-17 -18 -42 -33 -55 -35 -59 -5 -174 -37 -199 -55 -16 -11

-49 -29 -74 -40 l-45 -20 0 -79 0 -80 188 0 187 0 -3 50 c-2 28 0 56 5 63 21

27 34 96 31 160 l-3 68 -32 -32z"/>

</g>

</svg>

