<?xml version="1.0" standalone="no"?>

<!DOCTYPE svg PUBLIC "-//W3C//DTD SVG 20010904//EN"

 "http://www.w3.org/TR/2001/REC-SVG-20010904/DTD/svg10.dtd">

<svg version="1.0" xmlns="http://www.w3.org/2000/svg"

 width="113.385827" height="130.264981" viewBox="0 0 113.385827 130.264981"

 preserveAspectRatio="xMidYMid meet">

<metadata>

Created by potrace 1.14, written by Peter Selinger 2001-2017

</metadata>

<g transform="translate(-103.235051,141.510413) scale(0.071111,-0.071111)"

fill="#000000" stroke="none">

<path d="M1500 1967 c0 -96 112 -311 229 -439 l50 -55 -25 -24 c-39 -36 -71

-98 -84 -162 -15 -74 5 -146 59 -215 l39 -49 -41 -20 c-90 -44 -186 -133 -246

-227 -46 -73 -42 -85 40 -115 23 -8 90 -1 140 14 15 5 15 -2 -2 -72 -26 -107

-24 -150 6 -195 24 -35 24 -36 5 -53 -22 -20 -27 -60 -9 -70 6 -4 37 -7 68 -8

45 0 69 6 106 26 60 34 141 36 217 7 29 -11 73 -25 97 -31 33 -7 56 -23 95

-64 61 -65 101 -74 131 -29 14 22 15 33 5 71 -9 39 -9 48 6 64 9 10 24 42 34

71 16 49 20 53 56 62 21 5 41 10 43 12 2 2 -15 29 -39 60 -23 30 -40 57 -38

59 1 2 45 20 96 40 50 20 92 39 92 42 0 3 -27 35 -60 71 -33 36 -57 69 -53 73

5 4 40 20 80 36 l72 28 -31 48 c-23 35 -28 50 -20 60 12 14 5 58 -12 69 -6 4

-8 9 -6 11 6 5 175 80 270 120 73 32 74 33 83 77 5 25 28 135 53 244 24 110

42 201 40 203 -2 2 -28 -5 -57 -17 -30 -11 -55 -20 -57 -20 -1 0 2 10 9 21 17

32 -5 41 -86 34 -184 -17 -364 -84 -504 -188 -52 -38 -55 -39 -80 -24 -49 28

-136 48 -216 48 -45 0 -87 -2 -95 -5 -10 -3 -38 27 -85 91 -116 160 -309 343

-362 343 -7 0 -13 -10 -13 -23z m363 -330 c34 -44 61 -83 60 -87 -1 -4 46 -6

105 -6 116 1 177 -14 261 -62 36 -21 43 -23 38 -9 -8 22 59 72 168 126 86 42

243 96 252 88 7 -8 -12 -94 -32 -140 -13 -32 -27 -44 -88 -73 -84 -40 -203

-78 -223 -70 -20 8 -18 -8 8 -57 14 -28 23 -67 26 -118 4 -67 1 -84 -21 -132

-20 -44 -37 -63 -81 -93 -82 -54 -60 -54 33 0 44 25 84 46 89 46 5 0 15 6 21

13 12 16 71 21 71 6 0 -5 7 -9 15 -9 8 0 15 -4 15 -10 0 -5 7 -10 16 -10 10 0

14 -6 11 -15 -4 -8 -2 -17 2 -20 10 -6 -179 -202 -220 -229 -25 -16 -26 -19

-14 -44 37 -73 46 -281 16 -347 -21 -47 -73 -94 -104 -96 -59 -4 -120 6 -206

32 -74 23 -113 29 -184 29 -111 0 -156 13 -199 57 -31 32 -33 39 -32 96 1 36

21 138 49 246 25 101 44 185 42 188 -5 4 -34 -78 -62 -179 -14 -49 -20 -58

-48 -67 -47 -16 -127 -21 -127 -9 0 5 -6 8 -12 6 -7 -3 -18 1 -25 8 -18 18

-16 23 7 17 11 -3 20 0 20 6 0 6 -4 11 -8 11 -17 0 -8 36 19 76 16 23 52 62

80 88 51 46 160 116 180 116 5 0 23 -10 38 -21 16 -12 35 -19 43 -17 8 3 2 11

-17 20 -50 26 -106 88 -133 146 -44 96 -18 217 65 303 l35 37 -45 41 c-25 23

-69 76 -98 118 l-52 76 11 70 c7 38 15 74 19 80 8 13 125 -110 216 -226z

m1143 -4 c-4 -21 -24 -119 -45 -218 l-37 -180 -35 -18 c-77 -39 -301 -137

-314 -137 -8 0 -15 4 -15 9 0 14 -79 11 -88 -4 -4 -7 -16 -17 -28 -23 l-21

-11 20 40 c21 43 28 140 14 194 -7 29 -4 33 69 90 42 33 111 78 154 101 43 22

104 60 136 85 54 41 168 107 188 109 5 0 6 -17 2 -37z"/>

<path d="M1864 1420 c-26 -10 -54 -48 -54 -71 0 -9 9 -28 21 -43 41 -52 119

-20 119 49 0 53 -40 83 -86 65z"/>

<path d="M2232 1337 c-31 -33 -29 -80 4 -106 15 -12 35 -21 46 -21 27 0 68 45

68 75 0 32 -41 75 -73 75 -13 0 -33 -10 -45 -23z"/>

<path d="M1726 1281 c-25 -28 -31 -83 -12 -119 40 -77 96 -53 96 41 0 83 -43

124 -84 78z"/>

<path d="M1940 1230 c0 -5 9 -15 20 -22 15 -10 20 -24 20 -58 0 -57 16 -114

36 -130 25 -22 61 7 93 73 16 32 39 64 51 70 13 7 25 18 28 25 3 11 0 11 -15

2 -16 -10 -27 -9 -61 9 -27 14 -60 21 -97 21 -30 0 -55 5 -55 10 0 6 -4 10

-10 10 -5 0 -10 -4 -10 -10z"/>

<path d="M2334 1190 c-77 -31 -98 -170 -26 -170 55 0 102 57 102 124 0 48 -29

65 -76 46z"/>

</g>

</svg>

