<?xml version="1.0" standalone="no"?>

<!DOCTYPE svg PUBLIC "-//W3C//DTD SVG 20010904//EN"

 "http://www.w3.org/TR/2001/REC-SVG-20010904/DTD/svg10.dtd">

<svg version="1.0" xmlns="http://www.w3.org/2000/svg"

 width="113.385827" height="65.598512" viewBox="0 0 113.385827 65.598512"

 preserveAspectRatio="xMidYMid meet">

<metadata>

Created by potrace 1.14, written by Peter Selinger 2001-2017

</metadata>

<g transform="translate(60.082978,20.809088) scale(0.0095,-0.0095)"
fill="#000000" stroke="none">

<path d="M386 3598 c5 -7 25 -35 47 -62 21 -27 45 -63 54 -79 12 -23 17 -27

24 -16 7 11 9 9 9 -8 0 -12 10 -43 22 -70 12 -26 20 -52 19 -57 -1 -5 -3 -27

-5 -47 -2 -21 -8 -45 -15 -53 -7 -8 -12 -23 -12 -33 0 -37 0 -341 -1 -418 0

-44 3 -141 7 -215 8 -149 7 -198 -1 -250 -3 -19 -9 -100 -13 -180 l-8 -145 -3

120 c-2 121 -16 225 -19 143 -1 -27 -7 -40 -22 -49 -15 -8 -19 -8 -15 0 8 13

-1 13 -29 1 -18 -8 -18 -9 -2 -9 28 -1 9 -21 -19 -21 -16 0 -23 4 -18 11 3 6

-5 3 -19 -6 -15 -9 -31 -14 -37 -10 -5 3 -10 2 -10 -4 0 -5 -31 -14 -68 -21

-57 -9 -72 -9 -97 4 -30 16 -30 16 -5 16 25 1 25 1 5 18 -38 33 -65 81 -70

124 -3 24 -8 54 -12 68 -3 14 -8 61 -10 105 -6 130 -7 139 -23 152 -18 14 -14

19 25 28 23 5 26 4 15 -4 -8 -6 -10 -11 -5 -11 6 1 19 7 29 15 19 15 19 15 -5

17 -13 0 -30 1 -36 1 -7 -1 -10 3 -7 8 3 5 1 9 -4 9 -13 0 -9 28 12 78 12 27

24 42 36 42 23 0 34 16 19 26 -8 4 -9 3 -5 -4 4 -7 1 -12 -9 -12 -10 0 -13 5

-9 12 5 8 2 9 -9 5 -9 -3 -19 -2 -22 2 -3 5 2 12 11 15 13 5 14 9 5 20 -8 9

-10 51 -7 129 l5 116 -36 36 c-40 40 -40 48 3 36 30 -9 30 -8 29 33 0 22 -6

51 -13 62 -6 12 -8 24 -5 28 3 3 -1 6 -9 6 -9 0 -18 9 -21 21 -5 18 -2 20 21

14 15 -4 24 -3 19 1 -4 4 0 15 9 25 15 16 13 20 -18 48 -18 17 -36 31 -40 31

-4 0 -5 6 -2 14 3 8 1 17 -5 20 -7 5 -10 -292 -11 -939 l0 -945 25 0 c16 0 24

4 20 11 -5 7 6 8 32 5 21 -3 32 -3 24 0 -9 4 20 18 70 35 97 32 110 34 83 14

-14 -11 -15 -14 -4 -14 8 -1 26 8 40 18 19 15 29 17 44 9 25 -13 336 -4 421

12 33 7 77 21 98 33 l38 21 24 -29 c13 -17 38 -57 56 -90 59 -112 120 -204

139 -210 11 -3 54 1 97 10 122 25 350 55 422 55 36 0 90 5 121 12 55 11 56 11

128 -29 l73 -40 -78 -23 c-228 -67 -701 -234 -890 -314 -96 -41 -115 -53 -137

-87 -19 -27 -33 -39 -51 -39 -13 0 -27 -5 -31 -11 -4 -8 3 -9 26 -4 23 5 30 4

26 -4 -8 -12 -36 -14 -60 -5 -13 5 -14 9 -5 20 9 11 6 13 -19 10 -36 -4 -37

12 -1 50 50 55 58 58 509 221 242 87 269 97 266 100 -3 4 -106 -30 -310 -102

-72 -25 -137 -43 -145 -40 -8 3 -12 3 -8 -1 4 -5 -18 -16 -49 -26 -32 -10 -59

-16 -62 -14 -2 3 13 9 34 15 22 6 46 16 54 22 12 8 10 9 -7 4 -13 -3 -35 -8

-50 -11 -29 -5 -86 -21 -113 -31 -8 -4 -17 -7 -20 -7 -19 -5 -70 -32 -70 -38

0 -5 -9 -8 -20 -8 -11 0 -20 -4 -20 -10 0 -5 -4 -10 -10 -10 -10 0 -44 -26

-82 -62 -10 -10 -18 -15 -18 -11 0 3 -8 -3 -18 -14 -19 -21 -138 -126 -211

-185 -25 -21 -55 -38 -66 -38 -26 0 -45 -18 -38 -36 6 -17 -81 18 -108 42 -24

22 -13 54 18 54 23 0 24 2 12 17 -13 15 -12 15 8 5 28 -15 40 -15 25 0 -16 16

-15 25 3 25 8 0 12 -4 9 -9 -3 -4 0 -8 5 -8 21 0 26 5 23 22 -3 15 1 17 22 8

21 -8 24 -7 19 7 -5 12 -2 15 9 11 10 -4 37 15 79 56 35 34 92 83 126 108 35

25 60 48 56 51 -3 4 1 7 9 7 9 0 19 8 23 18 5 14 4 15 -6 5 -7 -7 -20 -13 -29

-13 -13 0 -13 2 0 10 15 9 14 10 -37 25 -15 4 -15 3 1 -10 25 -19 19 -19 -34

0 -50 18 -53 18 -45 5 3 -5 -10 -3 -29 5 -40 17 -70 21 -48 6 9 -5 3 -8 -17

-7 -17 1 -31 4 -31 8 0 13 -107 -19 -141 -43 -20 -13 -72 -53 -117 -89 l-81

-65 -1 -487 0 -488 1169 0 c1164 0 1169 0 1164 20 -3 12 0 20 7 20 6 0 14 -9

17 -20 5 -20 14 -20 1391 -20 762 0 1383 2 1381 5 -3 2 -30 6 -61 8 -31 3 -60

7 -65 10 -5 3 -23 8 -39 11 -16 3 -35 13 -41 23 -15 20 -17 37 -3 28 6 -3 10

-12 10 -20 0 -17 20 -23 50 -14 14 4 18 7 9 8 -8 1 -23 7 -33 14 -16 12 -15

13 10 11 16 -1 46 -5 67 -9 24 -5 37 -4 37 4 0 6 -7 8 -17 4 -12 -5 -14 -3 -8

7 6 10 3 12 -14 7 -15 -4 -29 1 -44 16 -13 13 -22 17 -25 9 -2 -7 -10 -12 -18

-12 -22 0 -73 41 -68 54 3 7 -10 17 -31 23 -22 7 -35 7 -35 1 0 -5 -5 -6 -10

-3 -6 3 -8 17 -6 30 3 17 -1 25 -16 28 -11 3 -17 10 -13 16 3 7 -2 11 -14 11

-20 0 -24 6 -24 42 0 10 -4 15 -8 12 -5 -3 -7 -10 -4 -15 4 -5 1 -9 -4 -9 -12

0 -14 11 -5 34 6 16 33 11 46 -8 5 -7 8 -4 8 7 0 21 13 21 165 6 60 -6 133

-13 160 -15 44 -4 52 -9 63 -34 11 -24 21 -30 60 -35 26 -3 53 -9 61 -14 8 -4

51 -59 96 -122 l81 -114 397 -3 397 -2 0 1805 0 1805 -815 0 c-718 0 -815 -2

-815 -15 0 -8 -5 -15 -10 -15 -6 0 -10 -6 -9 -12 3 -27 -1 -39 -12 -32 -8 4

-9 -3 -5 -24 5 -21 2 -34 -9 -46 -9 -9 -13 -16 -9 -16 3 0 2 -6 -4 -12 -6 -7

-13 -37 -16 -66 -6 -51 -42 -139 -53 -128 -3 3 2 24 12 48 29 72 34 97 22 101

-9 3 -8 8 2 20 9 11 10 17 2 17 -16 0 -14 81 4 123 21 51 19 57 -20 57 -24 0

-35 -5 -35 -15 0 -8 -7 -15 -15 -15 -8 0 -14 -5 -12 -12 1 -7 -13 -15 -33 -18

-22 -4 -34 -11 -32 -19 2 -9 -4 -12 -18 -8 -16 4 -19 2 -11 -7 7 -9 4 -12 -14

-11 -13 0 -27 4 -31 8 -5 4 -1 5 8 2 12 -5 16 0 16 20 0 18 -7 27 -24 31 -15

4 -24 14 -24 25 0 18 -11 19 -230 19 -177 0 -230 -3 -230 -12 0 -10 -2 -10 -8

-1 -5 7 -50 11 -140 12 l-132 0 -1 -27 c-1 -16 -3 -20 -6 -10 -3 13 -14 16

-47 15 -31 -1 -42 2 -39 11 3 6 -2 12 -12 12 -10 0 -14 -5 -9 -12 6 -10 4 -10

-7 0 -10 9 -75 12 -256 12 -209 0 -243 -2 -243 -15 0 -8 4 -15 8 -15 5 0 9 -7

9 -15 0 -11 -6 -14 -16 -9 -29 12 -91 21 -85 13 3 -5 -4 -9 -15 -9 -14 0 -21

-6 -21 -19 0 -25 -17 -36 -34 -22 -7 6 -27 9 -44 7 -43 -6 -70 3 -77 24 -3 10

-18 21 -33 25 -15 4 -21 10 -14 12 31 12 6 21 -60 22 -55 1 -69 -2 -60 -11 6

-6 32 -11 57 -11 25 0 45 -4 45 -9 0 -4 6 -8 14 -8 7 0 19 -6 25 -13 8 -11 5

-17 -17 -28 -15 -7 -40 -28 -55 -46 -25 -30 -67 -48 -52 -23 3 6 -3 10 -15 10

-13 0 -18 -4 -15 -11 4 -6 -3 -22 -16 -35 -17 -18 -20 -27 -12 -32 7 -4 -5 -8

-26 -9 -35 -2 -51 9 -180 113 -78 63 -146 114 -152 114 -5 0 43 -43 108 -97

65 -53 141 -116 169 -139 39 -33 55 -42 74 -37 13 4 21 2 17 -3 -3 -6 9 -10

26 -11 30 -1 30 -1 7 7 -23 7 -23 8 -4 9 12 1 27 -6 34 -14 7 -9 19 -14 25

-11 7 2 29 1 49 -4 20 -4 39 -4 42 1 3 5 13 9 22 9 15 0 15 -2 2 -10 -11 -7

-6 -10 20 -9 29 0 31 2 15 9 -13 6 10 9 68 9 59 1 86 -2 82 -9 -4 -7 3 -8 20

-4 33 8 244 11 239 3 -2 -3 -63 -9 -136 -13 -77 -4 -137 -11 -143 -18 -7 -8

-6 -9 2 -4 6 3 14 2 18 -4 3 -5 -1 -10 -9 -10 -8 0 -18 5 -21 10 -3 6 -11 10

-16 10 -6 0 -7 -6 -3 -12 5 -8 0 -7 -11 2 -11 9 -16 10 -11 3 4 -8 2 -13 -6

-13 -7 0 -25 -11 -38 -23 -18 -17 -31 -22 -45 -16 -29 11 -45 10 -45 -2 0 -6

6 -9 14 -6 16 6 43 -19 32 -30 -3 -3 -6 -1 -6 5 0 20 -19 13 -30 -10 -10 -22

-10 -22 4 -4 14 17 15 15 14 -25 l0 -42 -19 24 c-11 14 -19 18 -19 10 0 -7 -6

-11 -15 -8 -8 4 -17 1 -21 -5 -4 -7 -3 -8 4 -4 7 4 12 2 12 -3 0 -6 -11 -11

-25 -12 -14 -1 -35 -2 -47 -2 -13 0 -28 -11 -35 -23 -11 -20 -20 -22 -105 -21

-51 0 -87 2 -80 4 6 3 10 9 7 13 -3 5 -7 42 -9 82 -2 41 -9 74 -15 76 -6 2 -9

7 -6 12 5 8 -22 31 -64 55 -11 6 -13 4 -8 -8 4 -10 0 -20 -11 -26 -11 -7 -12

-11 -4 -11 9 0 11 -7 7 -19 -3 -11 -1 -22 5 -26 5 -3 20 -27 31 -53 12 -26 29

-53 38 -60 9 -8 -5 -2 -31 12 -68 38 -98 48 -92 32 3 -7 16 -19 30 -26 13 -7

22 -15 20 -17 -2 -3 -13 0 -23 6 -18 9 -80 17 -219 25 -68 5 -128 23 -207 62

-64 33 -65 33 -47 45 12 8 11 9 -5 7 -14 -2 -20 3 -20 17 0 13 -7 19 -18 19

-9 -1 -17 4 -17 10 0 16 -56 67 -64 59 -3 -3 -8 2 -12 11 -3 9 -12 16 -19 16

-17 0 -75 51 -75 67 0 7 -7 10 -15 7 -10 -4 -15 0 -15 10 0 9 -8 19 -17 23

-10 3 -36 13 -58 23 -22 10 -48 20 -58 24 -13 4 -17 14 -15 33 2 23 7 27 26

25 12 -2 22 1 22 6 0 5 -25 10 -56 10 -47 0 -54 -3 -50 -17 5 -13 4 -13 -8 2

-12 16 -45 17 -435 17 -335 0 -421 -3 -415 -12z m3718 -449 c4 5 26 9 51 9 40

-1 43 -3 27 -15 -16 -14 -16 -14 3 -8 34 12 69 11 97 -2 15 -7 36 -13 47 -13

11 0 24 -7 29 -16 6 -10 12 -13 16 -6 7 12 96 -12 108 -31 5 -8 11 -8 16 -2 4

6 12 11 17 12 6 0 19 3 30 5 13 2 19 -2 17 -11 -2 -10 5 -12 25 -7 l28 5 -25

-11 c-14 -7 -28 -16 -31 -21 -7 -9 -39 1 -39 13 0 5 6 11 13 13 9 4 9 6 -1 6

-7 1 -16 -7 -19 -16 -8 -23 -31 -37 -63 -39 -14 -1 -25 -2 -25 -4 0 -6 -70

-10 -255 -15 -113 -3 -243 -7 -290 -11 -144 -9 -314 -4 -362 12 -10 3 -18 1

-18 -5 0 -17 -37 -13 -44 4 -3 8 -10 15 -16 15 -6 0 -9 -4 -6 -9 3 -5 -1 -15

-10 -22 -13 -10 -17 -10 -24 1 -5 8 -6 18 -3 24 3 5 1 6 -5 2 -6 -4 -9 -13 -5

-21 3 -10 -1 -15 -12 -15 -10 0 -13 5 -9 12 5 7 3 8 -6 3 -24 -15 -112 -17

-122 -3 -5 8 -11 9 -15 3 -11 -15 -140 -18 -149 -4 -5 8 -9 8 -14 -1 -6 -9

-22 -11 -55 -6 -38 6 -45 10 -40 24 13 31 17 60 8 65 -13 7 -73 -4 -68 -13 3

-5 -4 -6 -15 -3 -11 3 -18 9 -15 13 3 5 -1 10 -7 13 -19 6 35 8 272 11 118 2

226 6 240 10 80 23 223 38 377 40 95 0 164 4 155 8 -9 4 18 6 60 3 45 -3 80

-1 83 5 4 7 13 7 25 0 11 -6 21 -6 24 -1z m-2305 -104 c17 -20 31 -46 31 -59

0 -12 12 -56 26 -97 26 -73 26 -75 13 -182 -7 -59 -16 -110 -20 -113 -5 -3 -5

-15 0 -27 4 -12 9 -64 10 -115 0 -52 3 -98 7 -103 3 -5 -2 -9 -10 -9 -13 0

-14 -3 -4 -19 9 -14 9 -26 1 -43 -9 -20 -7 -26 14 -42 20 -14 24 -24 19 -47

-3 -15 -1 -31 4 -34 6 -3 10 -11 10 -16 0 -6 -10 -3 -22 5 -23 17 -60 21 -71

9 -4 -3 0 -14 9 -24 19 -21 10 -59 -14 -59 -10 0 -27 -7 -39 -15 -20 -14 -22

-14 -18 5 5 27 -13 36 -29 15 -12 -17 -13 -16 -15 1 -1 11 -2 29 -2 41 -1 19

-5 22 -24 17 -29 -7 -42 22 -19 47 15 16 14 19 -3 30 -14 8 -18 19 -15 37 5

24 3 25 -29 20 -41 -6 -59 -1 -59 18 0 9 11 14 31 14 47 0 69 16 69 51 0 22

-6 32 -24 39 -32 12 -44 59 -20 77 25 18 34 16 28 -4 -5 -14 -4 -15 4 -4 6 8

19 12 31 8 12 -3 21 -1 21 4 0 5 -7 9 -15 9 -17 0 -20 23 -5 51 6 10 7 19 2

19 -7 0 -16 14 -40 63 -2 4 3 7 12 7 9 0 16 5 16 11 0 5 3 8 8 6 4 -3 5 20 2

51 -4 50 -8 57 -27 60 -25 4 -32 22 -9 22 8 0 17 4 20 8 3 5 -4 8 -16 8 -12

-1 -23 5 -26 12 -2 9 3 13 14 12 11 -1 26 -2 34 -1 13 1 13 3 -1 14 -20 15

-35 57 -20 57 6 0 8 7 5 15 -3 8 8 40 26 71 21 38 30 64 26 79 -7 26 4 33 45

34 19 1 36 -10 58 -34z m3499 -582 l-3 -358 -168 -3 -167 -2 2 172 c3 165 4

173 23 173 11 0 25 3 32 8 16 10 25 -7 18 -36 -11 -43 30 -67 79 -48 18 7 18

8 3 14 -9 3 -17 2 -17 -3 0 -6 -7 -10 -15 -10 -10 0 -15 11 -16 33 0 17 -2 40

-4 49 -2 10 3 22 11 26 12 7 11 11 -6 27 -11 10 -23 35 -26 56 -6 35 -8 37

-31 28 -34 -13 -36 -12 -30 11 3 11 1 20 -4 20 -23 0 -4 19 44 45 28 16 99 57

157 92 58 35 109 63 113 63 5 0 7 -161 5 -357z m-2936 89 c-4 -210 -9 -258

-29 -238 -5 4 -9 83 -9 174 -1 92 -5 192 -9 223 -5 38 -3 64 5 79 11 21 13 21

28 6 15 -15 17 -43 14 -244z m1584 28 c19 3 22 -54 23 -372 1 -267 3 -328 14

-328 8 0 19 -17 25 -39 15 -50 15 -50 -8 -44 -16 4 -20 0 -20 -21 0 -17 -5

-26 -15 -26 -12 0 -14 -8 -9 -42 l7 -41 -108 6 c-59 4 -146 7 -191 7 l-84 0

12 25 c6 14 19 25 30 25 10 0 18 4 18 8 0 5 -13 7 -30 6 -33 -2 -38 7 -16 29

9 8 26 12 40 10 23 -5 26 -2 26 21 0 14 -5 26 -11 26 -5 0 -7 5 -4 10 3 6 -3

10 -15 10 -12 0 -18 -4 -15 -10 3 -5 -1 -10 -10 -10 -9 0 -13 -4 -10 -10 4 -6

-7 -10 -25 -10 -30 0 -31 1 -24 38 9 50 12 54 35 41 12 -6 23 -8 26 -6 2 3 -5

8 -16 12 -12 3 -19 11 -16 16 4 5 2 9 -4 9 -5 0 -14 -8 -20 -17 -9 -17 -11

-17 -27 -1 -13 13 -15 20 -6 31 12 14 6 57 -8 57 -4 0 -10 -9 -13 -20 -5 -19

-37 -29 -37 -11 0 5 -7 12 -16 15 -8 3 -13 2 -9 -3 3 -5 -1 -12 -7 -15 -10 -5

-10 -7 0 -12 17 -8 15 -29 -4 -45 -11 -9 -15 -25 -12 -50 3 -35 1 -38 -39 -54

-41 -17 -49 -30 -44 -72 1 -7 -8 -13 -21 -14 -22 0 -22 -1 -3 -10 13 -6 -50

-8 -179 -4 -110 3 -247 6 -305 6 l-106 2 134 9 c141 10 164 18 154 57 -4 15

-1 21 11 21 10 0 14 5 11 10 -3 6 1 10 9 10 9 0 16 -6 17 -12 0 -10 2 -10 6 0

2 6 13 12 24 12 13 0 17 5 13 18 -3 9 4 2 16 -15 12 -18 26 -33 32 -33 5 0 6

-4 3 -10 -3 -5 1 -10 9 -10 9 0 16 -7 16 -15 0 -10 10 -15 33 -14 17 0 26 3

20 6 -9 3 -13 28 -13 75 l0 70 -62 -6 c-35 -4 -91 -7 -125 -8 -35 0 -63 -3

-63 -5 0 -8 26 -48 35 -55 6 -5 5 -12 -3 -20 -9 -9 -12 -9 -12 4 0 23 -74 103

-88 94 -8 -5 -10 -24 -6 -60 4 -35 3 -56 -5 -60 -6 -4 -9 -11 -6 -16 3 -4 -1

-13 -8 -19 -11 -9 -14 -2 -14 33 0 49 -37 122 -79 155 -18 14 -22 21 -11 21 8

0 22 2 29 5 8 3 27 -5 43 -17 17 -13 45 -24 65 -24 20 -1 49 -4 66 -8 l31 -7

7 62 c3 34 6 155 7 268 1 238 8 308 29 303 8 -2 23 -4 32 -5 11 -1 18 -9 18

-22 0 -11 5 -27 11 -35 9 -13 10 -12 5 3 -3 9 -2 25 1 35 5 11 11 -3 18 -43 7

-37 15 -59 23 -57 9 1 13 -60 14 -255 l2 -258 6 262 c3 144 8 265 13 269 4 4

8 -1 8 -12 2 -30 16 36 18 81 3 76 21 14 21 -72 0 -67 3 -81 14 -77 12 4 14

-19 15 -138 1 -79 4 -169 7 -200 7 -60 23 -79 25 -30 l1 27 7 -30 c3 -16 11

-28 16 -26 6 2 16 6 23 9 8 3 10 7 4 11 -12 7 3 113 21 151 17 35 44 37 58 6

7 -14 18 -26 26 -26 7 0 13 -7 13 -15 0 -8 7 -15 15 -15 8 0 15 7 15 15 0 20

39 19 47 -1 4 -10 -1 -22 -11 -30 -10 -6 -17 -15 -18 -19 0 -14 26 -24 38 -14

7 6 17 2 30 -12 18 -20 18 -21 -1 -36 -20 -16 -20 -16 0 -8 11 3 34 9 51 12

l31 5 7 82 c3 44 9 177 13 294 6 192 11 236 26 200 3 -7 6 -1 6 15 1 15 5 27

9 27 5 0 13 -12 19 -27 l10 -28 14 30 13 30 4 -35 c5 -54 22 -61 23 -9 l1 44

12 -39 c8 -26 15 -35 20 -27 5 7 14 10 22 7 10 -4 14 3 15 22 1 20 4 16 12

-18 9 -37 12 -40 15 -20 2 14 8 29 13 35 5 5 9 18 9 30 0 15 3 16 9 7 4 -8 12

-13 17 -12z m-3144 -86 c20 -4 46 -15 57 -25 17 -16 21 -16 31 -4 24 29 163 5

183 -31 16 -30 89 -66 84 -41 -4 23 88 54 113 38 12 -8 12 -13 2 -23 -6 -6

-12 -16 -12 -20 0 -13 20 -9 37 7 9 10 19 12 27 7 17 -14 106 -42 132 -42 12

0 28 -7 35 -17 13 -15 15 -13 20 13 4 16 6 -6 6 -51 0 -44 -2 -63 -4 -42 -3

29 -8 37 -24 37 -18 0 -20 -4 -14 -31 7 -31 6 -31 -24 -27 -17 2 -31 1 -31 -4

0 -4 7 -8 15 -8 9 0 20 -10 25 -22 5 -13 9 -16 9 -8 1 11 4 11 13 2 17 -17 28

-15 29 6 1 16 2 16 6 0 2 -10 8 -18 12 -18 4 0 7 -9 7 -20 0 -11 -4 -20 -8

-20 -4 0 -9 -24 -9 -52 -1 -29 -3 -45 -6 -35 -3 10 -11 17 -19 15 -8 -2 -14

-7 -12 -13 2 -6 -41 -12 -107 -16 -92 -4 -78 -5 90 -7 l201 -2 -4 -87 c-2 -49

-5 -90 -7 -92 -2 -2 -105 -6 -229 -8 l-226 -6 0 41 c0 37 -2 41 -32 47 -18 4

-42 14 -53 21 -12 9 -47 14 -96 14 -64 0 -78 3 -83 18 -3 9 -9 23 -12 30 -4 8

3 12 18 12 l23 1 -22 18 c-12 10 -19 21 -16 25 4 3 -4 6 -16 6 -12 0 -37 15

-54 34 l-32 33 28 13 c15 6 27 18 27 26 0 8 9 14 20 14 31 0 23 -27 -10 -33

-18 -4 -30 -13 -30 -22 0 -24 25 -28 59 -11 17 9 36 15 43 14 7 -2 13 8 13 24

1 17 -3 24 -8 19 -6 -6 -15 -4 -24 5 -17 16 -59 19 -68 4 -3 -5 -24 -10 -45

-10 -31 0 -38 3 -34 15 4 8 10 12 15 9 5 -3 9 0 9 7 0 8 20 10 71 7 65 -5 72

-4 77 14 2 10 10 17 16 15 7 -3 12 4 12 14 0 12 -7 19 -18 19 -10 0 -18 7 -18

16 0 14 3 14 15 4 8 -7 15 -8 15 -2 0 5 -6 15 -14 22 -8 6 -12 18 -9 27 8 20

-14 33 -55 33 -19 0 -35 6 -38 15 -9 21 -64 15 -64 -8 0 -13 -6 -17 -22 -15

-13 2 -27 6 -33 9 -5 4 -22 9 -36 12 -21 5 -26 13 -26 37 0 16 5 30 10 30 5 0

7 7 3 15 -6 17 29 20 96 9z m4767 -102 c7 -13 6 -23 -1 -30 -9 -9 -8 -12 3

-12 9 -1 7 -7 -8 -19 -13 -11 -23 -29 -23 -40 0 -30 -40 -45 -58 -23 -7 9 -10

22 -8 29 3 8 -2 13 -12 13 -20 0 -46 36 -37 50 9 15 41 12 55 -5 7 -8 19 -15

27 -15 12 0 12 3 -1 16 -17 16 -21 36 -9 47 14 15 63 7 72 -11z m-983 -53 c19

-11 34 -24 34 -29 0 -4 7 -10 15 -14 10 -4 21 7 35 34 11 22 23 40 25 40 3 0

5 -44 4 -97 0 -54 -3 -92 -6 -85 -4 9 -8 10 -18 2 -9 -7 -15 -8 -19 -1 -12 18

-56 -10 -56 -35 0 -22 -3 -22 -84 -21 -74 2 -86 4 -90 21 -3 12 -10 17 -21 12

-9 -3 -25 -1 -36 4 -16 9 -19 22 -19 75 0 57 3 66 23 76 12 7 24 15 27 20 9

13 74 26 113 23 22 -2 54 -13 73 -25z m202 19 c8 -8 12 -46 12 -106 0 -79 -3

-97 -17 -108 -10 -7 -21 -14 -25 -14 -10 0 -11 224 -1 233 9 10 17 9 31 -5z

m-568 -426 c0 -5 -14 -21 -31 -38 -34 -33 -61 -78 -52 -88 4 -3 45 -6 92 -7

66 0 80 -3 62 -10 -23 -9 -24 -10 -5 -24 17 -13 6 -14 -101 -15 -68 0 -114 4

-107 9 16 10 10 113 -7 119 -6 2 -11 10 -11 19 0 11 -7 13 -30 8 -29 -6 -42 7

-19 20 16 11 59 -4 59 -20 0 -23 50 -18 95 10 42 26 55 30 55 17z m448 -28

c18 -2 41 -8 50 -13 11 -7 -56 -9 -195 -8 -204 3 -263 9 -192 21 82 14 230 14

337 0z m-2543 -135 c28 -43 55 -84 60 -93 9 -16 16 -16 80 -2 87 17 272 39

283 32 4 -3 24 -1 44 3 28 7 43 4 66 -9 16 -10 40 -20 53 -22 20 -3 18 -6 -16

-17 -74 -24 -200 -73 -237 -92 -48 -25 -78 -24 -85 0 -6 24 -28 17 -71 -21

-16 -14 -38 -28 -48 -30 -11 -2 -24 -18 -31 -38 -10 -29 -12 -31 -12 -11 -1

13 11 44 25 69 l26 45 -33 -7 c-19 -3 -48 -2 -66 3 -30 9 -33 7 -48 -25 -9

-19 -20 -32 -25 -29 -6 3 -7 0 -4 -8 4 -11 -5 -16 -35 -19 -29 -2 -41 0 -41 9

0 10 -31 13 -127 14 -71 0 -144 2 -163 4 -19 1 -55 4 -80 5 -39 3 -35 4 25 9

69 6 70 6 67 34 -2 22 1 27 20 27 25 1 26 0 -37 45 l-20 15 20 -6 c18 -5 17

-3 -4 15 -26 23 -24 25 13 11 39 -14 32 -6 -26 31 -40 26 -48 35 -33 38 15 2

11 8 -21 27 l-39 24 45 0 c25 0 70 9 100 20 65 23 74 24 64 8 -5 -7 -3 -8 7

-2 8 5 55 7 104 6 50 -2 97 2 105 8 27 19 45 6 95 -71z m899 -89 l51 0 -40

-19 c-22 -10 -61 -28 -87 -40 -35 -16 -66 -21 -125 -21 -54 0 -73 3 -63 10 11

7 6 10 -20 10 -19 0 -46 3 -60 7 -21 6 -11 11 60 35 72 23 97 27 159 23 41 -3

97 -5 125 -5z m265 -34 c12 -11 38 -46 57 -77 l34 -57 -36 -36 c-21 -21 -33

-40 -28 -47 4 -7 3 -9 -3 -6 -5 3 -26 -11 -46 -31 -36 -37 -36 -38 -16 -50 12

-8 18 -9 14 -3 -4 8 8 10 38 9 l45 -3 -52 -52 c-39 -40 -52 -48 -55 -35 -2 9

-6 19 -10 22 -4 3 -28 32 -53 65 -76 100 -158 165 -208 165 -26 0 -100 23

-100 31 0 12 24 27 125 79 l100 51 86 -3 c69 -2 91 -7 108 -22z m-1809 -102

c44 -13 50 -18 39 -29 -8 -7 -43 -19 -79 -26 -58 -13 -71 -12 -114 2 -53 18

-51 25 12 35 23 4 47 13 53 20 15 18 24 18 89 -2z m858 -151 l83 -6 -128 -57

c-70 -31 -181 -82 -245 -113 -82 -40 -129 -57 -160 -58 -40 -1 -41 -2 -13 -9

27 -7 26 -8 -15 -9 -25 0 -70 3 -100 7 l-55 7 55 6 c40 5 31 6 -35 4 -82 -2

-86 -1 -45 8 l45 11 -100 11 -100 12 80 3 c64 2 73 4 45 10 l-35 7 40 2 40 2

-40 19 -40 19 40 1 c22 1 58 5 80 9 36 7 37 8 15 14 -14 4 -36 8 -50 10 -14 3

-2 5 26 6 78 2 144 13 138 22 -3 5 23 9 58 9 47 0 59 3 48 11 -11 8 -5 9 27 7

23 -2 39 0 37 4 -3 5 21 8 53 8 32 0 96 3 143 8 l85 7 -65 6 c-36 3 -49 6 -30

7 19 1 72 -1 118 -5z m469 -21 c50 -26 70 -53 124 -166 37 -77 46 -128 19

-111 -11 7 -53 -19 -44 -27 3 -4 -4 -9 -15 -13 -12 -3 -27 -12 -34 -18 -7 -7

-32 -22 -55 -35 -40 -21 -43 -22 -49 -5 -4 10 -11 21 -17 25 -8 5 -7 8 1 8 6

0 10 8 8 18 -1 9 2 22 6 28 16 20 17 73 2 78 -21 8 -23 8 -23 -6 -1 -21 -51

-73 -100 -104 -25 -16 -53 -38 -63 -48 -18 -20 -91 -51 -81 -35 3 5 0 9 -5 9

-6 0 -11 -7 -11 -16 0 -12 -7 -15 -25 -12 -18 4 -25 1 -25 -11 0 -14 -2 -14

-10 -1 -9 13 -10 13 -10 0 0 -10 -11 -17 -31 -18 -17 -1 -40 -7 -51 -13 -16

-8 -19 -8 -13 1 6 9 2 9 -14 1 -11 -7 -21 -9 -21 -5 0 3 -6 1 -14 -5 -10 -8

-16 -9 -21 -1 -12 19 -26 11 -15 -10 9 -16 8 -18 -5 -14 -8 4 -15 11 -15 17 0

6 -7 1 -16 -11 -14 -20 -13 -27 12 -84 15 -35 33 -70 39 -78 38 -51 85 -142

85 -165 0 -18 5 -25 14 -23 8 2 88 73 178 158 213 202 288 271 318 294 29 22

-2 -9 -233 -228 -92 -87 -175 -165 -185 -172 -10 -7 -31 -30 -46 -52 -27 -40

-27 -40 -10 -74 21 -38 32 -124 15 -113 -6 3 -11 15 -11 26 0 13 -4 18 -12 13

-6 -4 -8 -3 -5 3 4 6 -3 23 -15 39 -13 15 -16 24 -8 19 8 -4 5 3 -8 17 -13 14

-25 32 -26 39 -2 15 -38 76 -56 97 -6 6 -8 12 -5 12 9 0 -34 78 -73 133 -20

28 -37 62 -37 75 -1 13 -7 27 -15 32 -8 6 -11 10 -7 10 5 0 5 6 0 13 -4 6 -8

16 -8 21 0 5 -11 16 -25 25 -13 9 -21 11 -17 4 5 -8 0 -9 -22 0 -17 6 -28 13

-26 16 1 4 -49 7 -114 8 -64 1 -130 4 -147 8 -67 12 -23 59 117 124 140 65

602 289 639 310 30 18 50 20 155 17 100 -2 127 -6 162 -24z m1513 -322 l20

-40 63 0 c34 0 67 -4 73 -8 11 -7 57 -91 74 -136 l8 -23 -80 23 c-70 19 -83

20 -95 8 -8 -8 -28 -14 -45 -14 -25 0 -29 3 -23 18 5 14 4 15 -6 5 -16 -16

-55 -17 -64 -2 -4 6 -13 8 -21 5 -17 -7 -14 17 4 24 23 10 -16 52 -47 49 -14

-2 -35 2 -46 9 -19 11 -18 11 8 12 23 0 27 3 22 19 -4 14 1 21 24 29 16 6 32

8 34 5 14 -13 47 10 47 33 0 37 27 29 50 -16z m-1420 -233 c-83 -79 -302 -332

-325 -376 -7 -15 -21 -34 -30 -41 -19 -16 -100 -139 -122 -185 -15 -31 -50

-61 -60 -51 -12 12 9 115 28 134 10 12 19 24 19 28 0 10 135 186 176 229 22

22 60 63 85 90 69 75 149 145 183 159 17 7 40 23 50 35 11 11 24 21 30 21 6 0

-9 -19 -34 -43z m-2286 -541 c-3 -8 0 -17 7 -22 7 -4 10 -3 5 4 -7 12 29 27

43 17 6 -3 26 -6 46 -7 19 -1 35 -2 35 -3 0 -1 -7 -25 -16 -54 l-15 -53 -67 6

c-102 10 -152 18 -157 26 -7 12 42 52 67 55 13 1 29 3 36 4 7 0 10 6 7 11 -3

6 -3 15 0 20 9 15 15 12 9 -4z"/>

<path d="M1361 3606 c2 -2 24 -15 49 -29 86 -48 455 -264 497 -290 24 -15 45

-27 48 -27 2 0 28 -15 57 -34 29 -18 63 -38 76 -45 21 -11 22 -11 11 6 -12 19

-160 113 -178 113 -6 0 -11 4 -11 10 0 5 -7 6 -17 3 -11 -4 -14 -3 -9 5 4 7 1

12 -7 12 -8 0 -20 7 -27 15 -7 8 -15 13 -19 10 -4 -2 -24 10 -44 26 -20 17

-37 27 -37 22 0 -4 -5 0 -11 9 -6 11 -16 15 -26 11 -11 -4 -14 -3 -9 5 6 11 1

14 -20 11 -3 0 -13 8 -22 19 -9 10 -37 29 -61 41 -24 13 -49 27 -55 32 -44 38

-125 79 -155 79 -19 0 -32 -2 -30 -4z"/>

<path d="M170 1562 c0 -4 13 -23 30 -42 36 -43 40 -64 5 -26 -25 27 -50 31

-50 9 0 -6 15 -27 32 -47 42 -45 73 -96 73 -119 0 -15 -3 -16 -20 -7 -29 15

-26 -7 3 -30 18 -15 23 -26 19 -49 -4 -31 -4 -31 42 -31 43 0 46 2 36 19 -14

27 -13 68 2 73 8 3 2 14 -17 31 l-30 26 30 1 30 0 -35 23 c-31 20 -33 22 -14

25 12 2 38 -4 58 -12 58 -24 33 -2 -53 48 -94 54 -109 70 -57 61 52 -10 44 2

-20 30 -63 28 -64 28 -64 17z"/>

</g>

</svg>

