<?xml version="1.0" standalone="no"?>

<!DOCTYPE svg PUBLIC "-//W3C//DTD SVG 20010904//EN"

 "http://www.w3.org/TR/2001/REC-SVG-20010904/DTD/svg10.dtd">

<svg version="1.0" xmlns="http://www.w3.org/2000/svg"

 width="113.385827" height="136.533838" viewBox="0 0 113.385827 136.533838"

 preserveAspectRatio="xMidYMid meet">

<metadata>

Created by potrace 1.14, written by Peter Selinger 2001-2017

</metadata>

<g transform="translate(-20.066850,144.327505) scale(0.042218,-0.042218)"

fill="#000000" stroke="none">

<path d="M1738 3407 c-62 -20 -121 -69 -153 -128 -24 -45 -30 -68 -33 -141 -3

-68 -8 -88 -19 -88 -8 0 -25 -11 -38 -25 l-25 -24 0 -219 0 -219 26 -27 27

-26 292 0 292 0 27 25 26 24 0 221 0 221 -25 24 c-13 14 -30 25 -38 25 -11 0

-16 20 -19 88 -3 73 -9 96 -33 141 -61 112 -189 165 -307 128z m145 -136 c21

-21 35 -85 36 -163 l1 -48 -105 0 -105 0 0 53 c1 82 15 129 51 161 26 23 38

27 67 22 20 -3 45 -14 55 -25z m-12 -390 c18 -23 20 -37 17 -109 -3 -74 -6

-86 -27 -103 -30 -24 -62 -24 -92 0 -21 17 -24 30 -27 100 -3 64 0 87 13 107

31 48 81 51 116 5z"/>

<path d="M2260 2750 l0 -49 83 -39 c359 -169 616 -494 698 -882 28 -136 31

-353 5 -483 -116 -592 -628 -1017 -1226 -1017 -848 0 -1446 819 -1189 1628 61

192 172 370 323 516 91 89 252 199 351 241 l65 28 0 50 c0 49 0 49 -27 43 -16

-4 -70 -27 -121 -52 -373 -184 -646 -544 -728 -961 -27 -132 -24 -376 4 -510

59 -274 176 -488 376 -689 195 -195 409 -310 687 -370 117 -26 400 -26 517 -1

483 105 864 441 1016 898 48 144 67 259 67 419 1 387 -135 707 -413 976 -130

126 -275 220 -438 284 l-50 20 0 -50z"/>

<path d="M1692 2230 c-107 -39 -199 -132 -237 -240 -9 -25 -19 -88 -22 -140

-5 -73 -11 -101 -26 -122 -16 -21 -19 -37 -14 -75 9 -81 35 -130 83 -164 57

-39 67 -60 68 -144 0 -88 -18 -156 -53 -189 -14 -13 -141 -79 -281 -146 -140

-66 -258 -126 -262 -133 -4 -6 -8 -25 -8 -40 0 -61 194 -226 367 -312 171 -85

306 -115 513 -115 273 0 476 66 687 223 171 129 225 205 176 250 -10 8 -128

67 -262 131 -135 63 -255 123 -269 133 -48 37 -77 185 -52 273 7 26 22 44 54

64 50 32 72 69 87 151 9 49 8 60 -8 83 -13 20 -19 54 -24 137 -5 96 -9 118

-37 176 -38 80 -109 150 -190 187 -77 35 -211 41 -290 12z"/>

</g>

</svg>

