<?xml version="1.0" standalone="no"?>

<!DOCTYPE svg PUBLIC "-//W3C//DTD SVG 20010904//EN"

 "http://www.w3.org/TR/2001/REC-SVG-20010904/DTD/svg10.dtd">

<svg version="1.0" xmlns="http://www.w3.org/2000/svg"

 width="113.385827" height="93.257157" viewBox="0 0 113.385827 93.257157"

 preserveAspectRatio="xMidYMid meet">

<metadata>

Created by potrace 1.14, written by Peter Selinger 2001-2017

</metadata>

<g transform="translate(-0.032686,100.546846) scale(0.018181,-0.018181)"

fill="#000000" stroke="none">

<path d="M4823 5502 c-240 -81 -389 -305 -369 -555 23 -286 253 -498 541 -498

242 1 452 159 520 394 24 82 22 224 -4 306 -94 292 -402 450 -688 353z m258

-82 c153 -29 287 -153 335 -309 19 -62 18 -185 -2 -251 -34 -115 -126 -219

-242 -273 -56 -26 -82 -32 -158 -35 -138 -6 -238 33 -336 131 -168 168 -167

449 3 616 111 109 246 150 400 121z"/>

<path d="M4045 5019 c-102 -8 -264 -18 -1345 -84 -223 -13 -468 -29 -545 -34

-77 -6 -230 -15 -340 -21 -381 -21 -446 -27 -456 -37 -37 -37 36 -41 371 -18

118 8 334 21 480 30 146 9 405 24 575 35 171 11 391 25 490 30 99 6 279 17

400 25 121 8 303 19 405 26 102 6 189 15 194 19 5 5 6 16 3 24 -7 18 -48 19

-232 5z"/>

<path d="M3974 4347 c-221 -144 -412 -271 -423 -281 -19 -17 -20 -22 -7 -34

16 -17 -34 -47 511 307 258 168 350 233 350 247 0 10 -7 20 -15 21 -8 2 -196

-115 -416 -260z"/>

<path d="M4722 4338 c-5 -7 -24 -47 -40 -88 -16 -41 -69 -167 -116 -280 -48

-113 -91 -215 -96 -228 -7 -16 -16 -21 -32 -18 -13 3 -131 17 -263 31 -132 14

-359 39 -505 55 -146 16 -393 43 -550 60 -157 16 -366 39 -465 50 -99 11 -202

23 -230 25 -46 4 -161 17 -685 75 -102 11 -268 29 -370 40 -102 10 -243 26

-315 34 -200 24 -194 25 -290 -44 -64 -46 -85 -67 -90 -90 l-7 -30 -146 0

c-198 0 -328 -24 -414 -74 -76 -45 -114 -116 -105 -197 15 -128 126 -288 331

-479 243 -226 490 -406 871 -635 l60 -36 107 -257 c315 -756 438 -1046 448

-1056 8 -8 235 -12 802 -16 l791 -5 30 -100 c16 -55 32 -112 34 -126 5 -25

-12 -38 -277 -215 -156 -104 -288 -197 -294 -207 -12 -19 -2 -43 26 -61 18

-11 1022 127 1228 169 l115 23 53 58 c28 31 50 59 48 61 -3 3 -167 -27 -233

-44 -21 -5 -23 -2 -23 42 l0 48 144 -5 c79 -3 149 -2 157 3 11 6 7 17 -17 51

l-30 43 -114 6 c-63 4 -121 7 -128 8 -10 1 -12 30 -10 123 l3 123 73 3 c69 3

72 4 72 27 0 27 6 30 44 15 18 -7 27 -19 31 -47 19 -110 63 -212 146 -335 22

-31 39 -63 39 -71 0 -18 -63 -91 -197 -227 l-104 -106 51 -18 c28 -10 52 -17

54 -15 19 28 224 264 254 292 l39 38 84 -11 c46 -7 145 -11 219 -9 100 1 154

-2 210 -15 91 -22 203 -17 273 11 79 31 172 107 237 194 59 77 62 79 103 79

130 0 271 48 335 113 102 104 94 250 -23 406 -42 55 -54 78 -49 94 15 49 91

157 155 221 71 71 81 93 53 120 -22 23 -46 20 -123 -13 -77 -33 -217 -67 -312

-77 l-66 -6 -75 58 c-41 33 -102 79 -136 104 -71 51 -71 53 -41 160 24 89 17

120 -30 120 -23 0 -36 -10 -64 -48 -70 -95 -62 -94 -177 -16 -55 37 -104 73

-109 78 -4 6 -24 49 -43 96 -20 47 -64 150 -98 230 -153 355 -204 473 -321

747 -68 161 -128 291 -133 290 -5 -2 -23 -38 -40 -80 -17 -42 -35 -77 -40 -77

-5 0 -15 8 -22 17 -11 16 -13 16 -23 -7 -75 -177 -111 -264 -111 -272 0 -5 12

-8 26 -6 23 3 31 17 72 116 26 62 51 113 57 113 5 1 33 -54 61 -121 l53 -122

-110 7 -109 7 -11 -26 c-8 -18 -20 -26 -36 -26 -22 0 -24 3 -18 28 l6 28 -167

13 -166 12 -68 46 -68 46 -62 145 c-34 79 -59 146 -56 149 2 3 49 0 103 -6 54

-6 208 -22 343 -36 135 -14 253 -30 263 -36 15 -8 21 -2 41 43 13 29 26 63 30

76 8 24 25 29 43 11 14 -14 9 -21 86 161 36 85 93 221 127 302 34 81 60 155

58 164 -4 22 -22 28 -36 12z m-3417 -434 c132 -14 287 -31 344 -37 l105 -12

77 -180 78 -180 -32 -34 -32 -33 -100 6 c-92 5 -220 15 -448 32 l-88 7 -19 37

c-11 21 -28 59 -38 86 -11 27 -45 109 -76 183 -31 73 -56 137 -56 142 0 13 21

12 285 -17z m740 -79 c88 -9 212 -22 275 -30 63 -8 174 -19 245 -26 72 -6 135

-16 142 -21 6 -5 18 -28 26 -51 9 -23 32 -80 52 -127 21 -47 42 -102 48 -123

11 -35 9 -39 -19 -68 l-31 -30 -309 25 c-170 14 -325 26 -345 26 -26 0 -54 12

-100 43 l-63 42 -73 170 c-40 94 -72 176 -73 183 0 9 10 11 33 7 17 -2 104

-12 192 -20z m-1372 -1 c45 -6 46 -8 68 -63 12 -31 42 -103 67 -161 24 -58 66

-157 92 -220 26 -63 93 -223 148 -355 126 -301 143 -345 135 -345 -13 0 -214

129 -348 224 -330 232 -652 542 -713 686 -23 55 -19 126 8 156 27 28 109 61

183 73 63 10 296 13 360 5z m2397 -109 c140 -14 287 -30 325 -35 39 -5 100

-12 136 -15 l66 -6 62 -145 c33 -79 61 -151 61 -158 0 -8 -12 -28 -26 -45 -24

-29 -28 -30 -82 -25 -31 2 -171 13 -311 24 l-254 20 -70 47 c-75 52 -78 56

-167 262 -40 94 -43 116 -12 107 10 -3 132 -17 272 -31z m-1495 -320 c293 -21

288 -20 361 -68 35 -23 67 -51 70 -62 4 -11 33 -82 65 -157 33 -75 59 -141 59

-146 0 -4 -13 -21 -30 -37 l-29 -28 -198 12 c-109 7 -249 15 -311 18 -62 3

-119 11 -126 17 -8 6 -33 56 -56 111 -23 55 -66 157 -95 227 -29 69 -50 129

-47 133 4 4 36 4 72 1 36 -3 155 -13 265 -21z m760 -60 c105 -8 258 -19 340

-25 126 -10 156 -15 190 -35 54 -31 65 -46 104 -140 19 -44 49 -115 68 -158

l35 -79 -29 -30 -28 -30 -130 6 c-71 4 -231 14 -355 22 l-224 15 -61 44 c-42

29 -66 56 -78 82 -9 21 -38 91 -66 157 l-50 118 26 34 c29 39 11 38 258 19z

m1025 -80 c96 -9 213 -18 260 -22 76 -6 91 -10 140 -44 42 -28 59 -48 72 -81

9 -24 37 -91 61 -150 l45 -107 -31 -36 -32 -35 -170 10 c-93 5 -237 15 -320

21 l-150 11 -55 39 c-47 33 -60 49 -84 106 -16 38 -41 97 -57 133 -43 100 -44

114 -18 150 24 31 24 31 94 25 38 -3 149 -12 245 -20z m778 -61 c45 -3 84 -10

87 -14 2 -4 -7 -35 -20 -69 -31 -75 -32 -93 -4 -89 15 2 30 24 54 78 l33 75

113 -4 c63 -2 123 -7 134 -11 15 -6 45 -65 108 -211 48 -112 87 -207 87 -211

0 -12 -66 -10 -350 8 l-255 15 -66 44 c-58 40 -68 52 -92 107 -14 35 -41 100

-61 144 l-34 82 26 37 26 37 66 -6 c36 -3 102 -8 148 -12z m-2165 -342 c126

-8 128 -9 184 -48 31 -21 60 -46 64 -54 26 -48 129 -302 129 -318 0 -10 -13

-31 -29 -46 l-29 -28 -219 11 c-381 19 -400 21 -415 39 -20 24 -200 460 -195

469 3 5 90 3 194 -4 103 -7 245 -16 316 -21z m647 -43 c91 -6 219 -14 285 -18

120 -7 121 -7 187 -50 57 -37 68 -49 85 -94 11 -29 41 -100 66 -160 l46 -107

-34 -34 -33 -33 -169 8 c-92 4 -251 13 -353 19 l-185 10 -50 35 c-43 30 -54

44 -79 107 -16 40 -41 100 -56 133 -57 129 -56 121 -24 166 l28 41 61 -6 c33

-3 134 -11 225 -17z m1010 -65 l275 -17 55 -35 c30 -19 56 -36 58 -38 8 -6

132 -301 132 -315 0 -8 -14 -28 -30 -44 l-30 -29 -198 12 c-108 7 -249 15

-313 18 -115 6 -115 7 -175 48 -62 44 -66 51 -122 181 -71 168 -71 170 -26

218 22 24 32 28 63 23 20 -3 160 -13 311 -22z m790 -49 c140 -9 275 -19 300

-23 l44 -7 83 -192 c45 -106 85 -204 89 -218 6 -24 5 -25 -47 -24 -30 0 -170

6 -311 13 l-257 13 -54 37 c-53 37 -56 41 -116 183 -33 80 -61 151 -61 159 0

22 42 74 59 74 9 0 131 -7 271 -15z m-2207 -382 c94 -6 101 -8 166 -50 l68

-43 50 -119 c28 -66 49 -122 46 -124 -11 -12 -721 329 -722 347 -1 9 158 4

392 -11z m887 -44 l164 -11 54 -35 c30 -20 58 -46 62 -57 49 -118 75 -180 97

-229 l27 -58 -31 -31 -31 -31 -299 12 -298 13 -100 40 c-55 23 -108 48 -117

57 -17 17 -118 251 -118 275 0 8 12 29 27 47 l27 32 186 -7 c102 -3 259 -11

350 -17z m-795 -299 c186 -86 235 -115 193 -115 -133 2 -580 17 -599 21 -15 3

-29 13 -32 22 -3 9 -35 87 -71 172 -36 85 -66 161 -66 168 0 7 79 -28 183 -80

100 -50 277 -135 392 -188z m1574 259 l234 -11 65 -43 65 -43 54 -127 c29 -69

53 -134 53 -144 0 -9 -13 -30 -29 -45 l-29 -28 -313 12 c-174 7 -323 17 -334

22 -49 26 -93 70 -112 115 -58 129 -93 215 -93 230 0 9 12 31 26 50 l25 33 77

-5 c42 -3 182 -10 311 -16z m814 -41 l279 -12 14 -28 c8 -15 17 -28 19 -28 2

0 24 10 48 21 l44 21 56 -37 c32 -21 57 -41 57 -46 0 -8 -93 -67 -311 -197

-344 -206 -467 -320 -531 -495 -11 -32 -24 -59 -28 -62 -11 -7 -605 179 -627

197 -6 5 -24 40 -38 77 l-27 68 27 41 c15 22 32 43 39 45 6 3 146 0 311 -5

291 -10 300 -10 334 -34 20 -13 40 -24 45 -24 15 0 96 82 96 96 0 7 -21 28

-47 47 -45 32 -52 44 -101 166 l-53 130 26 36 c32 41 -1 39 368 23z m633 -600

c-3 -456 -7 -491 -60 -596 -69 -134 -214 -191 -449 -176 -81 5 -107 10 -103

19 2 7 27 44 53 81 57 80 139 217 187 312 77 153 230 526 223 545 -4 13 -77

-102 -207 -323 -196 -336 -214 -366 -286 -477 -40 -62 -76 -113 -78 -113 -11

0 -89 124 -116 184 -84 188 -54 342 96 488 107 104 153 136 439 306 94 55 192

117 220 136 91 65 85 94 81 -386z m-3007 222 l223 -10 59 -38 c48 -31 61 -46

77 -87 11 -27 34 -84 52 -125 79 -185 88 -211 77 -216 -7 -2 -167 -3 -357 -2

l-344 3 -98 230 c-54 127 -98 236 -98 243 0 15 98 16 409 2z m1181 -67 c25

-15 57 -38 71 -52 25 -26 66 -127 56 -138 -6 -5 -271 87 -459 161 -65 25 -122

46 -127 46 -5 0 -13 5 -17 12 -5 8 47 10 212 4 212 -7 220 -8 264 -33z m2490

23 c0 -2 -18 -34 -39 -71 -21 -36 -67 -128 -102 -203 -217 -473 -313 -615

-456 -678 -52 -23 -163 -43 -163 -30 0 3 24 30 53 59 29 30 66 80 81 113 33

69 66 215 66 294 l0 55 165 139 c91 76 163 141 161 143 -3 3 -74 -31 -159 -76

-85 -44 -157 -78 -160 -74 -4 3 -7 65 -7 138 l0 131 234 22 c128 13 246 27

262 32 31 9 64 12 64 6z m-2995 -93 c104 -41 291 -111 415 -155 301 -107 287

-100 305 -144 8 -20 15 -38 15 -40 0 -2 -192 -3 -427 -2 l-428 3 -63 150 c-95

225 -92 215 -73 248 20 35 13 37 256 -60z m2995 -241 c70 -105 85 -193 42

-251 -29 -39 -118 -80 -189 -88 -35 -3 -63 -2 -63 2 0 4 24 57 53 119 30 61

69 144 87 184 18 39 36 72 39 72 3 0 17 -17 31 -38z m-1975 -377 l0 -120 -130

4 c-71 2 -168 6 -215 10 l-84 6 -12 35 c-30 85 -53 173 -48 181 3 5 112 8 247

7 l242 -3 0 -120z m-308 -281 c82 -36 152 -69 156 -74 11 -10 -17 -16 -158

-35 -60 -8 -189 -26 -285 -40 -263 -39 -262 -41 -55 98 98 64 181 117 186 117

5 0 75 -29 156 -66z"/>

<path d="M5160 4319 c0 -12 48 -209 106 -438 58 -229 141 -555 184 -726 175

-690 193 -760 202 -772 17 -22 40 -2 36 31 -3 17 -60 247 -127 511 -67 264

-153 602 -191 750 -38 149 -90 351 -115 450 -25 99 -48 188 -51 198 -8 25 -44

22 -44 -4z"/>

</g>

</svg>

