<?xml version="1.0" standalone="no"?>

<!DOCTYPE svg PUBLIC "-//W3C//DTD SVG 20010904//EN"

 "http://www.w3.org/TR/2001/REC-SVG-20010904/DTD/svg10.dtd">

<svg version="1.0" xmlns="http://www.w3.org/2000/svg"

 width="113.385827" height="119.734025" viewBox="0 0 113.385827 119.734025"

 preserveAspectRatio="xMidYMid meet">

<metadata>

Created by potrace 1.14, written by Peter Selinger 2001-2017

</metadata>

<g transform="translate(-30.353324,131.550580) scale(0.025549,-0.025549)"

fill="#000000" stroke="none">

<path d="M1529 5133 c-31 -37 -5 -196 58 -353 108 -269 347 -573 625 -795 l98

-77 -44 -52 c-134 -158 -191 -309 -189 -506 2 -201 62 -350 198 -487 l80 -81

-28 -78 c-118 -325 -212 -786 -233 -1141 -6 -106 -7 -111 -23 -94 -114 131

-363 152 -613 51 -83 -34 -217 -112 -247 -144 l-23 -24 87 -146 87 -145 30 15

c16 9 31 14 33 12 2 -2 41 -91 88 -198 111 -255 185 -422 190 -427 13 -12 327

105 327 122 0 2 -11 46 -25 97 -14 51 -25 95 -25 96 0 2 19 -16 43 -40 47 -49

114 -78 178 -78 48 0 141 34 178 66 l29 24 7 -50 c7 -50 7 -50 38 -45 18 3 73

12 124 20 50 7 106 21 122 30 31 15 31 16 31 95 l0 80 228 -114 227 -113 33

15 32 16 0 107 0 107 53 17 c28 9 63 23 75 32 24 15 24 14 18 -16 -3 -17 -9

-45 -12 -61 -3 -17 -4 -30 -2 -30 2 -1 65 -11 140 -24 114 -18 141 -20 160 -9

33 18 33 17 53 -27 17 -37 21 -40 47 -35 25 6 28 4 28 -18 0 -23 5 -25 161

-52 151 -27 163 -27 188 -12 22 14 26 23 24 56 -1 35 1 39 25 45 15 3 36 8 48

12 20 5 21 2 16 -49 l-4 -54 83 -12 c137 -20 129 -16 129 -64 l0 -43 106 -33

c100 -31 131 -33 162 -13 7 5 78 204 156 443 l144 434 -27 7 c-129 37 -277 66

-292 57 -24 -12 -29 -11 -29 5 0 17 0 17 -135 46 -55 11 -128 28 -162 36 -56

13 -64 12 -92 -4 l-31 -17 0 -91 0 -91 -47 -6 c-27 -2 -55 -8 -64 -11 -15 -6

-16 5 -11 112 4 103 -9 328 -24 417 -5 30 -4 31 160 115 91 47 166 89 166 93

0 5 -50 101 -111 213 -61 112 -113 212 -115 221 -4 16 31 35 210 118 119 55

216 104 216 108 0 4 -49 101 -109 215 -193 368 -224 434 -209 444 37 25 198

101 311 147 71 29 284 104 475 168 191 63 349 117 351 119 2 2 10 77 17 166

30 347 87 827 119 996 8 41 13 77 11 80 -7 6 -71 -17 -211 -76 -221 -94 -531

-261 -789 -424 -60 -38 -110 -67 -111 -66 -2 2 24 48 56 103 127 216 206 497

153 549 -19 20 -37 20 -105 0 -177 -52 -450 -252 -631 -461 -148 -172 -224

-282 -319 -461 -24 -45 -48 -80 -54 -78 -185 84 -258 99 -480 100 -215 1 -277

-9 -422 -68 -48 -20 -87 -35 -87 -33 -1 1 -21 40 -45 87 -206 400 -607 796

-919 906 -79 28 -115 30 -133 7z m4037 -180 c-30 -149 -104 -759 -122 -1015

-5 -76 -10 -98 -23 -103 -9 -4 -126 -44 -261 -90 -236 -80 -413 -145 -550

-200 -84 -34 -278 -131 -308 -153 l-23 -18 155 -318 c86 -175 156 -320 156

-323 0 -2 -97 -51 -215 -108 -118 -58 -215 -108 -215 -112 0 -5 27 -53 60

-108 64 -106 184 -335 178 -340 -2 -1 -51 -28 -109 -59 l-106 -56 17 52 c10

29 15 56 11 61 -4 4 -27 1 -50 -8 -24 -8 -47 -15 -52 -15 -15 0 -10 37 6 50

22 18 18 38 -7 42 -19 3 -24 15 -40 88 -22 97 -80 308 -108 393 -11 31 -20 63

-20 70 0 7 33 30 73 51 39 21 87 48 105 58 l32 20 -39 72 -40 71 35 70 c58

118 77 218 71 365 -7 184 -54 305 -175 453 l-55 68 22 16 c103 72 298 250 394

361 98 113 763 508 1092 649 55 23 104 43 108 43 5 0 6 -12 3 -27z m-3395

-249 c165 -171 280 -323 374 -498 40 -74 46 -92 37 -107 -17 -27 -1 -25 85 11

181 73 306 95 510 87 164 -6 289 -32 410 -87 36 -17 72 -30 79 -30 16 0 19 16

4 25 -11 7 31 95 93 195 64 102 166 236 260 341 84 94 276 271 301 277 16 4

34 -75 46 -202 10 -102 -2 -313 -20 -362 -13 -33 -256 -276 -353 -353 -63 -49

-83 -60 -103 -55 -13 3 -24 3 -24 0 0 -4 27 -40 61 -79 133 -157 189 -293 197

-474 5 -134 -12 -225 -64 -333 -67 -140 -175 -254 -301 -318 -42 -22 -59 -39

-49 -49 4 -4 76 27 148 65 4 2 11 -12 16 -30 5 -18 25 -87 45 -153 125 -428

209 -973 182 -1181 -10 -77 -18 -56 -40 98 l-17 118 -127 0 c-96 0 -132 -4

-147 -15 -13 -10 -47 -14 -116 -15 -80 0 -103 -4 -132 -21 -27 -16 -36 -28

-36 -47 0 -41 -14 -57 -31 -36 -18 23 -88 53 -142 62 l-42 8 50 27 c42 24 53

26 72 16 12 -6 32 -9 43 -6 12 3 30 1 40 -5 21 -14 59 -5 94 23 93 73 369 530

339 560 -7 7 -34 -32 -83 -113 -85 -144 -198 -315 -248 -376 -42 -52 -75 -70

-96 -53 -8 7 -26 9 -43 6 l-28 -6 32 18 32 18 -70 105 c-39 58 -75 108 -81

111 -21 13 58 293 139 493 43 106 47 126 22 111 -40 -25 -199 -463 -199 -550

0 -12 -11 -36 -25 -55 -14 -19 -25 -39 -25 -46 0 -7 -54 -75 -119 -151 -118

-137 -119 -138 -100 -159 24 -26 24 -41 -1 -49 -23 -7 -26 -5 -111 69 -54 46

-56 50 -41 67 9 11 25 19 35 19 10 0 26 13 35 29 9 17 25 32 34 35 12 3 18 14

18 33 0 15 7 37 15 47 21 28 18 60 -8 93 -15 18 -29 60 -41 118 -32 156 -166

505 -195 505 -18 0 -13 -21 25 -110 62 -148 124 -349 140 -456 4 -28 17 -61

30 -77 28 -33 29 -40 9 -57 -8 -7 -15 -23 -15 -37 0 -13 -7 -26 -16 -30 -8 -3

-20 -16 -25 -29 -5 -14 -17 -24 -28 -24 -11 0 -27 -10 -35 -22 -15 -22 -17

-22 -44 -5 -26 14 -31 15 -48 2 -10 -8 -22 -15 -25 -15 -27 -1 -194 235 -303

427 -62 110 -86 139 -86 105 0 -50 197 -391 283 -488 16 -19 28 -36 26 -38 -2

-2 -71 -25 -154 -51 -221 -70 -206 -57 -203 -168 l3 -92 33 3 c26 2 32 -2 32

-18 0 -17 -7 -20 -41 -20 -23 0 -59 -5 -81 -12 -47 -14 -50 -11 -75 72 -45

152 11 635 127 1085 30 118 88 313 97 327 2 4 30 -5 61 -21 71 -35 102 -45

102 -33 0 6 -30 27 -67 48 -94 51 -227 187 -275 279 -62 120 -83 203 -82 335

0 203 61 353 210 520 29 33 54 63 54 66 0 3 -13 3 -28 -1 -24 -5 -39 4 -107

61 -98 81 -210 188 -291 277 l-61 67 -12 88 c-15 122 -14 263 4 368 24 138 16

132 98 65 40 -32 119 -108 178 -167z m1903 -1831 c15 -25 25 -47 24 -48 -9 -8

-169 -85 -177 -85 -5 0 -11 10 -14 21 -4 16 9 36 61 88 37 37 70 68 74 69 3 1

18 -19 32 -45z m-696 -1205 c-46 -32 -193 -98 -205 -94 -15 6 27 64 116 158

l35 38 33 -47 c25 -35 30 -49 21 -55z m607 -128 c3 -6 17 -78 30 -162 l24

-151 -25 -32 c-85 -112 -65 -281 43 -360 40 -29 59 -53 49 -63 -3 -2 -41 1

-86 8 -69 11 -81 16 -85 34 -2 11 -11 71 -20 131 -26 172 -24 170 -56 86 -16

-41 -30 -76 -33 -79 -3 -3 -27 39 -53 93 -53 111 -54 110 -73 -32 -7 -50 -16

-96 -20 -103 -5 -8 -24 -8 -76 1 -38 7 -72 15 -76 18 -4 4 -3 34 4 68 9 48 19

69 49 102 l38 41 -28 21 -28 20 23 137 c37 216 23 192 114 192 90 0 81 12 105

-127 10 -51 18 -93 20 -93 2 0 11 44 20 98 9 53 21 112 27 130 9 30 12 32 58

32 27 0 52 -5 55 -10z m-1300 -164 c22 32 58 82 81 110 l41 53 72 -73 73 -74

-107 -112 -108 -113 99 -39 c84 -33 106 -47 141 -88 44 -50 129 -100 170 -100

30 0 35 -14 31 -85 l-3 -57 -252 126 c-139 69 -253 122 -254 118 0 -4 0 -64 1

-134 l1 -127 -38 -6 c-21 -4 -50 -9 -65 -11 -25 -5 -27 -3 -34 42 -5 36 -2 61

15 108 23 66 28 157 10 203 -5 15 -21 44 -34 63 -19 28 -26 57 -35 145 -6 60

-13 111 -14 113 -2 1 -15 -2 -30 -7 -24 -10 -26 -9 -26 18 0 27 4 29 103 58

l102 30 10 -110 10 -110 40 59z m-787 120 c59 -21 113 -61 142 -103 21 -31 25

-48 25 -112 0 -68 -4 -82 -33 -134 -36 -62 -74 -105 -136 -153 l-38 -30 41

-163 c23 -90 41 -164 39 -166 -8 -7 -129 -47 -132 -44 -2 2 -68 148 -147 324

-78 176 -143 321 -144 323 -2 2 -19 -5 -39 -14 -19 -10 -37 -16 -39 -13 -20

23 -94 165 -90 172 11 17 174 89 189 83 8 -3 13 -2 10 3 -20 32 274 54 352 27z

m1497 -61 c27 -16 50 -35 52 -41 2 -6 -44 -64 -102 -128 -90 -97 -103 -116

-83 -116 30 1 99 32 117 53 20 25 29 22 81 -27 l48 -45 -29 -29 c-35 -36 -98

-67 -176 -87 -72 -19 -97 -19 -164 1 -181 54 -217 290 -60 398 63 44 108 56

192 54 64 -3 83 -8 124 -33z m1131 5 c54 -11 101 -24 105 -28 3 -4 12 -36 19

-72 21 -109 58 -272 62 -276 2 -2 21 68 42 156 20 88 40 160 44 160 4 -1 41

-9 82 -19 50 -12 75 -23 74 -32 -2 -22 -226 -703 -235 -713 -8 -9 -106 11

-113 23 -2 3 -8 105 -12 226 -8 236 -8 237 -45 18 l-22 -133 -32 0 c-18 0 -47

3 -64 6 -29 6 -31 9 -31 52 0 37 6 51 36 85 93 103 109 254 35 347 -25 32 -27

41 -23 98 4 57 3 62 -16 62 -26 0 -33 10 -25 38 7 27 -1 26 119 2z m-151 -195

c70 -40 97 -119 71 -207 -19 -66 -83 -143 -141 -169 -49 -23 -145 -25 -184 -4

-93 47 -123 163 -71 266 21 41 107 122 124 116 6 -2 17 2 24 10 24 23 129 17

177 -12z m-1972 -39 c163 -70 133 -318 -50 -408 -53 -26 -71 -30 -117 -26

-230 19 -234 333 -5 432 43 19 130 20 172 2z"/>

<path d="M2524 3736 c-73 -34 -114 -100 -114 -182 0 -145 164 -231 281 -149

60 42 82 85 82 154 0 89 -40 154 -116 186 -49 20 -73 19 -133 -9z m146 -31

c32 -34 33 -91 1 -116 -58 -47 -139 -2 -127 71 11 68 81 93 126 45z"/>

<path d="M3584 3741 c-74 -34 -109 -103 -102 -201 5 -71 37 -118 101 -149 53

-26 99 -26 153 -2 62 28 97 80 102 151 7 99 -44 177 -137 209 -46 15 -69 14

-117 -8z m101 -36 c15 -14 25 -36 25 -53 0 -85 -108 -114 -146 -40 -41 79 59

156 121 93z"/>

<path d="M2250 3357 c-59 -30 -88 -114 -70 -201 24 -119 116 -218 203 -220 79

-2 121 58 120 169 -1 81 -23 142 -73 199 -56 63 -122 83 -180 53z"/>

<path d="M3880 3351 c-141 -74 -177 -356 -52 -408 29 -12 43 -13 75 -3 54 16

120 80 148 143 31 69 33 188 5 230 -38 57 -112 73 -176 38z"/>

<path d="M2787 3238 c10 -19 36 -41 59 -52 38 -18 43 -24 54 -75 25 -117 96

-244 154 -281 43 -26 100 -26 142 1 47 29 110 128 139 220 14 44 25 88 25 98

0 12 14 23 40 34 34 13 87 73 75 85 -2 2 -20 -9 -40 -24 -48 -36 -84 -36 -200

0 -101 31 -121 30 -254 -10 -92 -28 -118 -26 -168 12 -42 32 -48 30 -26 -8z"/>

<path d="M1780 1307 c-29 -15 -29 -15 10 -143 44 -142 39 -138 104 -73 54 54

56 58 56 108 0 29 -5 61 -10 72 -24 43 -108 62 -160 36z"/>

<path d="M3167 1366 c-47 -26 -66 -56 -67 -106 0 -44 32 -115 49 -108 4 2 44

44 89 94 80 89 81 92 62 109 -27 24 -98 30 -133 11z"/>

<path d="M4188 1214 c-35 -19 -48 -43 -48 -91 1 -65 46 -103 123 -103 39 0 49

5 76 35 30 35 39 73 25 109 -5 13 -10 9 -23 -16 -12 -26 -23 -34 -49 -36 -66

-7 -96 58 -46 97 l27 21 -29 0 c-16 -1 -41 -7 -56 -16z"/>

<path d="M2255 1164 c-111 -57 -68 -204 60 -204 26 0 45 9 72 33 30 28 36 40

36 76 0 23 -5 47 -12 54 -8 8 -11 6 -11 -8 -1 -53 -60 -78 -103 -45 -41 33

-37 56 18 95 19 14 19 14 -5 15 -14 0 -38 -7 -55 -16z"/>

</g>

</svg>

